<?xml version="1.0" standalone="no"?>
<!DOCTYPE svg PUBLIC "-//W3C//DTD SVG 20010904//EN"
 "http://www.w3.org/TR/2001/REC-SVG-20010904/DTD/svg10.dtd">
<svg version="1.0" xmlns="http://www.w3.org/2000/svg"
 width="950.000000pt" height="512.000000pt" viewBox="0 0 950.000000 512.000000"
 preserveAspectRatio="xMidYMid meet">

<g transform="translate(0.000000,512.000000) scale(0.100000,-0.100000)"
fill="#000000" stroke="none">
<path d="M535 4113 c-87 -19 -140 -56 -150 -104 -9 -40 12 -70 79 -113 64 -41
80 -77 96 -206 13 -106 13 -468 0 -577 -11 -99 -21 -120 -79 -164 -49 -37 -62
-68 -49 -116 10 -40 47 -66 122 -88 78 -23 290 -17 351 9 110 47 126 140 34
196 -63 39 -73 66 -77 214 -5 150 6 203 42 212 13 3 37 -1 52 -9 16 -8 173
-146 349 -307 176 -161 334 -301 350 -311 68 -43 133 -12 161 74 14 44 18 122
23 517 7 523 7 522 78 558 21 11 46 29 56 40 24 27 26 82 3 117 -31 47 -75 58
-246 63 -175 5 -224 -4 -273 -47 -26 -24 -32 -36 -32 -71 0 -35 6 -46 33 -69
17 -14 45 -37 62 -51 34 -29 50 -90 50 -196 0 -108 -24 -140 -83 -111 -18 8
-155 126 -306 261 -151 136 -291 256 -312 267 -33 16 -58 19 -176 18 -76 -1
-147 -3 -158 -6z"/>
<path d="M3901 4109 c-126 -24 -194 -70 -194 -129 0 -40 25 -66 83 -85 84 -28
84 -27 93 -273 4 -120 7 -308 5 -419 -3 -231 -5 -234 -94 -286 -27 -16 -52
-34 -56 -41 -16 -23 -7 -59 21 -87 l29 -29 369 0 c294 0 394 -3 496 -17 114
-15 132 -15 155 -2 39 21 108 130 132 206 46 150 1 283 -96 283 -39 0 -59 -22
-80 -88 -36 -112 -118 -166 -248 -166 -82 -1 -130 20 -149 62 -8 19 -13 141
-15 397 -4 427 -2 438 64 470 60 29 84 54 84 87 0 96 -102 128 -395 127 -88
-1 -180 -5 -204 -10z"/>
<path d="M5202 4074 c-145 -39 -212 -92 -212 -168 0 -83 60 -126 178 -126 136
0 266 43 322 107 35 39 41 103 14 142 -40 57 -180 78 -302 45z"/>
<path d="M7842 4074 c-145 -39 -212 -92 -212 -168 0 -83 60 -126 178 -126 136
0 266 43 322 107 35 39 41 103 14 142 -40 57 -180 78 -302 45z"/>
<path d="M8531 3825 c-129 -79 -238 -150 -242 -157 -13 -20 -11 -82 4 -101 9
-12 31 -17 87 -19 l75 -3 5 -290 c5 -269 7 -293 26 -336 31 -67 87 -124 152
-156 52 -26 66 -28 172 -28 87 0 129 5 175 20 73 24 172 90 203 135 30 45 30
109 -1 138 -29 27 -36 27 -109 0 -56 -20 -61 -20 -94 -4 -57 27 -64 57 -64
284 0 141 3 201 12 210 8 8 51 12 129 12 95 0 119 3 130 16 17 21 24 131 10
167 l-11 27 -123 0 c-82 0 -127 4 -135 12 -7 7 -12 45 -12 99 0 121 2 119 -84
119 l-71 0 -234 -145z"/>
<path d="M2442 3720 c-206 -54 -367 -202 -414 -379 -67 -257 51 -488 297 -581
76 -28 245 -39 337 -21 199 39 373 162 450 318 44 89 51 216 19 321 -51 169
-191 301 -368 347 -80 21 -231 18 -321 -5z m144 -229 c84 -51 155 -433 94
-506 -38 -46 -121 -19 -151 49 -33 75 -72 256 -73 339 -1 77 0 79 32 108 38
34 56 36 98 10z"/>
<path d="M5310 3709 c-100 -22 -230 -64 -282 -90 -42 -22 -58 -45 -58 -86 0
-35 14 -53 62 -82 20 -12 39 -29 44 -39 4 -9 9 -90 12 -180 6 -205 -2 -238
-70 -310 -45 -47 -50 -57 -44 -85 8 -40 44 -73 99 -89 61 -18 397 -17 460 1
68 20 107 59 107 108 0 33 -6 43 -46 78 -36 32 -48 49 -54 85 -5 25 -9 189
-10 365 0 236 -3 324 -12 333 -17 17 -109 13 -208 -9z"/>
<path d="M6035 3714 c-127 -30 -274 -85 -305 -114 -44 -41 -41 -81 9 -135 30
-32 41 -55 47 -91 9 -61 -2 -348 -15 -392 -6 -19 -28 -54 -51 -78 -47 -51 -53
-91 -18 -123 40 -38 85 -46 253 -46 285 0 359 48 293 191 -21 46 -23 62 -22
234 2 211 11 256 58 279 37 17 71 6 100 -32 19 -26 21 -44 24 -190 5 -223 0
-255 -49 -310 -41 -47 -47 -70 -28 -111 21 -45 77 -59 250 -64 215 -6 310 19
339 88 11 27 9 36 -21 92 l-34 63 0 207 c0 203 0 207 23 231 44 47 105 43 138
-8 25 -38 36 -187 24 -328 -8 -107 -12 -124 -40 -166 -16 -26 -30 -53 -30 -59
0 -33 28 -64 79 -90 54 -26 62 -27 216 -27 177 0 237 13 275 62 28 36 25 72
-12 123 l-33 44 -5 291 -5 290 -29 53 c-32 58 -94 105 -160 123 -23 6 -77 9
-121 7 -96 -5 -163 -33 -247 -101 -31 -26 -61 -47 -67 -47 -6 0 -26 22 -45 48
-49 67 -102 94 -196 100 -125 7 -220 -28 -311 -115 -64 -62 -82 -57 -89 23 -3
34 -11 68 -19 77 -17 21 -91 21 -176 1z"/>
<path d="M7950 3709 c-100 -22 -230 -64 -282 -90 -42 -22 -58 -45 -58 -86 0
-35 14 -53 62 -82 20 -12 39 -29 44 -39 4 -9 9 -90 12 -180 6 -205 -2 -238
-70 -310 -45 -47 -50 -57 -44 -85 8 -40 44 -73 99 -89 61 -18 397 -17 460 1
68 20 107 59 107 108 0 33 -6 43 -46 78 -36 32 -48 49 -54 85 -5 25 -9 189
-10 365 0 236 -3 324 -12 333 -17 17 -109 13 -208 -9z"/>
<path d="M1303 2285 c-219 -48 -436 -222 -523 -419 -53 -119 -68 -290 -36
-416 32 -129 120 -272 221 -362 123 -109 313 -178 489 -178 107 0 166 12 291
61 55 21 120 43 144 50 54 13 100 60 138 138 38 76 42 146 11 191 -32 48 -74
52 -120 12 -49 -43 -111 -72 -192 -89 -190 -40 -357 44 -441 222 -42 90 -55
148 -56 244 -1 95 12 146 50 198 62 86 184 104 304 45 76 -38 115 -80 181
-192 52 -89 80 -110 151 -110 124 0 197 112 175 268 -12 86 -31 141 -70 197
-43 62 -78 78 -150 70 -50 -6 -66 -3 -131 25 -41 17 -101 38 -134 46 -74 17
-220 17 -302 -1z"/>
<path d="M8341 2005 c-129 -79 -238 -150 -242 -157 -13 -20 -11 -82 4 -101 9
-12 31 -17 87 -19 l75 -3 5 -290 c5 -269 7 -293 26 -336 31 -67 87 -124 152
-156 52 -26 66 -28 172 -28 87 0 129 5 175 20 73 24 172 90 203 135 30 45 30
109 -1 138 -29 27 -36 27 -109 0 -56 -20 -61 -20 -94 -4 -57 27 -64 57 -64
284 0 141 3 201 12 210 8 8 51 12 129 12 95 0 119 3 130 16 17 21 24 131 10
167 l-11 27 -123 0 c-82 0 -127 4 -135 12 -7 7 -12 45 -12 99 0 121 2 119 -84
119 l-71 0 -234 -145z"/>
<path d="M2582 1900 c-206 -54 -367 -202 -414 -379 -67 -257 51 -488 297 -581
76 -28 245 -39 337 -21 199 39 373 162 450 318 44 89 51 216 19 321 -51 169
-191 301 -368 347 -80 21 -231 18 -321 -5z m144 -229 c84 -51 155 -433 94
-506 -38 -46 -121 -19 -151 49 -33 75 -72 256 -73 339 -1 77 0 79 32 108 38
34 56 36 98 10z"/>
<path d="M6421 1904 c-87 -23 -171 -74 -241 -144 -199 -200 -199 -510 1 -709
97 -97 213 -141 372 -141 98 0 179 19 264 62 146 73 203 162 158 247 -25 50
-59 53 -124 11 -69 -44 -163 -65 -224 -51 -67 15 -132 64 -158 119 -38 77 -40
76 255 82 256 5 258 5 277 28 93 116 -6 356 -187 454 -28 15 -77 34 -109 43
-73 19 -212 18 -284 -1z m212 -194 c22 -25 27 -40 27 -80 0 -45 -3 -52 -26
-60 -34 -13 -140 -13 -165 0 -26 15 -26 82 1 126 38 61 114 67 163 14z"/>
<path d="M7496 1904 c-135 -33 -287 -146 -348 -260 -55 -102 -71 -234 -43
-353 21 -89 59 -155 130 -226 104 -104 229 -155 382 -155 100 0 169 14 249 50
156 70 232 216 149 287 -34 29 -50 29 -121 -4 -108 -50 -224 -33 -296 44 -64
68 -100 192 -79 271 17 63 46 100 90 113 30 9 44 9 67 -2 31 -15 42 -33 76
-124 29 -76 69 -105 141 -105 136 0 223 115 187 245 -27 98 -157 195 -298 224
-72 15 -214 12 -286 -5z"/>
<path d="M3710 1894 c-90 -24 -242 -75 -285 -97 -104 -51 -113 -98 -33 -169
l53 -46 -1 -171 c-2 -248 -7 -276 -55 -319 -65 -59 -50 -121 39 -160 47 -20
291 -29 375 -13 145 27 184 86 120 182 -27 41 -28 46 -31 203 -4 200 2 258 33
294 20 23 31 27 76 26 43 0 56 -5 75 -27 35 -41 47 -123 42 -292 -5 -158 -15
-202 -57 -239 -30 -28 -28 -80 5 -111 41 -38 112 -48 295 -43 223 6 279 30
279 121 0 23 -8 41 -26 58 -49 46 -53 64 -63 307 -14 306 -28 362 -107 432
-68 59 -117 75 -229 75 -118 0 -151 -14 -230 -94 -70 -72 -96 -68 -100 15 -3
82 -51 101 -175 68z"/>
<path d="M5050 1894 c-90 -24 -242 -75 -285 -97 -104 -51 -113 -98 -33 -169
l53 -46 -1 -171 c-2 -248 -7 -276 -55 -319 -65 -59 -50 -121 39 -160 47 -20
291 -29 375 -13 145 27 184 86 120 182 -27 41 -28 46 -31 203 -4 200 2 258 33
294 20 23 31 27 76 26 43 0 56 -5 75 -27 35 -41 47 -123 42 -292 -5 -158 -15
-202 -57 -239 -30 -28 -28 -80 5 -111 41 -38 112 -48 295 -43 223 6 279 30
279 121 0 23 -8 41 -26 58 -49 46 -53 64 -63 307 -14 306 -28 362 -107 432
-68 59 -117 75 -229 75 -118 0 -151 -14 -230 -94 -70 -72 -96 -68 -100 15 -3
82 -51 101 -175 68z"/>
</g>
</svg>
