<?xml version="1.0" encoding="UTF-8"?>
<!DOCTYPE svg PUBLIC "-//W3C//DTD SVG 1.1//EN" "http://www.w3.org/Graphics/SVG/1.1/DTD/svg11.dtd">
<svg xmlns="http://www.w3.org/2000/svg" version="1.1" width="950px" height="512px" style="shape-rendering:geometricPrecision; text-rendering:geometricPrecision; image-rendering:optimizeQuality; fill-rule:evenodd; clip-rule:evenodd" xmlns:xlink="http://www.w3.org/1999/xlink">
<g><path style="opacity:0.987" fill="#4c2bc3" d="M 52.5,99.5 C 63.1719,99.3335 73.8385,99.5002 84.5,100C 86.5,101 88.5,102 90.5,103C 108.356,118.766 126.022,134.766 143.5,151C 145.806,153.139 148.473,154.639 151.5,155.5C 154.464,154.267 155.964,151.934 156,148.5C 156.803,140.255 155.803,132.255 153,124.5C 150.252,122.542 147.418,120.709 144.5,119C 139.035,108.745 142.035,102.412 153.5,100C 164.5,99.3333 175.5,99.3333 186.5,100C 195.752,100.579 199.919,105.412 199,114.5C 198.208,116.587 197.041,118.421 195.5,120C 189.974,121.526 186.474,125.026 185,130.5C 183.724,159.803 183.058,189.136 183,218.5C 182.938,225.258 181.105,231.425 177.5,237C 173.167,239 168.833,239 164.5,237C 142.833,217.333 121.167,197.667 99.5,178C 96.8884,176.111 94.0551,174.611 91,173.5C 87.839,175.141 86.1723,177.807 86,181.5C 85.3333,188.833 85.3333,196.167 86,203.5C 86.3463,210.038 89.5129,214.538 95.5,217C 102.055,226.584 99.722,233.251 88.5,237C 76.825,238.975 65.1583,238.975 53.5,237C 43.6021,234.806 40.1021,228.973 43,219.5C 46.5159,217.074 49.8492,214.407 53,211.5C 53.9203,208.899 54.587,206.232 55,203.5C 56.471,185.857 56.8043,168.19 56,150.5C 55.6375,142.658 54.3041,134.991 52,127.5C 48.0273,123.682 43.694,120.349 39,117.5C 36.6547,112.405 37.488,107.905 41.5,104C 45.1574,102.178 48.8241,100.678 52.5,99.5 Z"/></g>
<g><path style="opacity:0.987" fill="#4c2bc3" d="M 392.5,99.5 C 405.504,99.3334 418.504,99.5001 431.5,100C 438.45,100.022 444.284,102.522 449,107.5C 449.667,110.5 449.667,113.5 449,116.5C 444.828,118.919 440.828,121.585 437,124.5C 435.908,127.044 435.241,129.711 435,132.5C 434.071,156.865 434.405,181.199 436,205.5C 437.167,209.333 439.667,211.833 443.5,213C 453.229,215.019 462.062,213.185 470,207.5C 473.931,201.693 477.098,195.527 479.5,189C 487.684,187.176 492.851,190.343 495,198.5C 496.638,213.251 492.472,226.084 482.5,237C 479.961,238.047 477.295,238.547 474.5,238.5C 467.805,237.901 461.139,237.067 454.5,236C 428.833,235.667 403.167,235.333 377.5,235C 372.931,232.459 371.431,228.625 373,223.5C 376.828,220.585 380.828,217.919 385,215.5C 386.916,212.102 387.916,208.435 388,204.5C 388.419,180.16 388.085,155.827 387,131.5C 386.64,129.392 385.973,127.392 385,125.5C 381.27,123.477 377.437,121.644 373.5,120C 368.316,115.375 368.316,110.708 373.5,106C 379.59,102.738 385.924,100.571 392.5,99.5 Z"/></g>
<g><path style="opacity:0.975" fill="#4b2bc3" d="M 523.5,102.5 C 529.509,102.334 535.509,102.501 541.5,103C 552.315,106.779 554.815,113.612 549,123.5C 536.61,132.514 522.777,135.681 507.5,133C 498.114,129.177 495.614,122.677 500,113.5C 506.949,107.802 514.782,104.135 523.5,102.5 Z"/></g>
<g><path style="opacity:0.975" fill="#4b2bc3" d="M 787.5,102.5 C 793.509,102.334 799.509,102.501 805.5,103C 816.315,106.779 818.815,113.612 813,123.5C 800.61,132.514 786.777,135.681 771.5,133C 762.114,129.177 759.614,122.677 764,113.5C 770.949,107.802 778.782,104.135 787.5,102.5 Z"/></g>
<g><path style="opacity:0.988" fill="#4c2bc3" d="M 874.5,114.5 C 880.093,114.193 885.593,114.527 891,115.5C 891.186,122.414 891.686,129.247 892.5,136C 901.106,137.21 909.773,137.877 918.5,138C 919,138.5 919.5,139 920,139.5C 920.667,144.5 920.667,149.5 920,154.5C 919.691,155.766 919.191,156.933 918.5,158C 911.167,158.333 903.833,158.667 896.5,159C 895.062,159.219 893.729,159.719 892.5,160.5C 891.353,173.454 891.186,186.454 892,199.5C 894.744,209.874 900.911,212.374 910.5,207C 917.415,205.4 921.082,208.233 921.5,215.5C 918.875,223.297 913.875,229.13 906.5,233C 895.037,238.169 883.037,239.836 870.5,238C 856.973,235.14 848.806,226.973 846,213.5C 845.5,194.836 845.333,176.17 845.5,157.5C 839.866,156.812 834.199,156.312 828.5,156C 827.374,152.256 827.207,148.423 828,144.5C 843.406,134.243 858.906,124.243 874.5,114.5 Z"/></g>
<g><path style="opacity:0.986" fill="#4c2bc3" d="M 248.5,137.5 C 267.045,134.637 283.712,138.804 298.5,150C 316.857,169.162 319.69,190.328 307,213.5C 282.764,239.814 254.264,245.647 221.5,231C 203.043,217.744 196.543,199.911 202,177.5C 206.056,163.78 214.222,153.28 226.5,146C 233.602,142.249 240.935,139.416 248.5,137.5 Z M 250.5,161.5 C 254.909,160.618 258.409,161.952 261,165.5C 267.524,179.456 270.191,194.122 269,209.5C 266.565,214.224 262.731,215.724 257.5,214C 253.577,210.323 251.077,205.823 250,200.5C 247.397,191.485 245.564,182.318 244.5,173C 244.573,168.016 246.573,164.183 250.5,161.5 Z"/></g>
<g><path style="opacity:0.988" fill="#4b2bc2" d="M 537.5,138.5 C 541.846,138.334 546.179,138.501 550.5,139C 551,139.5 551.5,140 552,140.5C 553.293,164.117 553.96,187.784 554,211.5C 556.63,215.132 559.63,218.465 563,221.5C 565.506,226.62 564.339,230.786 559.5,234C 555.768,236.133 551.768,237.466 547.5,238C 536.167,238.667 524.833,238.667 513.5,238C 508.278,237.654 503.445,236.154 499,233.5C 496.131,229.742 495.798,225.742 498,221.5C 502.48,219.022 505.48,215.355 507,210.5C 508.868,197.184 508.868,183.851 507,170.5C 503.849,167.593 500.516,164.926 497,162.5C 494.53,155.353 497.03,150.519 504.5,148C 515.405,144.028 526.405,140.862 537.5,138.5 Z"/></g>
<g><path style="opacity:0.986" fill="#4c2bc3" d="M 607.5,138.5 C 611.846,138.334 616.179,138.501 620.5,139C 621.126,139.75 621.626,140.584 622,141.5C 622.333,145.167 622.667,148.833 623,152.5C 623.388,153.428 624.055,154.095 625,154.5C 628.822,151.347 632.655,148.18 636.5,145C 649.373,137.582 662.706,136.582 676.5,142C 680.422,145.415 683.756,149.249 686.5,153.5C 691.025,149.808 695.692,146.308 700.5,143C 712.699,137.452 725.032,137.118 737.5,142C 746.77,148.712 751.104,157.878 750.5,169.5C 749.402,183.818 749.235,198.151 750,212.5C 751.173,216.337 753.173,219.671 756,222.5C 757.373,230.153 754.206,234.987 746.5,237C 733.829,240.26 721.163,240.26 708.5,237C 700.747,235.601 697.247,231.101 698,223.5C 701.348,219.802 703.348,215.469 704,210.5C 704.667,199.5 704.667,188.5 704,177.5C 702.843,168.339 698.01,165.506 689.5,169C 687.396,171.042 686.229,173.542 686,176.5C 685.126,189.209 685.46,201.876 687,214.5C 696.522,227.964 693.022,235.797 676.5,238C 665.5,238.667 654.5,238.667 643.5,238C 634.023,237.532 630.19,232.698 632,223.5C 634.706,221.129 637.039,218.463 639,215.5C 640.515,202.871 640.848,190.205 640,177.5C 638.322,167.49 633.322,165.157 625,170.5C 623.956,172.715 623.29,175.048 623,177.5C 622.333,189.833 622.333,202.167 623,214.5C 624.781,218.395 626.281,222.395 627.5,226.5C 627.248,230.583 625.248,233.416 621.5,235C 617.653,236.616 613.653,237.616 609.5,238C 599.833,238.667 590.167,238.667 580.5,238C 573.516,238.023 568.849,234.857 566.5,228.5C 567.098,227.205 567.598,225.872 568,224.5C 571.427,221.744 574.093,218.41 576,214.5C 578.586,199.874 578.919,185.207 577,170.5C 575.754,166.918 573.42,164.251 570,162.5C 567.601,155.786 569.768,150.953 576.5,148C 586.8,144.286 597.133,141.119 607.5,138.5 Z"/></g>
<g><path style="opacity:0.988" fill="#4b2bc2" d="M 801.5,138.5 C 805.846,138.334 810.179,138.501 814.5,139C 815,139.5 815.5,140 816,140.5C 817.293,164.117 817.96,187.784 818,211.5C 820.63,215.132 823.63,218.465 827,221.5C 829.506,226.62 828.339,230.786 823.5,234C 819.768,236.133 815.768,237.466 811.5,238C 800.167,238.667 788.833,238.667 777.5,238C 772.278,237.654 767.445,236.154 763,233.5C 760.131,229.742 759.798,225.742 762,221.5C 766.48,219.022 769.48,215.355 771,210.5C 772.868,197.184 772.868,183.851 771,170.5C 767.849,167.593 764.516,164.926 761,162.5C 758.53,155.353 761.03,150.519 768.5,148C 779.405,144.028 790.405,140.862 801.5,138.5 Z"/></g>
<g><path style="opacity:0.986" fill="#4c2bc3" d="M 133.5,281.5 C 141.507,281.334 149.507,281.5 157.5,282C 166.029,284.265 174.362,287.098 182.5,290.5C 190.646,287.674 197.146,289.674 202,296.5C 209.732,309.271 211.065,322.604 206,336.5C 199.482,343.576 191.648,345.41 182.5,342C 177.714,336.265 173.548,330.099 170,323.5C 160.675,311.836 148.842,308.003 134.5,312C 125.693,317.95 121.693,326.284 122.5,337C 122.533,352.776 128.2,366.11 139.5,377C 149.393,384.064 160.393,386.397 172.5,384C 180.784,382.692 187.784,379.026 193.5,373C 199.15,371.242 202.983,373.076 205,378.5C 206.085,390.246 202.251,400.079 193.5,408C 181.5,412 169.5,416 157.5,420C 128.001,423.619 103.834,414.119 85,391.5C 67.448,365.349 67.1147,339.016 84,312.5C 96.8043,296.183 113.304,285.849 133.5,281.5 Z"/></g>
<g><path style="opacity:0.988" fill="#4c2bc3" d="M 855.5,296.5 C 861.093,296.193 866.593,296.527 872,297.5C 872.186,304.414 872.686,311.247 873.5,318C 882.106,319.21 890.773,319.877 899.5,320C 900,320.5 900.5,321 901,321.5C 901.667,326.5 901.667,331.5 901,336.5C 900.691,337.766 900.191,338.933 899.5,340C 892.167,340.333 884.833,340.667 877.5,341C 876.062,341.219 874.729,341.719 873.5,342.5C 872.353,355.454 872.186,368.454 873,381.5C 875.744,391.874 881.911,394.374 891.5,389C 898.415,387.4 902.082,390.233 902.5,397.5C 899.875,405.297 894.875,411.13 887.5,415C 876.037,420.169 864.037,421.836 851.5,420C 837.973,417.14 829.806,408.973 827,395.5C 826.5,376.836 826.333,358.17 826.5,339.5C 820.866,338.812 815.199,338.312 809.5,338C 808.374,334.256 808.207,330.423 809,326.5C 824.406,316.243 839.906,306.243 855.5,296.5 Z"/></g>
<g><path style="opacity:0.986" fill="#4c2bc3" d="M 262.5,319.5 C 281.045,316.637 297.712,320.804 312.5,332C 330.857,351.162 333.69,372.328 321,395.5C 296.764,421.814 268.264,427.647 235.5,413C 217.043,399.744 210.543,381.911 216,359.5C 220.056,345.78 228.222,335.28 240.5,328C 247.602,324.249 254.935,321.416 262.5,319.5 Z M 264.5,343.5 C 268.909,342.618 272.409,343.952 275,347.5C 281.524,361.456 284.191,376.122 283,391.5C 280.565,396.224 276.731,397.724 271.5,396C 267.577,392.323 265.077,387.823 264,382.5C 261.397,373.485 259.564,364.318 258.5,355C 258.573,350.016 260.573,346.183 264.5,343.5 Z"/></g>
<g><path style="opacity:0.984" fill="#4c2bc3" d="M 645.5,319.5 C 665.748,316.302 682.581,322.302 696,337.5C 703.459,347.319 705.126,357.986 701,369.5C 699.833,370.667 698.667,371.833 697.5,373C 680.456,373.181 663.456,373.681 646.5,374.5C 645.256,380.531 647.256,385.364 652.5,389C 658.881,393.216 665.881,394.549 673.5,393C 679.598,390.861 685.431,388.361 691,385.5C 696.206,386.38 699.04,389.546 699.5,395C 698.953,398.925 697.453,402.425 695,405.5C 677.198,420.395 657.031,424.561 634.5,418C 610.667,407.176 600.167,388.676 603,362.5C 608.014,338.987 622.18,324.653 645.5,319.5 Z M 651.5,337.5 C 660.309,335.981 664.976,339.648 665.5,348.5C 665.674,350.693 665.007,352.527 663.5,354C 657.245,356.043 651.078,355.877 645,353.5C 643.607,346.631 645.774,341.297 651.5,337.5 Z"/></g>
<g><path style="opacity:0.983" fill="#4c2bc3" d="M 752.5,319.5 C 769.646,316.872 785.312,320.372 799.5,330C 808.678,338.298 810.844,348.132 806,359.5C 799.049,367.455 790.549,369.622 780.5,366C 775.921,361.015 772.755,355.181 771,348.5C 762.774,342.086 756.441,343.753 752,353.5C 748.93,369.86 754.764,381.693 769.5,389C 774.167,389.667 778.833,389.667 783.5,389C 787.534,387.063 791.701,385.563 796,384.5C 800.31,384.32 802.976,386.32 804,390.5C 804.674,401.19 800.174,409.023 790.5,414C 777.508,420.173 763.841,422.173 749.5,420C 720.018,411.53 706.518,392.03 709,361.5C 712.869,343.956 723.036,331.456 739.5,324C 743.893,322.329 748.226,320.829 752.5,319.5 Z"/></g>
<g><path style="opacity:0.985" fill="#4b2bc3" d="M 373.5,320.5 C 385.136,317.968 390.303,322.635 389,334.5C 390.868,335.672 392.702,335.505 394.5,334C 403.446,321.748 415.446,317.414 430.5,321C 443.115,323.948 450.615,331.781 453,344.5C 454.222,361.149 455.222,377.816 456,394.5C 459.224,399.116 462.057,403.949 464.5,409C 464.049,411.568 463.049,413.902 461.5,416C 457.479,418.34 453.146,419.674 448.5,420C 437.167,420.667 425.833,420.667 414.5,420C 406.019,419.201 402.519,414.701 404,406.5C 408.668,401.838 411.001,396.172 411,389.5C 411.667,381.167 411.667,372.833 411,364.5C 410.419,351.209 404.085,346.876 392,351.5C 390.154,354.569 389.154,357.902 389,361.5C 388.333,372.5 388.333,383.5 389,394.5C 391.568,399.138 393.735,403.971 395.5,409C 395.205,411.923 393.871,414.257 391.5,416C 387.768,418.133 383.768,419.466 379.5,420C 368.833,420.667 358.167,420.667 347.5,420C 337.636,419.157 333.469,413.991 335,404.5C 338,402.833 340.333,400.5 342,397.5C 343.132,386.528 343.965,375.528 344.5,364.5C 345.736,356.032 342.569,350.032 335,346.5C 332.613,343.224 332.279,339.891 334,336.5C 337.081,333.707 340.581,331.54 344.5,330C 354.249,326.694 363.916,323.527 373.5,320.5 Z"/></g>
<g><path style="opacity:0.985" fill="#4b2bc3" d="M 507.5,320.5 C 519.136,317.968 524.303,322.635 523,334.5C 524.868,335.672 526.702,335.505 528.5,334C 537.446,321.748 549.446,317.414 564.5,321C 577.115,323.948 584.615,331.781 587,344.5C 588.222,361.149 589.222,377.816 590,394.5C 593.224,399.116 596.057,403.949 598.5,409C 598.049,411.568 597.049,413.902 595.5,416C 591.479,418.34 587.146,419.674 582.5,420C 571.167,420.667 559.833,420.667 548.5,420C 540.019,419.201 536.519,414.701 538,406.5C 542.668,401.838 545.001,396.172 545,389.5C 545.667,381.167 545.667,372.833 545,364.5C 544.419,351.209 538.085,346.876 526,351.5C 524.154,354.569 523.154,357.902 523,361.5C 522.333,372.5 522.333,383.5 523,394.5C 525.568,399.138 527.735,403.971 529.5,409C 529.205,411.923 527.871,414.257 525.5,416C 521.768,418.133 517.768,419.466 513.5,420C 502.833,420.667 492.167,420.667 481.5,420C 471.636,419.157 467.469,413.991 469,404.5C 472,402.833 474.333,400.5 476,397.5C 477.132,386.528 477.965,375.528 478.5,364.5C 479.736,356.032 476.569,350.032 469,346.5C 466.613,343.224 466.279,339.891 468,336.5C 471.081,333.707 474.581,331.54 478.5,330C 488.249,326.694 497.916,323.527 507.5,320.5 Z"/></g>
</svg>
