<?xml version="1.0" encoding="UTF-8" standalone="no"?>
<svg
   width="24"
   height="24"
   viewBox="0 0 24 24"
   version="1.1"
   id="svg4"
   sodipodi:docname="cam-rotate.svg"
   inkscape:version="1.4.2 (f4327f4, 2025-05-13)"
   xmlns:inkscape="http://www.inkscape.org/namespaces/inkscape"
   xmlns:sodipodi="http://sodipodi.sourceforge.net/DTD/sodipodi-0.dtd"
   xmlns="http://www.w3.org/2000/svg"
   xmlns:svg="http://www.w3.org/2000/svg"
   xmlns:rdf="http://www.w3.org/1999/02/22-rdf-syntax-ns#"
   xmlns:cc="http://creativecommons.org/ns#"
   xmlns:dc="http://purl.org/dc/elements/1.1/">
  <metadata
     id="metadata10">
    <rdf:RDF>
      <cc:Work
         rdf:about="">
        <dc:format>image/svg+xml</dc:format>
        <dc:type
           rdf:resource="http://purl.org/dc/dcmitype/StillImage" />
        <dc:title />
      </cc:Work>
    </rdf:RDF>
  </metadata>
  <defs
     id="defs8" />
  <sodipodi:namedview
     pagecolor="#ffffff"
     bordercolor="#666666"
     borderopacity="1"
     objecttolerance="10"
     gridtolerance="10"
     guidetolerance="10"
     inkscape:pageopacity="0"
     inkscape:pageshadow="2"
     inkscape:window-width="1456"
     inkscape:window-height="686"
     id="namedview6"
     showgrid="false"
     inkscape:zoom="9.8333333"
     inkscape:cx="12"
     inkscape:cy="12"
     inkscape:window-x="182"
     inkscape:window-y="31"
     inkscape:window-maximized="0"
     inkscape:current-layer="svg4"
     inkscape:showpageshadow="2"
     inkscape:pagecheckerboard="0"
     inkscape:deskcolor="#d1d1d1" />
  <path
     d="M 13.5,23 C 8.212,23 3.851,19.086 3.123,14 H 0 L 4,8.083 8,14 H 5.153 C 5.864,17.972 9.327,21 13.5,21 18.187,21 22,17.187 22,12.5 22,7.813 18.187,4 13.5,4 10.485,4 7.838,5.583 6.329,7.957 L 5.129,6.182 C 7.045,3.646 10.077,2 13.5,2 19.297,2 24,6.702 24,12.5 24,18.298 19.297,23 13.5,23 Z"
     id="path2" />
  <path
     inkscape:connector-curvature="0"
     d="M 8.5504267,13.443597 C 8.4147103,10.863348 10.163383,8.674289 12.45559,8.553724 c 2.292669,-0.12059 4.260876,1.872967 4.396593,4.453216 0.135716,2.58025 -1.612956,4.769309 -3.905164,4.889875 -2.292207,0.120566 -4.260876,-1.872968 -4.3965923,-4.453218 z m 5.9957123,-0.315364 c -0.06031,-1.146604 -0.93523,-2.032794 -1.954041,-1.979207 -1.01881,0.05359 -1.795937,1.026673 -1.735628,2.173277 0.06031,1.146605 0.935231,2.032797 1.954041,1.979209 1.018811,-0.05359 1.795938,-1.026674 1.735628,-2.173279 z m -1.790231,1.135157 c 0.508713,-0.02676 0.897955,-0.513595 0.867814,-1.086639 -0.03011,-0.572524 -0.468307,-1.016361 -0.977021,-0.989604 -0.508713,0.02676 -0.897927,0.514115 -0.867814,1.086639 0.03014,0.573044 0.468308,1.016362 0.977021,0.989604 z m 5.945651,3.120466 c 0.553216,0.494 1.234844,-0.07016 1.104726,-0.811786 -0.162002,-0.92577 -0.873325,-1.638392 -0.980102,-3.668437 -0.106777,-2.030047 0.526324,-2.813382 0.589852,-3.751016 0.05157,-0.751706 -0.68594,-1.241219 -1.183791,-0.691413 l -1.386211,1.527179 c 0.531249,0.850135 0.870415,1.864441 0.928567,2.970039 0.05815,1.1056 -0.173196,2.149913 -0.61233,3.051088 z"
     id="path2-7"
     style="stroke-width:0.489957" />
</svg>
