<?xml version="1.0" encoding="UTF-8" standalone="no"?>
<!-- Created with Inkscape (http://www.inkscape.org/) -->

<svg
   width="209.81577mm"
   height="203.6223mm"
   viewBox="0 0 209.81577 203.6223"
   version="1.1"
   id="svg1"
   inkscape:version="1.4.2 (f4327f4, 2025-05-13)"
   sodipodi:docname="emoj47.svg"
   xmlns:inkscape="http://www.inkscape.org/namespaces/inkscape"
   xmlns:sodipodi="http://sodipodi.sourceforge.net/DTD/sodipodi-0.dtd"
   xmlns="http://www.w3.org/2000/svg"
   xmlns:svg="http://www.w3.org/2000/svg">
  <sodipodi:namedview
     id="namedview1"
     pagecolor="#ffffff"
     bordercolor="#000000"
     borderopacity="0.25"
     inkscape:showpageshadow="2"
     inkscape:pageopacity="0.0"
     inkscape:pagecheckerboard="0"
     inkscape:deskcolor="#d1d1d1"
     inkscape:document-units="mm"
     inkscape:zoom="1.6168981"
     inkscape:cx="395.81961"
     inkscape:cy="560.02291"
     inkscape:window-width="3840"
     inkscape:window-height="2054"
     inkscape:window-x="-11"
     inkscape:window-y="-11"
     inkscape:window-maximized="1"
     inkscape:current-layer="layer1" />
  <defs
     id="defs1">
    <filter
       id="filter8969"
       color-interpolation-filters="sRGB"
       inkscape:collect="always"
       x="-0.068352136"
       y="-0.076059052"
       width="1.1367043"
       height="1.1521181">
      <feGaussianBlur
         id="feGaussianBlur8971"
         stdDeviation="21.954969"
         inkscape:collect="always" />
    </filter>
    <filter
       id="filter9059"
       color-interpolation-filters="sRGB"
       inkscape:collect="always"
       x="-0.023378777"
       y="-0.024655107"
       width="1.0467576"
       height="1.0493102">
      <feGaussianBlur
         id="feGaussianBlur9061"
         stdDeviation="7.1168668"
         inkscape:collect="always" />
    </filter>
  </defs>
  <g
     inkscape:label="Layer 1"
     inkscape:groupmode="layer"
     id="layer1"
     transform="translate(-0.34878399,-0.35054909)">
    <g
       id="g9063"
       transform="matrix(0.23944106,0,0,0.24168923,-458.52311,-270.03814)">
      <path
         id="path8939"
         style="fill:#ffff84;fill-rule:evenodd;filter:url(#filter8969)"
         inkscape:connector-curvature="0"
         d="m 2420.2,1232.2 c -100.46,-29.413 -305.03,-26.506 -373.77,68.995 -279.63,388.46 268.94,747.89 539.84,552.39 177.48,-128.08 141.23,-145.77 23.203,-230.73 -16.834,-12.118 56.155,-44.33 36.353,-50.502 -112.64,-35.109 -32.376,-66.376 -14.792,-90.803 7.7112,-10.713 -16.715,-44.559 -9.0041,-55.271 11.886,-16.512 74.621,-11.678 81.621,-21.402 7.0219,-9.755 -20.072,-30.213 -11.023,-42.784 5.4141,-7.5213 47.996,-8.5805 47.376,-7.7178 -25.084,34.847 -50.742,-77.65 -91.733,-90.427 -80.454,-25.078 -139.1,-17.359 -228.07,-31.742 z" />
      <path
         id="path8997"
         d="m 2420.2,1232.2 c -100.46,-29.413 -305.03,-26.506 -373.77,68.995 -279.63,388.46 268.94,747.89 539.84,552.39 177.48,-128.08 110.12,-205.17 43.002,-154.37 -16.539,12.518 -60.274,-45.518 -68.299,-64.644 -27.784,-66.222 16.142,-59.494 -3.4787,-82.318 -26.23,-30.512 20.054,-92.642 27.765,-103.35 11.886,-16.512 -32.859,-51.276 -25.859,-61 7.0219,-9.755 55.124,-12.757 64.173,-25.328 5.4141,-7.5213 80.281,-6.2374 71.174,-22.345 -21.13,-37.377 -5.4868,-63.508 -46.478,-76.285 -80.454,-25.078 -139.1,-17.359 -228.07,-31.742 z"
         sodipodi:nodetypes="cssssssssssc"
         style="fill:#c80000;fill-rule:evenodd;filter:url(#filter9059)"
         inkscape:connector-curvature="0" />
      <path
         id="path8887"
         style="fill:#000000;fill-rule:evenodd"
         inkscape:connector-curvature="0"
         d="m 2420.2,1232.2 c -0.031,0.1057 -0.9599,-0.057 -2.7634,-0.4535 -1.8035,-0.3967 -4.482,-1.0264 -8.0228,-1.8146 -7.0816,-1.5765 -17.626,-3.7705 -31.508,-5.8711 -13.313,-2.0141 -29.695,-3.934 -48.951,-5.077 -14.725,-0.8734 -31.128,-1.3264 -49.06,-0.9089 -17.932,0.4175 -37.394,1.7051 -58.148,4.4144 -15.717,2.0566 -32.214,4.8957 -49.148,9.0818 -16.934,4.186 -34.306,9.7173 -51.614,17.358 -13.996,6.1763 -27.918,13.75 -40.847,23.418 -11.457,8.5704 -22.148,18.813 -30.797,30.944 -14.308,20.048 -27.787,41.941 -39.375,65.656 -11.588,23.714 -21.285,49.25 -27.757,76.492 -5.1747,21.743 -8.2878,44.518 -8.746,67.832 -0.4206,21.313 1.381,43.084 5.585,64.781 3.9192,20.256 9.9577,40.42 17.98,60.156 8.0222,19.735 18.028,39.042 29.816,57.539 11.367,17.835 24.367,34.941 38.8,51.154 14.433,16.213 30.299,31.532 47.349,45.789 33.143,27.706 70.814,51.451 111.73,69.97 38.916,17.609 80.802,30.531 124.3,36.784 30.108,4.3218 61.03,5.4398 91.726,2.3721 10.803,-1.0795 21.515,-2.672 32.091,-4.8026 19.894,-4.0023 39.282,-9.9031 57.699,-17.736 18.76,-7.977 36.522,-17.964 52.825,-29.72 16.913,-12.212 33.731,-24.306 49.708,-36.991 15.977,-12.685 31.112,-25.961 44.733,-40.467 8.0815,-8.6423 15.542,-17.61 20.594,-27.606 1.9221,-3.7905 3.4846,-7.6807 4.4281,-11.636 0.8378,-3.4966 1.2237,-7.067 1.0374,-10.557 v -10e-5 c -0.1692,-3.4062 -0.8847,-6.8146 -2.0303,-10.085 -1.231,-3.5289 -3.002,-6.9331 -5.0818,-10.201 v -10e-5 c -5.109,-8.0542 -12.034,-15.056 -19.355,-21.745 -9.6629,-8.7861 -20.068,-16.752 -30.567,-24.575 -13.323,-9.9197 -26.785,-19.475 -40.073,-29.071 -1.4035,-0.9313 -2.7173,-2.3987 -3.6866,-4.4078 v -2e-4 c -0.7706,-1.8962 -0.9557,-3.7964 -0.6306,-5.5305 l 10e-5,-10e-5 c 0.3711,-1.9196 1.0428,-3.5161 1.8229,-4.7838 0,-10e-5 0,-10e-5 1e-4,-10e-5 0.9438,-1.6038 2.0032,-2.9914 3.0723,-4.2087 l 1e-4,-10e-5 c 2.6885,-3.0795 5.6299,-5.6802 8.5133,-8.0579 0,0 0,-10e-5 10e-5,-10e-5 3.3585,-2.7864 6.776,-5.383 10.145,-7.9214 h 1e-4 c 3.3203,-2.5038 6.6021,-4.94 9.7461,-7.4378 2.6043,-2.0841 5.0585,-4.0683 7.0615,-6.2339 h 1e-4 c 0.7198,-0.7952 1.3222,-1.4778 1.682,-2.1115 0.1993,-0.5176 0.3708,-0.6382 0.2407,-0.3403 0.028,0.5903 0.1641,0.9737 0.5066,1.3589 0.2557,0.068 -0.09,0.049 -0.7537,-0.2749 -11.704,-3.6604 -23.327,-7.8074 -34.339,-13.311 -6.9562,-3.4293 -13.97,-7.5924 -19.779,-13.495 -2.0162,-2.0535 -3.8622,-4.4332 -5.3137,-7.1684 -1.2126,-2.295 -2.0517,-4.8415 -2.3911,-7.5339 -0.297,-2.5296 -0.1277,-5.0441 0.436,-7.4278 v -10e-5 c 0.5926,-2.482 1.5275,-4.7746 2.6614,-6.8569 h 10e-5 c 2.5901,-4.7351 5.9743,-8.6885 9.4464,-12.163 3.9142,-3.9558 8.0463,-7.5016 12.126,-10.905 4.0495,-3.3851 8.0698,-6.6215 11.841,-9.9703 3.2124,-2.8823 6.2242,-5.6628 8.4357,-8.7659 0.4477,-0.4257 0.5888,-1.4718 0.7309,-2.7227 0.1055,-1.6629 -0.2149,-3.5261 -0.635,-5.5386 -1.105,-5.0909 -3.107,-10.164 -5.0582,-15.444 0,-10e-5 -1e-4,-10e-5 -1e-4,-10e-5 -1.9663,-5.2448 -4.0693,-10.689 -5.3857,-16.548 v -10e-5 c -0.5435,-2.3457 -0.9253,-4.9341 -0.8266,-7.7132 0.021,-2.2722 0.6855,-4.8161 2.2901,-7.2189 2.3069,-3.0509 5.2288,-5.1059 8.0962,-6.4896 h 1e-4 c 3.6215,-1.824 7.3485,-3.0329 10.972,-3.9634 8.9026,-2.3079 17.806,-3.3814 26.436,-4.3358 8.4874,-0.9513 16.778,-1.6228 24.758,-2.9284 2.9955,-0.5005 5.8324,-1.0177 8.3868,-1.9034 0.9325,-0.3302 1.749,-0.6458 2.3856,-1.0347 0.4689,-0.3299 0.787,-0.5031 0.791,-0.599 0.3214,-0.3364 0.4565,-1.0352 0.4662,-1.7583 0.016,-1.0126 -0.3987,-2.2294 -0.9119,-3.6125 -1.3922,-3.559 -3.696,-7.0129 -5.9349,-10.79 -2.307,-3.7922 -4.7226,-7.9199 -6.1949,-12.698 -0.6529,-2.0895 -1.024,-4.4335 -0.856,-6.9276 0.203,-2.4856 1.0763,-4.8712 2.5362,-6.9059 v -10e-5 c 1.6821,-2.0655 3.5681,-3.1757 5.1108,-3.7222 h 10e-5 c 2.3046,-1.0024 4.6022,-1.6556 6.7915,-2.1645 5.6197,-1.3269 11.22,-2.0206 16.682,-2.5268 5.123,-0.4813 10.23,-0.7869 15.308,-0.8894 1.6027,-0.034 3.2541,-0.053 4.9497,0.011 h 10e-5 c 0.424,0.011 0.9634,0.038 1.6118,0.1208 0.357,0.8708 0.9787,1.8317 1.8566,2.9059 0.025,0.02 0.051,0.041 0.069,0.071 0.01,0.017 0.012,0.041 0.01,0.059 -1.1809,2.9232 -2.7259,5.7972 -4.7753,8.2816 -1.8111,1.276 -4.0206,2.146 -6.4632,2.359 -2.3672,0.1294 -4.5774,-0.3721 -6.473,-1.2704 -2.2362,-1.0488 -4.1221,-2.4337 -5.7274,-3.8983 -4.3515,-3.9388 -7.649,-8.5263 -10.593,-12.975 -3.9118,-5.8586 -7.3631,-11.822 -10.706,-17.664 -3.8356,-6.6987 -7.5259,-13.298 -11.294,-19.672 -3.8869,-6.5711 -7.8324,-12.909 -12.083,-18.826 -3.9909,-5.5428 -8.184,-10.719 -12.928,-15.048 -4.1627,-3.7634 -8.6716,-6.9326 -13.562,-8.4487 -19.708,-6.2641 -38.716,-10.674 -56.629,-13.778 -9.5963,-1.6632 -18.884,-2.9586 -27.821,-4.039 -8.9365,-1.0804 -17.521,-1.9453 -25.721,-2.7018 -18.286,-1.8472 -34.656,-3.3173 -48.916,-4.7554 -14.26,-1.4381 -26.412,-2.826 -36.326,-4.1181 -9.9141,-1.2921 -17.592,-2.4725 -22.93,-3.3626 -5.3378,-0.8902 -8.3371,-1.4791 -8.8908,-1.6594 v -0.031 l 0.01,-0.031 c 0.5822,0 3.6081,0.4128 8.9651,1.0891 5.357,0.6763 13.046,1.6083 22.969,2.5914 9.9229,0.9831 22.081,2.0012 36.367,2.9896 14.286,0.9884 30.702,1.9289 49.097,3.1552 8.238,0.6208 16.876,1.3542 25.887,2.3087 9.0115,0.9545 18.397,2.1297 28.12,3.6802 18.154,2.896 37.451,7.1273 57.502,13.256 5.9758,1.8708 11.256,5.3976 15.802,9.5179 5.2078,4.6803 9.7381,10.124 13.907,15.826 4.4637,6.092 8.5751,12.548 12.568,19.164 3.8795,6.4242 7.6473,13.018 11.52,19.644 3.3871,5.7914 6.8125,11.602 10.617,17.186 2.941,4.2794 5.9152,8.4265 9.5845,11.621 1.3374,1.1524 2.6649,2.1535 4.0398,2.744 1.1014,0.4623 2.2035,0.75 3.1377,0.6367 0.959,-0.037 2.0213,-0.5209 3.0341,-1.1931 1.6725,-0.083 3.1711,-0.6788 4.6519,-1.4534 0.01,0 0.01,-0.015 6e-4,-0.019 -0.015,-0.01 -0.037,0 -0.059,0 0.6832,1.0024 1.0967,1.9369 1.2479,2.7798 -0.189,-0.03 -0.4966,-0.034 -0.9183,-0.052 h -10e-5 c -1.4571,-0.046 -2.9701,-0.014 -4.5376,0.028 -4.8902,0.136 -9.8218,0.4693 -14.783,0.9718 -5.3173,0.5455 -10.587,1.2249 -15.673,2.4784 -1.9939,0.4996 -3.8721,1.0272 -5.525,1.7832 -1.1676,0.6579 -2.062,0.9786 -2.1202,1.3305 v 10e-5 c -0.6538,0.9016 -1.0571,2.0493 -1.1368,3.1895 -0.124,1.2505 0.1635,2.6852 0.6012,4.2108 1.0605,3.6184 3.2475,7.1536 5.523,10.964 2.1833,3.5602 4.684,7.3437 6.5433,11.817 0.7547,1.7492 1.3647,3.8261 1.4955,6.2057 v 10e-5 c 0.1077,2.1822 -0.4931,4.457 -1.8763,6.4886 -0.9965,1.294 -2.0813,2.1776 -3.0882,2.7238 -1.302,0.7621 -2.589,1.304 -3.7939,1.7109 -3.2561,1.1185 -6.51,1.7619 -9.6242,2.277 -8.3817,1.4145 -16.807,2.1562 -25.128,3.1341 -8.577,1.0206 -17.108,2.0762 -25.283,4.272 -3.3229,0.9014 -6.5059,1.9244 -9.3289,3.3986 h -1e-4 c -2.1885,1.2038 -4.1379,2.4473 -5.1688,4.0333 -0.4594,0.4645 -0.5996,1.5332 -0.7314,2.8035 -0.094,1.6724 0.2368,3.5404 0.6711,5.5625 1.1232,5.038 3.1425,10.098 5.1421,15.425 v 10e-5 c 1.9717,5.178 4.1084,10.604 5.4696,16.529 0.5536,2.3364 0.9504,4.9291 0.8629,7.7371 -0.01,2.2794 -0.6673,4.8482 -2.2907,7.2998 -2.8765,3.9652 -6.2904,7.2244 -9.6296,10.184 -3.9596,3.5444 -8.031,6.8568 -11.987,10.192 -4.0037,3.3822 -7.9207,6.7618 -11.473,10.399 -3.146,3.2553 -6.0288,6.5648 -7.9346,10.212 v 10e-5 c -0.8232,1.5669 -1.4792,3.1453 -1.8253,4.7105 v 10e-5 c -0.3304,1.4713 -0.4367,2.971 -0.2501,4.3815 0.1761,1.5079 0.7098,3.0447 1.4724,4.5082 0.926,1.789 2.283,3.4765 3.8481,5.0977 4.6295,4.8092 10.852,8.3547 17.434,11.674 10.368,5.1553 21.555,9.0775 33.053,12.649 1.2882,0.2846 2.9093,1.0855 4.5865,2.6276 1.3597,1.4401 2.071,3.2911 2.0322,5.3467 -0.21,2.0593 -0.8056,3.6011 -1.5133,4.5979 -0.8924,1.4566 -1.8734,2.6503 -2.8165,3.6417 0,0 -10e-5,0 -10e-5,10e-5 -2.5756,2.7535 -5.3545,5.0545 -8.0294,7.1775 -3.2907,2.6301 -6.6257,5.1252 -9.903,7.6122 0,0 0,10e-5 -10e-5,10e-5 -3.3421,2.5385 -6.6395,5.0573 -9.7819,7.6858 h -10e-5 c -2.7277,2.2959 -5.3039,4.5547 -7.4124,7.0256 -0.824,0.9732 -1.5436,1.8915 -2.0521,2.7984 v 10e-5 c -0.3841,0.745 -0.6803,1.3106 -0.6963,1.6871 0,0.2097 -0.03,0.3565 -0.01,0.2684 -0.079,0.026 0.2089,0.2169 0.6102,0.5848 13.278,9.527 26.802,19.069 40.268,29.038 10.599,7.8413 21.26,15.973 31.346,25.084 7.6498,6.877 15.132,14.499 21.039,23.627 0,10e-5 0,10e-5 10e-5,10e-5 2.42,3.7514 4.5234,7.8139 6.0787,12.18 1.4471,4.0754 2.3501,8.3834 2.5908,12.785 v 1e-4 c 0.2336,4.5091 -0.2283,9.0025 -1.2676,13.324 -1.1714,4.8538 -2.9875,9.4589 -5.1893,13.777 -5.7497,11.243 -13.723,20.983 -22.124,29.894 -14.049,14.962 -29.514,28.585 -45.713,41.5 -16.199,12.915 -33.13,25.122 -50.041,37.32 -16.903,12.209 -35.301,22.573 -54.731,30.846 -19.072,8.1184 -39.105,14.228 -59.632,18.358 -10.912,2.1924 -21.95,3.8324 -33.069,4.945 -31.596,3.1614 -63.324,2.0179 -94.144,-2.4419 -44.52,-6.4343 -87.289,-19.662 -126.95,-37.682 -41.702,-18.939 -80.077,-43.227 -113.84,-71.568 -17.373,-14.581 -33.539,-30.268 -48.247,-46.882 -14.708,-16.615 -27.96,-34.159 -39.555,-52.46 -12.032,-18.991 -22.226,-38.828 -30.385,-59.12 -8.1585,-20.292 -14.282,-41.037 -18.24,-61.892 -4.233,-22.335 -5.9857,-44.722 -5.4516,-66.629 0.5861,-23.963 3.8958,-47.311 9.3194,-69.56 6.8056,-27.87 16.854,-53.893 28.8,-77.978 11.946,-24.085 25.792,-46.233 40.464,-66.444 9.2731,-12.768 20.55,-23.427 32.557,-32.237 13.532,-9.9323 27.948,-17.625 42.35,-23.813 17.792,-7.6432 35.549,-13.113 52.793,-17.191 17.244,-4.0783 33.976,-6.7639 49.874,-8.638 20.997,-2.4815 40.651,-3.5168 58.732,-3.6673 18.08,-0.1504 34.589,0.5843 49.385,1.7473 19.352,1.5201 35.792,3.8335 49.114,6.2447 13.889,2.5131 24.404,5.1305 31.409,7.1267 3.5028,0.9982 6.1328,1.8375 7.8814,2.4439 1.7485,0.6064 2.6162,0.9788 2.5852,1.0845 z" />
      <path
         id="path8891"
         style="fill:#000000;fill-rule:evenodd"
         inkscape:connector-curvature="0"
         transform="translate(0,52.362)"
         d="m 2396,1212 c -0.4998,0.2423 -2.1854,-1.9963 -4.8307,-6.3615 -2.6453,-4.3653 -6.2504,-10.858 -10.531,-19.147 -4.2808,-8.2895 -9.2374,-18.377 -14.528,-29.948 -5.2901,-11.572 -10.912,-24.629 -16.478,-38.86 -3.654,-9.3394 -7.3378,-19.228 -10.544,-29.702 -0.9311,-3.0352 -1.8428,-6.1852 -2.5907,-9.4805 -0.2438,-1.0677 -0.4767,-2.2087 -0.6572,-3.4285 -0.1271,-0.7153 -0.228,-1.6964 -0.198,-2.9399 -0.016,-0.3599 0.076,-0.9809 0.3085,-1.8516 -0.034,-0.592 0.6591,-1.5855 2.111,-2.9281 0.043,-0.023 0.087,-0.045 0.1301,-0.067 1.8417,-0.9313 3.3568,-1.137 4.5044,-0.6399 1.242,0.4973 1.9676,0.9248 2.1896,1.2348 1.0573,0.9827 1.6929,1.8006 2.0072,2.343 0.7053,1.0337 1.2937,2.0323 1.8105,2.9645 1.7321,3.1058 3.2017,6.2113 4.5758,9.2225 2.1972,4.8027 4.2082,9.5704 6.1162,14.251 6.5495,16.065 12.019,31.349 16.743,45.143 7.0841,20.684 12.419,38.112 15.829,50.418 3.4095,12.306 4.8908,19.491 4.0331,19.777 -0.8577,0.2859 -3.9489,-6.3631 -8.7379,-18.178 -4.7889,-11.815 -11.273,-28.796 -19.149,-49.088 -5.2572,-13.543 -11.083,-28.559 -17.76,-44.314 -1.9458,-4.5903 -3.9546,-9.2228 -6.106,-13.841 -1.369,-2.9312 -2.7353,-5.8006 -4.2605,-8.5051 -0.4642,-0.8174 -0.8931,-1.5564 -1.3304,-2.1832 -0.3636,-0.4428 -0.4244,-0.6206 -0.2778,-0.4183 -0.024,0.1 0.4364,0.326 1.369,0.7278 0.951,0.4364 2.2407,0.2348 3.9109,-0.584 0.039,-0.019 0.079,-0.039 0.1181,-0.059 1.2464,-1.1994 1.8297,-1.9485 1.721,-2.3015 0.1136,-0.4899 0.1687,-0.7094 0.1343,-0.6711 -0.031,0.092 0.038,0.445 0.1028,1.0491 0.118,0.8355 0.3025,1.7257 0.5118,2.6742 0.6479,2.9144 1.4844,5.8379 2.3641,8.7932 3.0255,10.142 6.5009,19.878 9.9195,29.21 5.2018,14.194 10.331,27.313 15.028,39.038 4.6972,11.724 8.9602,22.054 12.47,30.655 3.5101,8.6007 6.2669,15.472 8.0071,20.26 1.7403,4.7879 2.464,7.4927 1.9642,7.735 z" />
      <path
         id="path8895"
         style="fill:#000000;fill-rule:evenodd"
         inkscape:connector-curvature="0"
         transform="translate(0,52.362)"
         d="m 2340,1192 c 0.5135,-0.024 1.0024,0.8305 1.7551,2.2215 0.3763,0.6955 0.8281,1.5273 1.4017,2.464 0.5735,0.9366 1.2711,1.9788 2.1007,3.0956 1.7488,2.3254 4.1731,4.8946 7.3101,7.4915 2.7332,2.2536 5.961,4.4703 9.6624,6.4388 3.7013,1.9686 7.8761,3.6888 12.379,4.9815 2.565,0.7244 5.2437,1.2956 7.9937,1.6736 6.758,0.9289 13.306,0.5772 19.066,-0.7834 4.6302,-1.0439 8.771,-2.7632 12.367,-4.6342 3.5958,-1.871 6.6475,-3.8923 9.1604,-5.6574 2.5129,-1.7652 4.4916,-3.2757 5.9598,-4.2392 1.4682,-0.9636 2.4336,-1.3811 2.8446,-1.0523 0.411,0.3288 0.238,1.3846 -0.557,3.0338 -0.7949,1.6492 -2.2186,3.8936 -4.3963,6.4437 -2.1777,2.5501 -5.1168,5.4066 -8.9203,8.1015 -3.8036,2.6949 -8.4774,5.2246 -14.003,6.9638 -6.868,2.0999 -14.805,2.8431 -22.879,1.7418 -3.2853,-0.4481 -6.4661,-1.1775 -9.4825,-2.1327 -5.2387,-1.6388 -10.03,-3.9297 -14.166,-6.582 -4.1361,-2.6524 -7.6169,-5.6626 -10.399,-8.7011 -1.6097,-1.7512 -2.9915,-3.5451 -4.1249,-5.3038 -1.1335,-1.7587 -2.0193,-3.4818 -2.6794,-5.0947 -0.6428,-1.5461 -1.0605,-3.0176 -1.295,-4.3206 -0.2345,-1.3029 -0.2881,-2.4378 -0.232,-3.3543 0.056,-0.9166 0.2197,-1.6155 0.4253,-2.082 0.2056,-0.4665 0.4516,-0.7013 0.7083,-0.7134 z" />
      <path
         id="path8899"
         style="fill:#000000;fill-rule:evenodd"
         inkscape:connector-curvature="0"
         d="m 2048,1592.4 c 0.4552,-0.057 1.1725,2.4035 2.3371,6.9811 1.1647,4.5776 2.7953,11.275 5.3649,19.615 2.5696,8.3395 6.0943,18.325 11.072,29.345 4.9777,11.02 11.419,23.076 19.645,35.386 8.1637,12.224 18.044,24.708 29.596,36.903 11.552,12.195 24.774,24.1 39.281,35.27 0.4772,0.3672 0.9558,0.7336 1.4357,1.0992 14.683,11.186 29.727,20.935 44.515,29.371 14.788,8.4355 29.315,15.56 43.004,21.571 13.794,6.0543 26.745,10.983 38.37,14.981 11.626,3.9986 21.927,7.0729 30.464,9.4746 8.5377,2.4018 15.313,4.1383 19.926,5.4231 4.6132,1.2848 7.0647,2.1263 6.9889,2.5812 -0.076,0.4549 -2.6758,0.4945 -7.4735,0.038 -4.7978,-0.4565 -11.794,-1.4175 -20.606,-3.1215 -8.812,-1.7041 -19.44,-4.1587 -31.439,-7.6415 -11.998,-3.4828 -25.366,-7.9994 -39.593,-13.768 -14.122,-5.7229 -29.115,-12.692 -44.366,-21.127 -15.251,-8.4344 -30.758,-18.337 -45.85,-29.827 -0.4933,-0.3756 -0.9852,-0.7521 -1.4756,-1.1295 -14.922,-11.476 -28.469,-23.86 -40.22,-36.625 -11.751,-12.765 -21.704,-25.908 -29.795,-38.787 -8.1623,-12.998 -14.344,-25.724 -18.911,-37.328 -4.5662,-11.604 -7.5286,-22.086 -9.435,-30.811 -1.9064,-8.7255 -2.7734,-15.698 -3.1155,-20.469 -0.342,-4.7714 -0.1771,-7.3456 0.2781,-7.4026 z" />
      <path
         id="path8903"
         style="fill:#000000;fill-rule:evenodd"
         inkscape:connector-curvature="0"
         transform="translate(0,52.362)"
         d="m 2696,1284 c 0.1732,-0.1085 0.7273,0.351 1.5564,1.4505 0.4145,0.5497 0.8949,1.2622 1.3844,2.1675 0.4895,0.9053 0.9902,2.0032 1.3834,3.3419 0.5241,1.7839 0.8045,4.0497 0.091,6.5705 -0.5906,1.9584 -1.7782,3.8801 -3.4494,5.4739 -1.7056,1.6371 -3.8164,3.0206 -6.1199,4.1579 -2.5336,1.2594 -5.3409,2.3485 -8.3716,3.2778 -3.0306,0.9292 -6.2852,1.6972 -9.6632,2.4001 -6.9976,1.4759 -14.784,2.6453 -23.165,3.7952 -7.8474,1.0785 -16.254,2.1304 -25.082,3.4929 -7.648,1.183 -15.605,2.5564 -23.638,4.6813 -6.434,1.722 -12.892,3.7856 -18.633,7.1475 -2.3194,1.3562 -4.4928,2.8801 -6.314,4.6757 -1.6281,1.6056 -3.0235,3.4126 -3.9618,5.3756 -0.7683,1.4951 -0.9326,3.4473 -0.545,5.2525 0.4135,2.1758 1.6958,4.4238 3.2461,6.7836 3.8137,5.6638 9.2939,10.678 14.955,16.219 2.7563,2.6719 5.6004,5.4322 8.3738,8.4354 2.3523,2.5222 4.7374,5.3466 6.7672,8.6933 1.6605,2.5594 2.9888,5.9008 3.128,9.9058 0,1.8515 -0.3812,3.6919 -1.1321,5.4215 -0.8636,1.9025 -2.018,3.498 -3.3194,4.771 -9.8747,9.9236 -18.194,21.942 -24.416,35.265 -0.2139,0.4581 -0.425,0.917 -0.6334,1.3768 -6.213,13.704 -10.016,28.193 -11.949,42.538 -2.0555,15.326 -2.0628,30.487 -0.4047,44.873 1.6581,14.386 4.9805,27.996 9.5121,40.433 2.3222,6.3557 4.9611,12.401 7.912,18.034 2.9509,5.633 6.2137,10.854 9.7587,15.606 3.5446,4.7312 7.355,9.0109 11.364,12.666 4.0093,3.6547 8.2175,6.6852 12.548,9.0286 4.8839,2.6598 9.9534,4.3864 14.828,5.3198 4.8751,0.9333 9.5583,1.075 13.845,0.6327 6.2416,-0.6284 11.669,-2.336 16.155,-4.1518 2.9644,-1.1999 5.5292,-2.4621 7.7256,-3.6254 2.1965,-1.1633 4.0246,-2.229 5.5054,-3.0961 2.9614,-1.7342 4.5518,-2.6486 4.7592,-2.3893 0.2074,0.2593 -0.9741,1.6817 -3.6284,3.9686 -1.3272,1.1434 -3.028,2.4964 -5.1435,3.9636 -2.1154,1.4672 -4.6457,3.05 -7.6505,4.5919 -2.2767,1.1682 -4.8298,2.3059 -7.6706,3.3022 -2.8407,0.9963 -5.9695,1.8517 -9.3826,2.416 -4.7303,0.7701 -9.9567,0.9075 -15.456,0.1429 -5.4995,-0.7646 -11.274,-2.4329 -16.916,-5.2194 -4.9235,-2.4448 -9.72,-5.6215 -14.267,-9.4644 -4.5472,-3.843 -8.8449,-8.3531 -12.776,-13.353 -3.9448,-4.9979 -7.5874,-10.488 -10.879,-16.402 -3.2919,-5.9139 -6.2329,-12.251 -8.7992,-18.9 -5.0233,-12.98 -8.76,-27.24 -10.701,-42.362 -1.9414,-15.122 -2.0856,-31.103 -0.01,-47.296 1.9394,-15.203 5.9562,-30.651 12.612,-45.381 0.2238,-0.4951 0.4507,-0.9892 0.6806,-1.4824 6.6886,-14.345 15.724,-27.291 26.499,-38.016 0.597,-0.6254 1.0738,-1.2133 1.2862,-1.7564 0.2054,-0.4444 0.3165,-0.9725 0.3218,-1.4856 0.155,-1.2724 -0.6945,-2.9579 -1.7012,-4.89 -1.4115,-2.4483 -3.3834,-4.7661 -5.515,-7.1496 -2.5008,-2.7674 -5.1988,-5.4333 -7.9252,-8.1405 -5.5242,-5.4326 -11.372,-11.048 -15.951,-17.876 -1.9567,-2.8601 -3.6542,-6.2377 -4.4888,-10.106 -0.7559,-3.7328 -0.2686,-7.6423 1.4465,-11.114 1.5441,-3.0016 3.587,-5.5909 5.8973,-7.7455 2.5492,-2.3772 5.3342,-4.2762 8.1599,-5.8234 6.911,-3.7783 14.088,-5.9424 20.905,-7.533 8.547,-2.0197 16.799,-3.2096 24.599,-4.1548 9.0218,-1.0968 17.493,-1.8456 25.345,-2.5946 8.4057,-0.8042 16.077,-1.5799 22.945,-2.6393 3.3469,-0.5267 6.4861,-1.0659 9.3703,-1.7407 2.8843,-0.6749 5.5143,-1.4839 7.8808,-2.4585 2.1247,-0.8814 3.9774,-1.8535 5.4303,-3.0388 1.3754,-1.1288 2.415,-2.4147 2.9545,-3.7445 0.7292,-1.6787 0.7318,-3.5096 0.5346,-5.0563 -0.1542,-1.1886 -0.4342,-2.2357 -0.7159,-3.1406 -0.2817,-0.9049 -0.5671,-1.6676 -0.7947,-2.2889 -0.4552,-1.2427 -0.6676,-1.9243 -0.4944,-2.0328 z" />
    </g>
  </g>
</svg>
