<?xml version="1.0" encoding="UTF-8" standalone="no"?>
<!-- Generator: Adobe Illustrator 21.1.0, SVG Export Plug-In . SVG Version: 6.00 Build 0)  -->

<svg
   version="1.1"
   id="Icons"
   x="0px"
   y="0px"
   viewBox="0 0 48 48"
   style="enable-background:new 0 0 48 48;"
   xml:space="preserve"
   sodipodi:docname="emoj23.svg"
   inkscape:version="1.4.2 (f4327f4, 2025-05-13)"
   xmlns:inkscape="http://www.inkscape.org/namespaces/inkscape"
   xmlns:sodipodi="http://sodipodi.sourceforge.net/DTD/sodipodi-0.dtd"
   xmlns="http://www.w3.org/2000/svg"
   xmlns:svg="http://www.w3.org/2000/svg"><defs
   id="defs7" /><sodipodi:namedview
   id="namedview7"
   pagecolor="#ffffff"
   bordercolor="#000000"
   borderopacity="0.25"
   inkscape:showpageshadow="2"
   inkscape:pageopacity="0.0"
   inkscape:pagecheckerboard="0"
   inkscape:deskcolor="#d1d1d1"
   inkscape:zoom="37.8125"
   inkscape:cx="24.013223"
   inkscape:cy="24"
   inkscape:window-width="3840"
   inkscape:window-height="2054"
   inkscape:window-x="-11"
   inkscape:window-y="-11"
   inkscape:window-maximized="1"
   inkscape:current-layer="Icons" />
<style
   type="text/css"
   id="style1">
	.st0{fill:#724F3D;}
	.st1{fill:#A86C4D;}
	.st2{fill:none;stroke:#45413C;stroke-linecap:round;stroke-linejoin:round;stroke-miterlimit:10;}
	.st3{fill:#FF87AF;}
	.st4{fill:#FF6196;}
	.st5{fill:#FFE500;stroke:#45413C;stroke-linecap:round;stroke-linejoin:round;stroke-miterlimit:10;}
	.st6{fill:#45413C;stroke:#45413C;stroke-linecap:round;stroke-linejoin:round;stroke-miterlimit:10;}
	.st7{fill:#FF6242;}
	.st8{fill:#FFA694;}
	.st9{fill:#FFAA54;}
	.st10{fill:#00B8F0;}
	.st11{fill:#009FD9;}
	.st12{fill:#FFE500;}
	.st13{fill:#EBCB00;}
	.st14{fill:#9CEB60;}
	.st15{fill:#6DD627;}
	.st16{fill:#724F3D;stroke:#45413C;stroke-linecap:round;stroke-linejoin:round;stroke-miterlimit:10;}
	.st17{fill:#BF8DF2;}
	.st18{fill:#9F5AE5;}
	.st19{fill:#00DFEB;}
	.st20{fill:#00C9D4;}
	.st21{fill:#FF866E;}
	.st22{fill:#00F5BC;}
	.st23{fill:#00DBA8;}
	.st24{fill:#FF8A14;}
	.st25{fill:#DE926A;}
	.st26{fill:#FFCEBF;stroke:#45413C;stroke-linecap:round;stroke-linejoin:round;stroke-miterlimit:10;}
	.st27{fill:#FFB59E;}
	.st28{fill:#FFCEBF;}
	.st29{fill:#A86C4D;stroke:#45413C;stroke-linecap:round;stroke-linejoin:round;stroke-miterlimit:10;}
	.st30{fill:#ADC4D9;stroke:#45413C;stroke-linecap:round;stroke-linejoin:round;stroke-miterlimit:10;}
	.st31{fill:#FFF48C;}
	.st32{fill:#C0DCEB;stroke:#45413C;stroke-linecap:round;stroke-linejoin:round;stroke-miterlimit:10;}
	.st33{fill:#4ACFFF;}
	.st34{fill:#45413C;}
	.st35{fill:#FFDCD1;}
	.st36{opacity:0.15;fill:#45413C;}
	.st37{fill:#FFB59E;stroke:#45413C;stroke-linecap:round;stroke-linejoin:round;stroke-miterlimit:10;}
	.st38{fill:#00DFEB;stroke:#45413C;stroke-linecap:round;stroke-linejoin:round;stroke-miterlimit:10;}
	.st39{fill:#F0F0F0;stroke:#45413C;stroke-linecap:round;stroke-linejoin:round;stroke-miterlimit:10;}
	.st40{fill:#E0366F;}
	.st41{fill:#FFE8E0;}
	.st42{fill:#EBCB00;stroke:#45413C;stroke-linecap:round;stroke-linejoin:round;stroke-miterlimit:10;}
	.st43{fill:#FFDA8F;}
	.st44{fill:#FFBE3D;}
	.st45{fill:#FFE9BD;}
	.st46{fill:#FFFFFF;}
	.st47{fill:#E0E0E0;}
	.st48{fill:#656769;}
	.st49{fill:#525252;}
	.st50{fill:#87898C;}
	.st51{fill:#656769;stroke:#45413C;stroke-linecap:round;stroke-linejoin:round;stroke-miterlimit:10;}
	.st52{fill:#B89558;}
	.st53{fill:#947746;}
	.st54{fill:#525252;stroke:#45413C;stroke-linecap:round;stroke-linejoin:round;stroke-miterlimit:10;}
	.st55{fill:#FFFFFF;stroke:#45413C;stroke-linecap:round;stroke-linejoin:round;stroke-miterlimit:10;}
	.st56{fill:#A6FBFF;stroke:#45413C;stroke-linecap:round;stroke-linejoin:round;stroke-miterlimit:10;}
</style>
<g
   id="g7"
   transform="matrix(1.1805288,0,0,1.0969782,-2.9208524,-4.5716516)">
	<path
   class="st28"
   d="m 27.2,5.8 c -1,-1.1 -2.7,-1.1 -3.9,-0.1 -1.2,1.1 -1.3,3 -0.2,4.1 2.9,2.9 5,6.5 6.3,10.4 -1.6,-1.6 -3.7,-2.7 -6.1,-3 -3.5,-0.5 -7.3,0.4 -9.6,2.5 -1.6,1.4 -1.1,4.1 0.9,4.8 1.1,0.4 2.3,0.2 3.1,-0.5 1.2,-1 3.3,-1.2 5,-0.9 2.3,0.5 4.1,2.5 4.1,5.1 0,3.3 -3,5.8 -6.4,5.1 C 18.3,32.9 16,30.8 15.8,28.3 15.7,26.9 14.9,25.8 13.4,25.4 11.8,25 10,26.2 10,28 c 0,0 0,0 0,0 0,7.1 5.8,15.5 14.9,14.2 7.7,-1.1 10.2,-3.2 11.3,-12.9 0.6,-7.1 -2.4,-16.6 -9,-23.5 z"
   id="path1" />
	<g
   id="g2">
		<path
   class="st35"
   d="m 23.4,9.2 c 1.1,-1 2.8,-0.9 3.9,0.1 5.3,5.4 8.3,12.6 9,18.9 0.2,-7 -2.8,-15.9 -9.1,-22.4 -1,-1.1 -2.7,-1.1 -3.9,-0.1 -1.2,1 -1.3,2.8 -0.3,4 0.1,-0.2 0.3,-0.4 0.4,-0.5 z"
   id="path2" />
	</g>
	<ellipse
   id="XMLID_10247_"
   class="st36"
   cx="24"
   cy="45.5"
   rx="11.5"
   ry="1.5" />
	<path
   class="st28"
   d="m 23.4,17.2 c 2.3,0.3 4.4,1.4 6,3 -1.1,-3.5 -2.9,-6.6 -5.3,-9.3 -0.9,-1 -2.5,-1 -3.4,0.1 v 0 c -0.6,0.8 -0.6,2 0.1,2.7 1,1.1 1.9,2.3 2.6,3.5 z"
   id="path3" />
	<path
   class="st27"
   d="m 20.6,11.3 c 0.8,-0.2 1.6,0 2.2,0.7 1.7,1.9 3.1,4 4.1,6.3 0.9,0.5 1.8,1.1 2.6,1.9 -1.1,-3.5 -2.9,-6.6 -5.3,-9.3 -0.9,-1 -2.5,-1 -3.4,0.1 v 0 c -0.1,0.1 -0.2,0.2 -0.2,0.3 z"
   id="path4" />
	<path
   class="st2"
   d="m 23.4,17.2 c 2.3,0.3 4.4,1.4 6,3 -1.1,-3.5 -2.9,-6.6 -5.3,-9.3 -0.9,-1 -2.5,-1 -3.4,0.1 v 0 c -0.6,0.8 -0.6,2 0.1,2.7 1,1.1 1.9,2.3 2.6,3.5 z"
   id="path5" />
	<g
   id="XMLID_10246_">
		<path
   class="st35"
   d="m 23.4,20.8 c 2.3,0.3 7.3,2.4 8.9,3.9 -0.6,-1.7 -1.6,-3.3 -2.9,-4.5 -1.6,-1.6 -3.7,-2.7 -6.1,-3 -3.5,-0.5 -7.3,0.4 -9.6,2.5 -1.2,1.1 -1.2,2.8 -0.4,3.9 2.4,-2.4 6.4,-3.4 10.1,-2.8 z"
   id="path6" />
	</g>
	<path
   id="XMLID_10245_"
   class="st2"
   d="m 29.4,20.2 c 2.1,2 3.4,4.9 3.4,8" />
	<path
   class="st2"
   d="m 27.2,5.8 c -1,-1.1 -2.7,-1.1 -3.9,-0.1 -1.2,1.1 -1.3,3 -0.2,4.1 2.9,2.9 5,6.5 6.3,10.4 -1.6,-1.6 -3.7,-2.7 -6.1,-3 -3.5,-0.5 -7.3,0.4 -9.6,2.5 -1.6,1.4 -1.1,4.1 0.9,4.8 1.1,0.4 2.3,0.2 3.1,-0.5 1.2,-1 3.3,-1.2 5,-0.9 2.3,0.5 4.1,2.5 4.1,5.1 0,3.3 -3,5.8 -6.4,5.1 C 18.3,32.9 16,30.8 15.8,28.3 15.7,26.9 14.9,25.8 13.4,25.4 11.8,25 10,26.2 10,28 c 0,0 0,0 0,0 0,7.1 5.8,15.5 14.9,14.2 7.7,-1.1 10.2,-3.2 11.3,-12.9 0.6,-7.1 -2.4,-16.6 -9,-23.5 z"
   id="path7" />
</g>
</svg>
