<?xml version="1.0" encoding="UTF-8" standalone="no"?>
<!-- Created with Inkscape (http://www.inkscape.org/) -->

<svg
   width="4000"
   height="4000"
   viewBox="0 0 1058.3333 1058.3334"
   version="1.1"
   id="svg1013"
   inkscape:version="1.1.1 (3bf5ae0d25, 2021-09-20)"
   sodipodi:docname="Mint_logo.svg"
   xmlns:inkscape="http://www.inkscape.org/namespaces/inkscape"
   xmlns:sodipodi="http://sodipodi.sourceforge.net/DTD/sodipodi-0.dtd"
   xmlns:xlink="http://www.w3.org/1999/xlink"
   xmlns="http://www.w3.org/2000/svg"
   xmlns:svg="http://www.w3.org/2000/svg">
  <sodipodi:namedview
     id="namedview1015"
     pagecolor="#ffffff"
     bordercolor="#666666"
     borderopacity="1.0"
     inkscape:pageshadow="2"
     inkscape:pageopacity="0.0"
     inkscape:pagecheckerboard="true"
     inkscape:document-units="px"
     showgrid="false"
     units="px"
     width="4000px"
     inkscape:zoom="0.1105"
     inkscape:cx="1995.4751"
     inkscape:cy="2000"
     inkscape:window-width="1366"
     inkscape:window-height="642"
     inkscape:window-x="0"
     inkscape:window-y="45"
     inkscape:window-maximized="1"
     inkscape:current-layer="layer5"
     inkscape:snap-smooth-nodes="false"
     inkscape:object-nodes="false"
     inkscape:snap-bbox="true" />
  <defs
     id="defs1010">
    <inkscape:perspective
       sodipodi:type="inkscape:persp3d"
       inkscape:vp_x="0 : 137.5 : 1"
       inkscape:vp_y="0 : 1000 : 0"
       inkscape:vp_z="365 : 137.5 : 1"
       inkscape:persp3d-origin="182.5 : 91.666667 : 1"
       id="perspective72" />
    <linearGradient
       gradientUnits="userSpaceOnUse"
       id="path1082_2_"
       y2="129.3468"
       x2="112.49853"
       y1="6.1372099"
       x1="112.49854"
       gradientTransform="translate(287,-83)">
      <stop
         id="stop193"
         offset="0"
         style="stop-color:#ffffff;stop-opacity:0" />
      <stop
         id="stop195"
         offset="1"
         style="stop-color:#ffffff;stop-opacity:0.27450982;" />
      <midPointStop
         id="midPointStop197"
         style="stop-color:#FFFFFF"
         offset="0" />
      <midPointStop
         id="midPointStop199"
         style="stop-color:#FFFFFF"
         offset="0.5" />
      <midPointStop
         id="midPointStop201"
         style="stop-color:#000000"
         offset="1" />
    </linearGradient>
    <linearGradient
       id="linearGradient3388">
      <stop
         style="stop-color:#000000;stop-opacity:0;"
         offset="0"
         id="stop3390" />
      <stop
         style="stop-color:#000000;stop-opacity:0.37113401;"
         offset="1"
         id="stop3392" />
    </linearGradient>
    <linearGradient
       inkscape:collect="always"
       id="linearGradient4346">
      <stop
         style="stop-color:#00bdec;stop-opacity:1"
         offset="0"
         id="stop4348" />
      <stop
         style="stop-color:#40bfde;stop-opacity:1"
         offset="1"
         id="stop4350" />
    </linearGradient>
    <linearGradient
       inkscape:collect="always"
       xlink:href="#linearGradient4346"
       id="linearGradient4352"
       x1="400.6142"
       y1="634.15063"
       x2="616.48553"
       y2="666.97791"
       gradientUnits="userSpaceOnUse" />
    <linearGradient
       inkscape:collect="always"
       id="linearGradient5323">
      <stop
         style="stop-color:#6e6e6e;stop-opacity:1"
         offset="0"
         id="stop5325" />
      <stop
         style="stop-color:#4d4d4d;stop-opacity:1"
         offset="1"
         id="stop5327" />
    </linearGradient>
    <linearGradient
       inkscape:collect="always"
       xlink:href="#linearGradient5323"
       id="linearGradient5329"
       x1="291.83591"
       y1="238.08237"
       x2="650.81366"
       y2="348.96875"
       gradientUnits="userSpaceOnUse" />
    <linearGradient
       inkscape:collect="always"
       xlink:href="#linearGradient3388"
       id="linearGradient2231"
       gradientUnits="userSpaceOnUse"
       gradientTransform="matrix(0.6551957,0,0,0.6551957,-113.28394,148.38658)"
       x1="490.72305"
       y1="237.72447"
       x2="490.72305"
       y2="183.9644" />
    <linearGradient
       inkscape:collect="always"
       xlink:href="#path1082_2_"
       id="linearGradient2261"
       gradientUnits="userSpaceOnUse"
       gradientTransform="matrix(-0.6710118,0,0,0.6709741,706.10281,-117.5032)"
       x1="541.33502"
       y1="104.50665"
       x2="606.91248"
       y2="303.14029" />
    <linearGradient
       inkscape:collect="always"
       xlink:href="#path1082_2_"
       id="linearGradient2198"
       gradientUnits="userSpaceOnUse"
       gradientTransform="matrix(-0.6710118,0,0,0.6709741,901.93156,-57.609066)"
       x1="541.33502"
       y1="104.50665"
       x2="606.91248"
       y2="303.14029" />
    <linearGradient
       id="linearGradient2461">
      <stop
         id="stop2463"
         offset="0"
         style="stop-color:#26a7e8;stop-opacity:1;" />
      <stop
         id="stop2465"
         offset="1"
         style="stop-color:#3ab0ea;stop-opacity:1;" />
    </linearGradient>
    <linearGradient
       y2="303.14029"
       x2="606.91248"
       y1="104.50665"
       x1="541.33502"
       gradientTransform="matrix(-0.3937741,0,0,0.393752,357.51969,122.00151)"
       gradientUnits="userSpaceOnUse"
       id="linearGradient2544"
       xlink:href="#path1082_2_"
       inkscape:collect="always" />
    <inkscape:path-effect
       is_visible="true"
       id="path-effect2991"
       effect="spiro" />
    <inkscape:path-effect
       effect="spiro"
       id="path-effect3177"
       is_visible="true" />
    <linearGradient
       id="linearGradient2096">
      <stop
         style="stop-color:#7e3615;stop-opacity:1.0000000;"
         offset="0.0000000"
         id="stop2098" />
      <stop
         id="stop2100"
         offset="0.50000000"
         style="stop-color:#7e3615;stop-opacity:1.0000000;" />
      <stop
         style="stop-color:#ed5b1a;stop-opacity:1.0000000;"
         offset="1.0000000"
         id="stop2102" />
    </linearGradient>
    <linearGradient
       id="linearGradient2085">
      <stop
         style="stop-color:#7f3615;stop-opacity:1.0000000;"
         offset="0.0000000"
         id="stop2087" />
      <stop
         id="stop2089"
         offset="0.50000000"
         style="stop-color:#ef743d;stop-opacity:1.0000000;" />
      <stop
         style="stop-color:#ef743d;stop-opacity:1.0000000;"
         offset="1.0000000"
         id="stop2091" />
    </linearGradient>
    <linearGradient
       id="linearGradient2077">
      <stop
         id="stop2079"
         offset="0.0000000"
         style="stop-color:#ed5b1a;stop-opacity:1.0000000;" />
      <stop
         style="stop-color:#ed5b1a;stop-opacity:1.0000000;"
         offset="0.50000000"
         id="stop2083" />
      <stop
         id="stop2081"
         offset="1.0000000"
         style="stop-color:#7e3615;stop-opacity:1.0000000;" />
    </linearGradient>
    <linearGradient
       inkscape:collect="always"
       id="linearGradient3560">
      <stop
         style="stop-color:#ffffff;stop-opacity:1;"
         offset="0"
         id="stop3562" />
      <stop
         style="stop-color:#ffffff;stop-opacity:0;"
         offset="1"
         id="stop3564" />
    </linearGradient>
    <linearGradient
       id="linearGradient3004">
      <stop
         id="stop3006"
         offset="0"
         style="stop-color:#ffffff;stop-opacity:1;" />
      <stop
         style="stop-color:#ffffff;stop-opacity:1;"
         offset="0.34214258"
         id="stop7609" />
      <stop
         style="stop-color:#bebdf3;stop-opacity:1;"
         offset="0.51998252"
         id="stop7599" />
      <stop
         id="stop7611"
         offset="0.75408828"
         style="stop-color:#8f82f9;stop-opacity:1;" />
      <stop
         style="stop-color:#9f99c7;stop-opacity:1;"
         offset="0.8711412"
         id="stop7613" />
      <stop
         id="stop3008"
         offset="1"
         style="stop-color:#524c76;stop-opacity:1;" />
    </linearGradient>
    <linearGradient
       id="linearGradient2988">
      <stop
         style="stop-color:#c9491c;stop-opacity:1.0000000;"
         offset="0.0000000"
         id="stop2990" />
      <stop
         style="stop-color:#6b2e26;stop-opacity:1.0000000;"
         offset="1.0000000"
         id="stop2992" />
    </linearGradient>
    <linearGradient
       id="linearGradient2980">
      <stop
         style="stop-color:#e76226;stop-opacity:1.0000000;"
         offset="0.0000000"
         id="stop2982" />
      <stop
         style="stop-color:#7e3615;stop-opacity:1.0000000;"
         offset="1.0000000"
         id="stop2984" />
    </linearGradient>
    <linearGradient
       id="linearGradient2127">
      <stop
         style="stop-color:#cc0045;stop-opacity:1.0000000;"
         offset="0.0000000"
         id="stop2129" />
      <stop
         style="stop-color:#ff794d;stop-opacity:1.0000000;"
         offset="1.0000000"
         id="stop2131" />
    </linearGradient>
    <linearGradient
       inkscape:collect="always"
       xlink:href="#linearGradient3004"
       id="linearGradient2786"
       gradientUnits="userSpaceOnUse"
       x1="142.8909"
       y1="560.31262"
       x2="305.19791"
       y2="560.31262" />
    <radialGradient
       inkscape:collect="always"
       xlink:href="#linearGradient3004"
       id="radialGradient2788"
       gradientUnits="userSpaceOnUse"
       gradientTransform="matrix(-2.182864e-2,-1.020879,1.918033,-4.101524e-2,-759.031,896.8714)"
       cx="298.04648"
       cy="512.46417"
       fx="298.04648"
       fy="512.46417"
       r="218.02184" />
    <linearGradient
       inkscape:collect="always"
       xlink:href="#linearGradient3004"
       id="linearGradient2801"
       gradientUnits="userSpaceOnUse"
       x1="34.285702"
       y1="185.21933"
       x2="-32.857155"
       y2="205.21933"
       gradientTransform="matrix(0.413051,0,0,0.413051,209.7551,299.5351)" />
    <radialGradient
       inkscape:collect="always"
       xlink:href="#linearGradient3560"
       id="radialGradient3553"
       cx="278.19101"
       cy="365.99103"
       fx="278.19101"
       fy="365.99103"
       r="22.023195"
       gradientTransform="matrix(-1.335307,0.232165,-0.156016,-0.897333,707.4359,624.6685)"
       gradientUnits="userSpaceOnUse" />
    <radialGradient
       inkscape:collect="always"
       xlink:href="#linearGradient3560"
       id="radialGradient3566"
       cx="281.96429"
       cy="374.32648"
       fx="281.96429"
       fy="374.32648"
       r="30.535715"
       gradientTransform="matrix(1.586984,6.491459e-2,-3.791318e-3,0.906694,-164.0892,16.62349)"
       gradientUnits="userSpaceOnUse" />
    <radialGradient
       inkscape:collect="always"
       xlink:href="#linearGradient2085"
       id="radialGradient2075"
       cx="616.66583"
       cy="357.7851"
       fx="616.66583"
       fy="357.7851"
       r="77.994896"
       gradientTransform="matrix(-0.784367,2.082605,-1.36893,-0.515577,1619.589,-726.3586)"
       gradientUnits="userSpaceOnUse" />
    <linearGradient
       id="b">
      <stop
         offset="0"
         stop-color="#415ea4"
         id="stop1268" />
      <stop
         offset="1"
         stop-color="#19458c"
         id="stop1270" />
    </linearGradient>
    <linearGradient
       id="c">
      <stop
         offset="0"
         stop-color="#fac45a"
         id="stop1273" />
      <stop
         offset=".525"
         stop-color="#f7a909"
         id="stop1275" />
      <stop
         offset="1"
         stop-color="#d49109"
         id="stop1277" />
    </linearGradient>
    <linearGradient
       id="a">
      <stop
         offset="0"
         stop-color="#617ec4"
         id="stop1280" />
      <stop
         offset="1"
         stop-color="#244c8d"
         id="stop1282" />
    </linearGradient>
    <linearGradient
       y2="144.43"
       x2="451.911"
       y1="935.984"
       x1="451.911"
       gradientUnits="userSpaceOnUse"
       id="z"
       xlink:href="#a" />
    <linearGradient
       gradientUnits="userSpaceOnUse"
       y2="299.317"
       x2="1086.588"
       y1="257.307"
       x1="1086.588"
       id="A"
       xlink:href="#b" />
    <linearGradient
       y2="300.621"
       x2="1140.436"
       y1="974.902"
       x1="480.537"
       gradientUnits="userSpaceOnUse"
       id="g"
       xlink:href="#c" />
    <clipPath
       clipPathUnits="userSpaceOnUse"
       id="x">
      <path
         d="M752.129 352.969l38.742-32.539S629.77 125.27 625.137 123.73c-4.637-1.539-559.102 0-559.102 0v548.286s-69.723 323.714 0 323.714h280.332V326.629l60.371-65.059 54.25-6.172 83.614 13.907 207.527 83.664"
         id="path1309" />
    </clipPath>
    <clipPath
       clipPathUnits="userSpaceOnUse"
       id="e">
      <path
         d="M0 1172.06V0h4503.57v1172.06"
         id="path1312" />
    </clipPath>
    <filter
       id="d"
       x="-0.005836224"
       y="-0.027011168"
       width="1.0116724"
       height="1.0540223">
      <feGaussianBlur
         stdDeviation="2.218"
         id="feGaussianBlur1315" />
    </filter>
    <clipPath
       clipPathUnits="userSpaceOnUse"
       id="clipPath9957">
      <path
         style="fill:#fffbfb;fill-opacity:1;stroke:#000000;stroke-width:1.18573px;stroke-linecap:butt;stroke-linejoin:miter;stroke-opacity:1"
         d="m 233.25037,176.49952 47.09402,43.91149 2.6153,-7.53778 -3.08721,-68.43232 52.1659,-27.26615 -1.73021,10.05058 6.32127,6.30332 20.38037,-3.44216 14.14815,-18.85958 -11.49578,-26.489134 -27.20106,-1.716576 -14.17602,12.034059 -40.33392,-11.908847 -14.4544,-68.373035 -7.62055,-0.946329 -3.81025,-0.220426 -35.88761,55.505647 -13.97166,0.302479 -47.41458,-10.420759 -16.49026,-4.678997 -19.70783,-6.272731 -34.956948,64.025329 1.82424,53.28585 12.788454,30.43844 34.744164,31.57282 26.97242,-6.85362 49.61807,-25.03971 z"
         id="path9959" />
    </clipPath>
    <filter
       color-interpolation-filters="sRGB"
       inkscape:collect="always"
       id="filter3573"
       x="-0.034136804"
       y="-0.038078329"
       width="1.0682736"
       height="1.0761567">
      <feGaussianBlur
         inkscape:collect="always"
         stdDeviation="1.6284922"
         id="feGaussianBlur3575" />
    </filter>
    <linearGradient
       inkscape:collect="always"
       xlink:href="#linearGradient3312"
       id="linearGradient3538"
       gradientUnits="userSpaceOnUse"
       gradientTransform="matrix(1.091261,0,0,1.091261,196.35071,-38.224469)"
       x1="61.42857"
       y1="362.14285"
       x2="116.42857"
       y2="408.57144" />
    <linearGradient
       id="linearGradient3312">
      <stop
         style="stop-color:#c7f994;stop-opacity:1;"
         offset="0"
         id="stop3314" />
      <stop
         style="stop-color:#87cf3e;stop-opacity:1;"
         offset="1"
         id="stop3316" />
    </linearGradient>
    <linearGradient
       inkscape:collect="always"
       xlink:href="#linearGradient3431"
       id="linearGradient4136"
       gradientUnits="userSpaceOnUse"
       gradientTransform="translate(0,80)"
       spreadMethod="pad"
       x1="70.491508"
       y1="416.38858"
       x2="113.64215"
       y2="375.87961" />
    <linearGradient
       id="linearGradient3431">
      <stop
         id="stop3433"
         offset="0"
         style="stop-color:#3d3d3d;stop-opacity:1;" />
      <stop
         id="stop3435"
         offset="1"
         style="stop-color:#000000;stop-opacity:0.11400651;" />
    </linearGradient>
    <filter
       color-interpolation-filters="sRGB"
       inkscape:collect="always"
       id="filter3291"
       x="-0.010642684"
       y="-0.013754135"
       width="1.0212854"
       height="1.0275083">
      <feGaussianBlur
         inkscape:collect="always"
         stdDeviation="0.400625"
         id="feGaussianBlur3293" />
    </filter>
    <filter
       color-interpolation-filters="sRGB"
       inkscape:collect="always"
       id="filter3546"
       x="-0.0058648718"
       y="-0.0061415018"
       width="1.0117297"
       height="1.012283">
      <feGaussianBlur
         inkscape:collect="always"
         stdDeviation="0.15992437"
         id="feGaussianBlur3548" />
    </filter>
  </defs>
  <g
     inkscape:label="Layer 1"
     id="layer1"
     style="display:inline"
     inkscape:groupmode="layer"
     sodipodi:insensitive="true">
    <circle
       style="fill:#ffffff;stroke-width:0.323507"
       id="path1541"
       cx="529.16669"
       cy="529.16669"
       r="529.16669" />
  </g>
  <g
     id="layer5"
     inkscape:label="Layer 2"
     style="display:inline"
     inkscape:groupmode="layer">
    <g
       id="g2720"
       transform="matrix(6.6374454,0,0,6.6374454,-1484.0645,-2054.9745)">
      <path
         inkscape:connector-curvature="0"
         sodipodi:nodetypes="ccccccccccccc"
         transform="matrix(1.0429295,0,0,1.0429295,-46.853192,-90.016462)"
         id="path3543"
         d="m 331.79042,510.93347 c -21.29012,0 -39.7658,-16.13992 -39.7658,-37.41096 l -0.0191,-21.99227 v -6.58604 h -13.49776 v -36.6513 l 56.92036,0.26806 17.80557,0.0383 c 21.30926,0 39.76579,16.12071 39.76579,37.41086 v 64.92334 h -61.20904 v 0 0 z"
         style="display:inline;overflow:visible;visibility:visible;opacity:0.26;fill:#000000;fill-opacity:1;fill-rule:evenodd;stroke:none;stroke-width:1;marker:none;filter:url(#filter3573);enable-background:accumulate" />
      <path
         inkscape:connector-curvature="0"
         sodipodi:nodetypes="cccccccsccccc"
         id="path2576"
         d="m 354.82505,425.26498 c 0,-14.72024 0,-49.44521 0,-49.44521 0,-16.51906 -14.4866,-29.9098 -32.36077,-29.9098 h -18.55166 v -0.0399 l -50.17518,-0.21924 v 18.04093 c 0,0 4.09686,0 7.7022,0 5.37631,0 6.32609,3.71136 6.32609,8.84831 l 0.0399,31.89432 c 0,16.51907 14.48666,29.90979 32.34088,29.90979 h 44.08203 c 5.65135,0 10.59654,-3.57895 10.59654,-9.07924 z"
         style="display:inline;fill:url(#linearGradient3538);fill-opacity:1;fill-rule:evenodd" />
      <path
         inkscape:connector-curvature="0"
         transform="matrix(1.0484996,0,0,1.0484996,200.58,-95.364589)"
         sodipodi:nodetypes="cccccsccccc"
         id="path3419"
         d="m 142.9375,500.53125 c -10.75182,-7.40935 -18.36682,-15.92034 -24.78125,-27.1875 -12.64444,-23.35809 -9.68791,-34.95326 -41,-37.6875 -9.036289,0 -15.051217,-2 -24.5625,-2 v 3.3125 c 10e-7,10e-6 3.758681,1.90749 7.0625,1.90749 4.926697,1e-5 5.78125,3.41765 5.78125,8.125 l 0.03125,29.15501 c -3e-6,15.13758 13.295158,27.40625 29.65625,27.40625 H 135.5 c 2.96358,0 5.62572,-1.16787 7.4375,-3.03125 z"
         style="display:inline;opacity:0.175141;fill:url(#linearGradient4136);fill-opacity:1;fill-rule:nonzero;filter:url(#filter3291)" />
      <path
         inkscape:connector-curvature="0"
         transform="matrix(1.0484996,0,0,1.0484996,200.58,-95.364589)"
         sodipodi:nodetypes="csccccsssccccsssccccccccccccccccsscc"
         id="path2620"
         d="m 105.51844,438.54009 c -3.83671,0 -7.245744,1.42445 -9.984837,4.1914 -2.737725,2.76548 -4.1752,6.21796 -4.17519,10.11421 v 19.69466 h 8.932957 V 452.8457 c 0,-1.49338 0.48728,-2.66108 1.55355,-3.73818 1.06977,-1.08055 2.2026,-1.56971 3.67352,-1.56971 1.50175,0 2.61758,0.4867 3.68969,1.56971 1.06628,1.0771 1.55356,2.2448 1.55356,3.73818 v 19.69466 h 8.93297 V 452.8457 c 0,-1.49338 0.48728,-2.66108 1.55356,-3.73818 1.07211,-1.08301 2.18794,-1.56971 3.68971,-1.56971 1.47093,0 2.60373,0.48916 3.6735,1.56971 1.06627,1.0771 1.55356,2.2448 1.55356,3.73818 l 0.0486,23.01222 c 0,4.90894 -4.67486,9.04618 -10.68071,9.04618 l -28.805549,-0.11326 c -4.634707,0 -8.593128,-4.51117 -8.593128,-10.30852 v -43.33528 h -8.447462 v 45.00209 c 0,4.77471 1.747181,8.96178 5.146164,12.3476 2.905193,2.8676 6.399074,4.56445 10.324689,4.98427 v 0.16191 h 32.074486 c 4.92872,0 9.25884,-1.83265 12.75212,-5.38904 h 0.0162 c 2.97102,-3.05245 4.70787,-6.70998 5.12997,-10.82624 l -0.0324,-24.58193 c 0,-3.89625 -1.43744,-7.34873 -4.17521,-10.11421 -2.73906,-2.76695 -6.14812,-4.1914 -9.98482,-4.1914 -3.76604,0 -7.06133,1.40042 -9.72593,3.96479 -2.65681,-2.56014 -5.92908,-3.96479 -9.69356,-3.96479 z"
         style="display:inline;overflow:visible;visibility:visible;fill:#000000;fill-opacity:0.080402;fill-rule:evenodd;stroke:none;stroke-width:4.76671;marker:none;filter:url(#filter3546);enable-background:accumulate" />
      <path
         inkscape:connector-curvature="0"
         id="path4130"
         d="m 310.46807,364.69038 c -4.02279,0 -7.59716,1.49353 -10.4691,4.39468 -2.87051,2.8996 -4.3777,6.51953 -4.37769,10.60474 v 20.64985 h 9.36621 V 379.6898 c 0,-1.5658 0.51091,-2.79014 1.62889,-3.91948 1.12166,-1.13295 2.30943,-1.64584 3.85169,-1.64584 1.57458,0 2.74453,0.51031 3.86864,1.64584 1.11799,1.12934 1.62891,2.35368 1.62891,3.91948 v 20.64985 h 9.3662 V 379.6898 c 0,-1.5658 0.51092,-2.79014 1.62892,-3.91948 1.1241,-1.13553 2.29405,-1.64584 3.86866,-1.64584 1.54227,0 2.73001,0.51289 3.85165,1.64584 1.11799,1.12934 1.62891,2.35368 1.62891,3.91948 l 0.0509,24.12831 c 0,5.14702 -4.90159,9.48491 -11.19872,9.48491 l -30.2026,-0.11875 c -4.85949,0 -9.00989,-4.72996 -9.00989,-10.80848 v -45.43702 h -8.85716 v 47.18467 c 0,5.00628 1.83192,9.39642 5.39575,12.94646 3.04609,3.00667 6.70943,4.95566 10.82542,5.39584 l 33.6301,-8e-5 c 5.16776,0 9.70788,-1.92153 13.37059,-5.6504 h 0.017 c 3.1151,-3.2005 4.9362,-7.03541 5.37877,-11.35131 l -0.0339,-25.77415 c 0,-4.08521 -1.50714,-7.70514 -4.37769,-10.60474 -2.87191,-2.90115 -6.44631,-4.39468 -10.46908,-4.39468 -3.94869,0 -7.4038,1.46834 -10.19764,4.15708 -2.78567,-2.68431 -6.21663,-4.15708 -10.16369,-4.15708 z"
         style="display:inline;overflow:visible;visibility:visible;fill:#ffffff;fill-opacity:1;fill-rule:evenodd;stroke:none;stroke-width:1;marker:none;enable-background:accumulate"
         sodipodi:nodetypes="csccccsssccccssscccccccccccccccsscc" />
      <path
         inkscape:connector-curvature="0"
         id="path4132"
         d="m 304.96011,413.21566 v 9.25 h 22 c 5.16774,0 9.68104,-1.92738 13.34374,-5.65625 h 0.0313 c 3.11511,-3.20051 4.93243,-7.02785 5.375,-11.34375 v -5.25 h -9.34375 v 3.59375 c 0,5.14705 -4.89038,9.46875 -11.18751,9.46875 l -20.21874,-0.0625 z"
         style="display:inline;overflow:visible;visibility:visible;opacity:0.3;fill:#52a800;fill-opacity:1;fill-rule:evenodd;stroke:none;stroke-width:1;marker:none;enable-background:accumulate" />
      <path
         inkscape:connector-curvature="0"
         sodipodi:nodetypes="ccccccccccccccccccccsccccc"
         d="m 299.85338,441.19135 c -21.29012,0 -39.76579,-16.13992 -39.76579,-37.41096 l -0.0191,-25.82763 v -6.58603 h -13.49775 v -32.81595 l 56.92035,0.26806 17.80558,0.0383 c 21.30925,0 39.76578,16.12071 39.76578,37.41085 v 64.92335 h -61.20904 v 0 0 z m 52.53596,-17.41567 c 0,-14.14342 0,-47.50768 0,-47.50768 0,-15.87175 -13.91893,-28.73777 -31.0927,-28.73777 h -17.82471 v -0.0383 l -48.20903,-0.21065 v 15.41237 c 0,0 1.93631,0 5.40037,0 3.6664,0 8.0782,3.44547 8.0782,8.50158 l 0.0383,32.56616 c 0,15.87176 13.919,28.73776 31.0736,28.73776 h 42.35465 c 5.42989,0 10.18131,-3.43871 10.18131,-8.72347 z"
         style="display:inline;overflow:visible;visibility:visible;fill:#ffffff;fill-opacity:1;fill-rule:evenodd;stroke:none;stroke-width:1;marker:none;enable-background:accumulate"
         id="path6141" />
    </g>
  </g>
</svg>
