<?xml version="1.0" encoding="UTF-8" standalone="no"?>
<!-- Generator: Adobe Illustrator 16.0.0, SVG Export Plug-In . SVG Version: 6.00 Build 0)  -->

<svg
   xmlns:dc="http://purl.org/dc/elements/1.1/"
   xmlns:cc="http://creativecommons.org/ns#"
   xmlns:rdf="http://www.w3.org/1999/02/22-rdf-syntax-ns#"
   xmlns:svg="http://www.w3.org/2000/svg"
   xmlns="http://www.w3.org/2000/svg"
   xmlns:sodipodi="http://sodipodi.sourceforge.net/DTD/sodipodi-0.dtd"
   xmlns:inkscape="http://www.inkscape.org/namespaces/inkscape"
   version="1.1"
   id="Capa_1"
   x="0px"
   y="0px"
   width="485.228px"
   height="485.228px"
   viewBox="0 0 485.228 485.228"
   style="enable-background:new 0 0 485.228 485.228;"
   xml:space="preserve"
   sodipodi:docname="eye-search-disabled.svg"
   inkscape:version="0.92.4 (5da689c313, 2019-01-14)"><metadata
   id="metadata47"><rdf:RDF><cc:Work
       rdf:about=""><dc:format>image/svg+xml</dc:format><dc:type
         rdf:resource="http://purl.org/dc/dcmitype/StillImage" /><dc:title></dc:title></cc:Work></rdf:RDF></metadata><defs
   id="defs45" /><sodipodi:namedview
   pagecolor="#ffffff"
   bordercolor="#666666"
   borderopacity="1"
   objecttolerance="10"
   gridtolerance="10"
   guidetolerance="10"
   inkscape:pageopacity="0"
   inkscape:pageshadow="2"
   inkscape:window-width="2517"
   inkscape:window-height="1270"
   id="namedview43"
   showgrid="false"
   inkscape:zoom="0.4863693"
   inkscape:cx="-482.14392"
   inkscape:cy="242.614"
   inkscape:window-x="145"
   inkscape:window-y="248"
   inkscape:window-maximized="0"
   inkscape:current-layer="g8" />
<g
   id="g10">
	<g
   id="g8">
		<path
   d="m 424.56906,432.98911 -59.52073,-59.53888 c -9.55783,13.43983 -21.3095,25.19149 -34.74997,34.77137 l 59.51748,59.51748 c 9.59803,9.60321 25.14935,9.60321 34.75257,0 9.60061,-9.59738 9.60061,-25.15 6.5e-4,-34.74997 z"
   id="path2"
   inkscape:connector-curvature="0"
   style="stroke-width:1" />
		<path
   d="m 372.76954,288.16946 c 0,-70.57612 -57.21474,-127.7915 -127.78112,-127.7915 -70.57742,0 -127.79086,57.21538 -127.79086,127.7915 0,70.57612 57.21344,127.78826 127.79151,127.78826 70.56573,0 127.78047,-57.21214 127.78047,-127.78826 z m -127.78047,98.3005 c -54.20145,0 -98.3018,-44.10164 -98.3018,-98.3005 0,-54.20145 44.10035,-98.3005 98.3018,-98.3005 54.20598,0 98.28688,44.0984 98.28688,98.3005 0,54.19886 -44.07766,98.3005 -98.28688,98.3005 z"
   id="path4"
   inkscape:connector-curvature="0"
   style="stroke-width:1" />
		
	<path
   inkscape:connector-curvature="0"
   d="M 332.15326,3.1266675 289.55593,31.431127 c -16.16813,-3.86175 -34.19498,-6.30692 -54.01687,-6.30692 -96.35957,0 -152.960802,59.10823 -152.960802,59.10823 0,0 24.545022,26.626223 65.512802,46.359043 l -37.05942,26.24727 18.00139,12.75821 L 350.16737,15.893907 Z M 255.56464,55.269317 c -41.85893,-13.1101 -85.05461,17.21546 -67.02776,46.972593 l -21.9734,15.40189 c -23.09371,-10.46643 -41.0569,-23.910373 -51.68713,-33.023383 19.00712,-14.86954 61.32436,-41.45065 120.66271,-41.45065 11.80148,0 22.86455,1.07371 33.22744,2.84218 z M 218.86169,122.3176 283.66157,77.266857 C 296.60881,105.33672 258.16173,132.00806 218.86169,122.3176 Z M 388.11795,84.232437 c 0,0 -54.13145,67.210693 -152.57889,67.210693 -17.5558,0 -33.88944,-2.62563 -49.02639,-6.64979 l 20.54754,-14.28306 c 9.10255,1.7414 18.56154,2.88729 28.47885,2.88729 60.99336,0 103.17057,-31.82335 120.99372,-48.398193 -9.28077,-7.41673 -24.90148,-17.95533 -45.66546,-26.63525 l 18.9562,-13.17326 c 37.9633,17.14328 58.29443,39.04157 58.29443,39.04157 z"
   id="path2-6"
   style="stroke-width:1" /></g>
</g>
<g
   id="g12">
</g>
<g
   id="g14">
</g>
<g
   id="g16">
</g>
<g
   id="g18">
</g>
<g
   id="g20">
</g>
<g
   id="g22">
</g>
<g
   id="g24">
</g>
<g
   id="g26">
</g>
<g
   id="g28">
</g>
<g
   id="g30">
</g>
<g
   id="g32">
</g>
<g
   id="g34">
</g>
<g
   id="g36">
</g>
<g
   id="g38">
</g>
<g
   id="g40">
</g>
</svg>