<?xml version="1.0" encoding="UTF-8" standalone="no"?>
<svg
   xmlns:dc="http://purl.org/dc/elements/1.1/"
   xmlns:cc="http://creativecommons.org/ns#"
   xmlns:rdf="http://www.w3.org/1999/02/22-rdf-syntax-ns#"
   xmlns:svg="http://www.w3.org/2000/svg"
   xmlns="http://www.w3.org/2000/svg"
   xmlns:sodipodi="http://sodipodi.sourceforge.net/DTD/sodipodi-0.dtd"
   xmlns:inkscape="http://www.inkscape.org/namespaces/inkscape"
   width="24"
   height="24"
   viewBox="0 0 24 24"
   version="1.1"
   id="svg4"
   sodipodi:docname="eye-announced-chat-rooms.svg"
   inkscape:version="0.92.4 (5da689c313, 2019-01-14)">
  <metadata
     id="metadata10">
    <rdf:RDF>
      <cc:Work
         rdf:about="">
        <dc:format>image/svg+xml</dc:format>
        <dc:type
           rdf:resource="http://purl.org/dc/dcmitype/StillImage" />
        <dc:title></dc:title>
      </cc:Work>
    </rdf:RDF>
  </metadata>
  <defs
     id="defs8" />
  <sodipodi:namedview
     pagecolor="#ffffff"
     bordercolor="#666666"
     borderopacity="1"
     objecttolerance="10"
     gridtolerance="10"
     guidetolerance="10"
     inkscape:pageopacity="0"
     inkscape:pageshadow="2"
     inkscape:window-width="4051"
     inkscape:window-height="1779"
     id="namedview6"
     showgrid="false"
     inkscape:zoom="9.8333333"
     inkscape:cx="-131.38983"
     inkscape:cy="12"
     inkscape:window-x="114"
     inkscape:window-y="46"
     inkscape:window-maximized="0"
     inkscape:current-layer="svg4" />
  <path
     d="m 22.068739,21.271228 h -2.256357 v 2.364474 l -4.01105,-2.364474 h -5.766493 v -2.364473 h 1.504238 v 1.182234 h 4.763167 l 2.005902,1.182239 v -1.182239 h 2.256355 v -4.72954 H 19.060264 V 14.17721 h 3.008475 z M 17.556027,17.724513 H 10.285295 L 6.2742469,20.088989 V 17.724513 H 4.0178909 V 9.4482608 H 17.556027 Z M 10.786959,15.310388 H 7.0263649 v 0.640772 h 3.7605941 z m 3.760593,-1.723704 H 7.0263649 v 0.591119 h 7.5211871 z m 0,-1.773359 H 7.0263649 v 0.59112 h 7.5211871 z"
     id="path2-2"
     inkscape:connector-curvature="0"
     style="stroke-width:0.60151631" />
  <path
     inkscape:connector-curvature="0"
     d="m 7.3300433,1.9733658 c 2.53655,0 4.3048207,1.5679903 5.0741687,2.4134141 C 11.65622,5.3430874 9.8879503,7.1791772 7.3300433,7.1791772 4.9702114,7.1791772 3.0962288,5.3384019 2.2697539,4.3643949 3.0668646,3.5069976 4.8415427,1.9733658 7.3300433,1.9733658 Z m 0,-1.04116195 c -4.0410775,0 -6.41478951,3.41032675 -6.41478951,3.41032675 0,0 2.58139881,3.8778087 6.41478951,3.8778087 4.1286347,0 6.3987707,-3.8778087 6.3987707,-3.8778087 0,0 -2.290958,-3.41032675 -6.3987707,-3.41032675 z m -0.008,1.56174345 c -1.1793822,0 -2.1355942,0.9328812 -2.1355942,2.0823242 0,1.149964 0.956212,2.0823242 2.1355942,2.0823242 1.17938,0 2.135592,-0.9323602 2.135592,-2.0823242 0,-1.149443 -0.956212,-2.0823242 -2.135592,-2.0823242 z"
     id="path2-20"
     style="stroke-width:0.6772393" />
  <path
     inkscape:connector-curvature="0"
     d="m 20.301704,4.445671 c 0.307276,-0.3692701 0.490627,-0.8283718 0.490627,-1.3257637 0,-0.4973926 -0.183351,-0.9564944 -0.490627,-1.3257644 l 0.568895,-0.5297907 c 0.455479,0.5062271 0.732679,1.1501494 0.732679,1.8555551 0,0.7054041 -0.277562,1.3489578 -0.732679,1.8559222 z M 16.318716,0.73603514 15.749097,0.20550804 c -0.75587,0.7779337 -1.219318,1.79517506 -1.219318,2.91439926 0,1.1192226 0.463448,2.1360962 1.218956,2.9143977 L 16.318354,5.5037787 C 15.7125,4.8605937 15.341087,4.0307482 15.341087,3.1199073 c 0,-0.9108417 0.371776,-1.740688 0.977629,-2.38387216 z M 16.885438,4.9754608 17.454332,4.445671 C 17.147057,4.0764009 16.963706,3.6172992 16.963706,3.1199073 c 0,-0.4973926 0.183351,-0.9564944 0.490626,-1.3257644 L 16.885438,1.2643522 C 16.42996,1.7705793 16.15276,2.4145016 16.15276,3.1199073 c 0,0.7054041 0.2772,1.3489578 0.732678,1.8555535 z m 5.121501,-4.76995276 -0.569257,0.5305271 c 0.605855,0.64318416 0.977266,1.47303046 0.977266,2.38387216 0,0.9108409 -0.371411,1.7406864 -0.977266,2.3838714 l 0.56962,0.5305263 c 0.755506,-0.7786701 1.218956,-1.7955437 1.218956,-2.9143977 0,-1.1188556 -0.46345,-2.13646556 -1.219319,-2.91439926 z M 21.082213,9.0414811 h -0.780509 c -0.307999,-0.811069 -0.819281,-1.1287968 -1.423686,-1.1287968 -0.613101,0 -1.118946,0.3261961 -1.423686,1.1287968 H 16.68868 L 18.515666,4.1566608 C 18.09461,4.0042407 17.790959,3.5999947 17.790959,3.1199073 c 0,-0.6100506 0.487003,-1.1044976 1.087059,-1.1044976 0.600058,0 1.08706,0.494447 1.08706,1.1044976 0,0.4800874 -0.303652,0.8847012 -0.724707,1.0367535 z M 18.878018,5.2810383 18.569293,6.0961571 h 0.617089 z M 19.604899,7.2006531 19.465393,6.832488 h -1.174749 l -0.139506,0.3681651 z"
     id="path3725"
     style="stroke-width:0.42192394" />
</svg>
