<?xml version="1.0" encoding="UTF-8" standalone="no"?>
<!-- Generated by IcoMoon.io -->

<svg
   xmlns:dc="http://purl.org/dc/elements/1.1/"
   xmlns:cc="http://creativecommons.org/ns#"
   xmlns:rdf="http://www.w3.org/1999/02/22-rdf-syntax-ns#"
   xmlns:svg="http://www.w3.org/2000/svg"
   xmlns="http://www.w3.org/2000/svg"
   xmlns:sodipodi="http://sodipodi.sourceforge.net/DTD/sodipodi-0.dtd"
   xmlns:inkscape="http://www.inkscape.org/namespaces/inkscape"
   version="1.1"
   width="32"
   height="32"
   viewBox="0 0 32 32"
   id="svg6"
   sodipodi:docname="friend-request-list.svg"
   inkscape:version="0.92.4 (5da689c313, 2019-01-14)">
  <metadata
     id="metadata12">
    <rdf:RDF>
      <cc:Work
         rdf:about="">
        <dc:format>image/svg+xml</dc:format>
        <dc:type
           rdf:resource="http://purl.org/dc/dcmitype/StillImage" />
        <dc:title>list</dc:title>
      </cc:Work>
    </rdf:RDF>
  </metadata>
  <defs
     id="defs10" />
  <sodipodi:namedview
     pagecolor="#ffffff"
     bordercolor="#666666"
     borderopacity="1"
     objecttolerance="2"
     gridtolerance="2"
     guidetolerance="2"
     inkscape:pageopacity="0"
     inkscape:pageshadow="2"
     inkscape:window-width="3696"
     inkscape:window-height="1741"
     id="namedview8"
     showgrid="false"
     inkscape:zoom="29.5"
     inkscape:cx="-12.70259"
     inkscape:cy="17.850904"
     inkscape:window-x="246"
     inkscape:window-y="258"
     inkscape:window-maximized="0"
     inkscape:current-layer="svg6" />
  <title
     id="title2">list</title>
  <path
     d="M 4.8813558,0.77966102 H 11 V 3.9491527 H 4.8813558 Z M 14.059322,1.572034 H 29.35593 V 3.1567798 H 14.059322 Z M 4.8813558,5.5338986 H 11 V 8.7033911 H 4.8813558 Z M 14.059322,6.3262715 H 29.35593 v 1.584746 H 14.059322 Z M 4.8813558,10.288137 H 11 v 3.169491 H 4.8813558 Z M 14.059322,11.08051 H 29.35593 v 1.584745 H 14.059322 Z"
     id="path4"
     inkscape:connector-curvature="0"
     style="stroke-width:0.63131863" />
  <path
     inkscape:connector-curvature="0"
     d="m 14.017564,14.20339 c -1.312169,0 -2.377118,0.962441 -2.377118,2.14759 0,1.185148 1.064949,2.147588 2.377118,2.147588 1.311377,0 2.377119,-0.96244 2.377119,-2.147588 0,-1.185149 -1.065742,-2.14759 -2.377119,-2.14759 m 0,0.716102 c 0.873987,0 1.584747,0.641627 1.584747,1.431488 0,0.789859 -0.71076,1.432203 -1.584747,1.432203 -0.873986,0 -1.584745,-0.642344 -1.584745,-1.432203 0,-0.789861 0.710759,-1.431488 1.584745,-1.431488 M 6.3561107,14.20339 c -1.31217,0 -2.377118,0.962441 -2.377118,2.14759 0,1.185148 1.064948,2.147588 2.377118,2.147588 1.311377,0 2.3771181,-0.96244 2.3771181,-2.147588 0,-1.185149 -1.0657411,-2.14759 -2.3771181,-2.14759 m 0,0.716102 c 0.873987,0 1.584745,0.641627 1.584745,1.431488 0,0.789859 -0.710758,1.432203 -1.584745,1.432203 -0.873988,0 -1.584746,-0.642344 -1.584746,-1.432203 0,-0.789861 0.710758,-1.431488 1.584746,-1.431488 m 7.6448143,10.618356 c 0.549906,0 0.975411,0.375238 1.011859,0.891547 0.03962,0.530632 0.136289,1.576139 0.221865,2.498479 l 0.12361,1.357729 c 0.01585,0.179742 0.12995,0.388127 0.402525,0.388127 0.32012,0 0.36053,-0.304344 0.364492,-0.398153 l 0.374,-8.197216 c 0.01743,-0.366645 0.555453,-0.469046 0.742453,-0.158975 l 1.303454,2.131835 c 0.0935,0.153962 0.357361,0.08952 0.357361,-0.08378 l -1.267798,-4.063883 c -0.07369,-0.239894 -0.318533,-0.40603 -0.593487,-0.40603 H 3.3308309 c -0.2741612,0 -0.5190043,0.166136 -0.5934874,0.405314 l -1.2598729,4.017331 c -0.017432,0.287872 0.2884237,0.233448 0.3502288,0.131046 l 1.3034535,-2.131835 c 0.193339,-0.314368 0.7258128,-0.202656 0.7424528,0.158975 l 0.373208,8.197932 c 0.0087,0.183323 0.115687,0.397437 0.388262,0.397437 0.260692,0 0.39381,-0.194064 0.41045,-0.387411 l 0.12678,-1.389237 c 0.08478,-0.914462 0.179868,-1.942068 0.219487,-2.469119 0.03724,-0.514877 0.462746,-0.890115 1.01186,-0.890115 0.462746,0 0.96511,0.332988 1.006313,0.890831 0.03883,0.525619 0.133912,1.553225 0.218695,2.467686 l 0.12678,1.389238 c 0.01505,0.179742 0.127572,0.388127 0.395395,0.388127 0.302685,0 0.347851,-0.278564 0.353398,-0.398153 0.09667,-2.116796 0.4984021,-8.80089 0.5031571,-8.868203 0.0111,-0.190483 0.184622,-0.338716 0.395393,-0.338716 h 1.5554292 c 0.210771,0 0.3843,0.148949 0.395393,0.339432 0.0048,0.06732 0.391433,6.750691 0.488895,8.868203 0.0095,0.197645 0.137873,0.397437 0.403318,0.397437 0.272576,0 0.388262,-0.208385 0.402525,-0.387411 l 0.130742,-1.419314 c 0.0832,-0.906584 0.176699,-1.918436 0.215525,-2.439042 0.0412,-0.557127 0.54436,-0.890115 1.006314,-0.890115 m 1.760652,5.851983 c -0.639445,0 -1.141016,-0.441118 -1.193313,-1.049088 -0.02773,-0.325827 -0.0729,-0.818505 -0.122818,-1.352716 -0.08558,-0.926636 -0.183038,-1.977158 -0.22345,-2.51137 -0.01188,-0.165419 -0.122025,-0.222707 -0.221071,-0.222707 -0.0626,0 -0.202847,0.05585 -0.215526,0.221991 -0.03883,0.52347 -0.133118,1.53962 -0.21711,2.4505 -0.0523,0.557844 -0.09983,1.075586 -0.129156,1.415018 -0.0515,0.607254 -0.553077,1.048372 -1.19173,1.048372 -0.6545,0 -1.167957,-0.465466 -1.197275,-1.083462 -0.084,-1.838233 -0.38747,-7.128076 -0.468292,-8.52161 H 9.7775768 c -0.0832,1.392102 -0.397771,6.683377 -0.481763,8.520895 -0.03011,0.638762 -0.499987,1.084177 -1.1441861,1.084177 -0.636276,0 -1.134679,-0.441118 -1.186182,-1.049088 l -0.12678,-1.384942 c -0.08478,-0.918758 -0.180662,-1.950661 -0.219487,-2.479144 -0.01268,-0.166851 -0.153721,-0.222707 -0.215526,-0.222707 -0.09905,0 -0.209979,0.05801 -0.221072,0.221276 -0.03962,0.529914 -0.135495,1.562534 -0.22028,2.481292 l -0.12678,1.384941 c -0.0515,0.607254 -0.556245,1.048372 -1.19886,1.048372 -0.655292,0 -1.1513171,-0.456156 -1.1814273,-1.083462 L 3.1398689,23.385246 2.5218181,24.397098 C 2.2658816,24.815302 1.6597164,24.956374 1.2754155,24.782361 0.910924,24.642721 0.6779663,24.326205 0.6779663,23.967437 c 0,-0.08235 0.012678,-0.163987 0.037242,-0.242758 l 1.2598725,-4.016614 c 0.1703601,-0.54567 0.7281906,-0.926636 1.3557501,-0.926636 H 17.041259 c 0.628352,0 1.186182,0.381682 1.356543,0.926636 l 1.259872,4.01733 c 0.02457,0.07805 0.03725,0.159691 0.03725,0.242042 0,0.360199 -0.235335,0.678149 -0.60141,0.816357 l -0.02932,0.01217 c -0.448483,0.15611 -0.980958,-0.02005 -1.21233,-0.399585 l -0.618843,-1.011136 -0.315365,6.920408 c -0.03011,0.638762 -0.505533,1.084177 -1.156072,1.084177"
     id="path4527"
     style="stroke-width:1" />
  <path
     d="m 31.666205,20.033976 c 0,-3.419967 -2.779821,-6.192502 -6.208342,-6.192502 -3.429056,0 -6.208813,2.772535 -6.208813,6.192502 0,3.419967 2.779757,6.192346 6.208845,6.192346 3.428489,0 6.20831,-2.772379 6.20831,-6.192346 z m -6.20831,4.763433 c -2.633418,0 -4.776066,-2.137072 -4.776066,-4.763433 0,-2.626486 2.142648,-4.763432 4.776066,-4.763432 2.633638,0 4.775342,2.136914 4.775342,4.763432 0,2.626361 -2.141546,4.763433 -4.775342,4.763433 z"
     id="path4-2"
     inkscape:connector-curvature="0"
     style="stroke-width:1" />
  <path
     inkscape:connector-curvature="0"
     d="m 24.560367,23.404265 v -2.498209 h -2.717331 v -1.663492 h 2.717331 v -2.498209 h 1.811553 v 2.498209 h 2.717331 v 1.663492 H 26.37192 v 2.498209 z"
     id="path2-7"
     style="stroke-width:27.60533142" />
</svg>
