<?xml version="1.0" encoding="UTF-8" standalone="no"?>
<svg
   width="24"
   height="24"
   viewBox="0 0 24 24"
   version="1.1"
   id="svg4"
   sodipodi:docname="image-rotate.svg"
   inkscape:version="1.4.2 (f4327f4, 2025-05-13)"
   xmlns:inkscape="http://www.inkscape.org/namespaces/inkscape"
   xmlns:sodipodi="http://sodipodi.sourceforge.net/DTD/sodipodi-0.dtd"
   xmlns="http://www.w3.org/2000/svg"
   xmlns:svg="http://www.w3.org/2000/svg"
   xmlns:rdf="http://www.w3.org/1999/02/22-rdf-syntax-ns#"
   xmlns:cc="http://creativecommons.org/ns#"
   xmlns:dc="http://purl.org/dc/elements/1.1/">
  <metadata
     id="metadata10">
    <rdf:RDF>
      <cc:Work
         rdf:about="">
        <dc:format>image/svg+xml</dc:format>
        <dc:type
           rdf:resource="http://purl.org/dc/dcmitype/StillImage" />
        <dc:title />
      </cc:Work>
    </rdf:RDF>
  </metadata>
  <defs
     id="defs8" />
  <sodipodi:namedview
     pagecolor="#ffffff"
     bordercolor="#666666"
     borderopacity="1"
     objecttolerance="10"
     gridtolerance="10"
     guidetolerance="10"
     inkscape:pageopacity="0"
     inkscape:pageshadow="2"
     inkscape:window-width="933"
     inkscape:window-height="607"
     id="namedview6"
     showgrid="false"
     inkscape:zoom="9.8333333"
     inkscape:cx="11.949153"
     inkscape:cy="11.949153"
     inkscape:window-x="182"
     inkscape:window-y="31"
     inkscape:window-maximized="0"
     inkscape:current-layer="svg4"
     inkscape:showpageshadow="2"
     inkscape:pagecheckerboard="0"
     inkscape:deskcolor="#d1d1d1" />
  <path
     d="M 13.5,23 C 8.212,23 3.851,19.086 3.123,14 H 0 L 4,8.083 8,14 H 5.153 C 5.864,17.972 9.327,21 13.5,21 18.187,21 22,17.187 22,12.5 22,7.813 18.187,4 13.5,4 10.485,4 7.838,5.583 6.329,7.957 L 5.129,6.182 C 7.045,3.646 10.077,2 13.5,2 19.297,2 24,6.702 24,12.5 24,18.298 19.297,23 13.5,23 Z"
     id="path2" />
  <path
     inkscape:connector-curvature="0"
     d="m 17.420873,16.424466 c -0.339408,-1.39739 -0.63727,-2.698562 -1.862672,-2.06209 -0.316395,0.164146 -0.619897,0.303827 -0.911751,0.421895 0.206471,-0.353209 0.365772,-0.74729 0.419755,-0.961502 l -0.447585,-0.08909 c -0.135477,0.4676 -0.389499,0.973162 -0.765027,1.326323 -2.632255,0.758775 -4.0323473,-0.497131 -4.0400131,-2.189721 -0.00936,-2.06723 2.0604471,-3.45275 5.7308701,-1.54407 1.238334,0.644431 1.524175,-0.708604 1.843918,-2.078877 0.283118,-1.213089 0.893106,-1.296801 1.950214,-1.301589 l 0.520592,-3.58e-4 0.0442,9.758553 -0.520574,0.0044 c -1.057108,0.0048 -1.667829,-0.0734 -1.961924,-1.283872 z m -2.019709,-3.576239 c 0.03736,-0.17956 -0.08299,-0.354746 -0.268568,-0.390515 -0.185582,-0.03658 -0.366276,0.08017 -0.403636,0.259728 l -0.159952,0.713814 0.671786,0.13079 z"
     id="path2-6"
     style="stroke-width:0.413086" />
</svg>
