<?xml version="1.0" encoding="UTF-8" standalone="no"?>
<svg
   xmlns:dc="http://purl.org/dc/elements/1.1/"
   xmlns:cc="http://creativecommons.org/ns#"
   xmlns:rdf="http://www.w3.org/1999/02/22-rdf-syntax-ns#"
   xmlns:svg="http://www.w3.org/2000/svg"
   xmlns="http://www.w3.org/2000/svg"
   xmlns:sodipodi="http://sodipodi.sourceforge.net/DTD/sodipodi-0.dtd"
   xmlns:inkscape="http://www.inkscape.org/namespaces/inkscape"
   width="24"
   height="24"
   viewBox="0 0 24 24"
   version="1.1"
   id="svg4"
   sodipodi:docname="mediatype-video.svg"
   inkscape:version="0.92.4 (5da689c313, 2019-01-14)">
  <metadata
     id="metadata10">
    <rdf:RDF>
      <cc:Work
         rdf:about="">
        <dc:format>image/svg+xml</dc:format>
        <dc:type
           rdf:resource="http://purl.org/dc/dcmitype/StillImage" />
      </cc:Work>
    </rdf:RDF>
  </metadata>
  <defs
     id="defs8" />
  <sodipodi:namedview
     pagecolor="#ffffff"
     bordercolor="#666666"
     borderopacity="1"
     objecttolerance="10"
     gridtolerance="10"
     guidetolerance="10"
     inkscape:pageopacity="0"
     inkscape:pageshadow="2"
     inkscape:window-width="2849"
     inkscape:window-height="1618"
     id="namedview6"
     showgrid="false"
     inkscape:zoom="27.812867"
     inkscape:cx="12.374151"
     inkscape:cy="6.9978227"
     inkscape:window-x="229"
     inkscape:window-y="18"
     inkscape:window-maximized="0"
     inkscape:current-layer="svg4" />
  <path
     d="M 24,4.375 23.992,4.333 22.984,0 1.815,4.196 C 0.761,4.405 0,5.33 0,6.403 V 21 c 0,1.657 1.343,3 3,3 h 18 c 1.656,0 3,-1.343 3,-3 V 7 H 11.266 Z M 20.11,1.757 22.506,3.361 19.512,3.956 17.114,2.351 Z M 14.213,2.926 16.612,4.532 13.619,5.127 11.217,3.52 Z M 8.308,4.097 10.711,5.705 7.718,6.3 5.312,4.69 Z M 10.846,8 8.807,10 H 5.753 L 7.792,8 Z m 8.978,0 h 3.054 l -2.038,2 h -3.055 z m -6.012,0 h 3.053 l -2.039,2 H 11.773 Z M 22,12 v 8.75 C 22,21.44 21.44,22 20.75,22 H 3.25 C 2.56,22 2,21.44 2,20.75 V 12 Z"
     id="path2"
     inkscape:connector-curvature="0"
     sodipodi:nodetypes="ccccsssssccccccccccccccccccccccccccccccccccsssscc" />
</svg>
