<?xml version="1.0" encoding="UTF-8" standalone="no"?>
<svg
   xmlns:dc="http://purl.org/dc/elements/1.1/"
   xmlns:cc="http://creativecommons.org/ns#"
   xmlns:rdf="http://www.w3.org/1999/02/22-rdf-syntax-ns#"
   xmlns:svg="http://www.w3.org/2000/svg"
   xmlns="http://www.w3.org/2000/svg"
   xmlns:sodipodi="http://sodipodi.sourceforge.net/DTD/sodipodi-0.dtd"
   xmlns:inkscape="http://www.inkscape.org/namespaces/inkscape"
   width="24"
   height="24"
   viewBox="0 0 24 24"
   version="1.1"
   id="svg4"
   sodipodi:docname="overlay-globe.svg"
   inkscape:version="0.92.4 (5da689c313, 2019-01-14)">
  <metadata
     id="metadata10">
    <rdf:RDF>
      <cc:Work
         rdf:about="">
        <dc:format>image/svg+xml</dc:format>
        <dc:type
           rdf:resource="http://purl.org/dc/dcmitype/StillImage" />
        <dc:title />
      </cc:Work>
    </rdf:RDF>
  </metadata>
  <defs
     id="defs8" />
  <sodipodi:namedview
     pagecolor="#ffffff"
     bordercolor="#666666"
     borderopacity="1"
     objecttolerance="10"
     gridtolerance="10"
     guidetolerance="10"
     inkscape:pageopacity="0"
     inkscape:pageshadow="2"
     inkscape:window-width="3237"
     inkscape:window-height="1235"
     id="namedview6"
     showgrid="false"
     inkscape:zoom="9.8333333"
     inkscape:cx="-59.694916"
     inkscape:cy="12"
     inkscape:window-x="0"
     inkscape:window-y="0"
     inkscape:window-maximized="0"
     inkscape:current-layer="svg4" />
  <path
     d="M 5.0291649,3.077089 C 5.0160439,3.053877 5.157375,3.041217 5.1824923,3.041217 5.2102333,3.044377 5.1090153,3.200183 5.0291649,3.077089 Z M 4.2224154,1.9966822 4.2629029,1.98578 c 0.023992,0.019343 -0.026991,0.033411 -0.019119,0.047831 0.03224,0.054513 0.00787,0.08722 0.00299,0.1167627 -0.00524,0.029894 -0.038987,0.016881 -0.055858,0.032707 -0.019868,0.023212 0.09672,0.026378 0.09822,0.029894 0.00412,0.011606 -0.1405814,0.031301 -0.1139647,0.06014 0.035989,0.04783 0.308904,-0.068581 0.2654176,-0.061898 0.084349,-0.039741 0.010871,-0.043962 -0.036364,-0.066821 C 4.3881074,2.0687809 4.3746122,1.9520184 4.324378,1.9052431 L 4.357367,1.8693711 C 4.2801474,1.7642118 4.2224154,1.9966822 4.2224154,1.9966822 Z m 4.8764869,2.4270466 c 0,2.3306823 -2.0142506,4.2203397 -4.4986043,4.2203397 -2.4847285,0 -4.49860317,-1.8896574 -4.49860317,-4.2203397 0,-2.3306822 2.01387467,-4.22033894 4.49860317,-4.22033894 2.4843537,0 4.4986043,1.88965674 4.4986043,4.22033894 z M 5.9836185,2.5347755 C 5.9813685,2.4834285 5.9123905,2.4348945 5.840413,2.5238725 5.789804,2.5850675 5.798801,2.6782666 5.771434,2.7197666 c -0.038988,0.061547 0.212559,0.1192246 0.212559,0.061195 0.00937,-0.097419 0.2744144,-0.022156 0.3261484,-0.00879 0.092971,0.024267 0.2410503,-0.079483 0.079101,-0.1339959 -0.1330836,-0.04572 -0.2031869,-0.094606 -0.2151831,-0.1839364 0,0 0.070479,-0.061898 0.039738,-0.058381 -0.081725,0.0095 -0.2301785,0.2764322 -0.2301789,0.1389197 z m 2.3602674,1.8889533 c 0,-0.3640042 -0.066354,-0.7315254 -0.1338334,-0.925661 C 8.1883047,3.4368732 8.1391988,3.388339 8.0754692,3.3651271 7.9794984,3.3299579 7.5742496,3.575089 7.5131438,3.4544576 7.4730313,3.3739195 7.3916815,3.505805 7.2987105,3.4572675 7.2537251,3.4340594 7.1285129,3.2761483 7.0719056,3.2954915 6.9560666,3.3345297 7.2496004,3.6345255 7.3298257,3.6739153 7.4051772,3.6204579 7.6492267,3.5103771 7.7017098,3.6605507 7.8021791,3.9433136 7.425421,4.2531568 7.2327307,4.4163432 6.9448201,4.6604195 6.9988033,4.2584322 6.8027392,4.1166992 6.6996461,4.0424915 6.7007708,3.8845805 6.5965532,3.8300678 6.5500676,3.8054492 6.3367589,3.575089 6.3386333,3.5441398 l -0.00638,0.058382 c -0.035239,0.02497 -0.1102164,-0.094255 -0.1180891,-0.1128946 0,0.10375 0.1799443,0.2690466 0.2395508,0.3520466 0.1015934,0.1424365 0.1559515,0.3499365 0.2804129,0.4663474 0.066729,0.062602 0.3216501,0.3214493 0.3880045,0.3158222 0.072352,-0.00597 0.3010314,-0.1610763 0.341519,-0.152284 0.241425,0.053458 -0.5683236,1.1271823 -0.6451746,1.260123 -0.063356,0.1114872 0.051734,0.3872161 0.042362,0.5191016 C 6.8499746,6.4030678 6.7221392,6.4523051 6.6010518,6.5353051 6.4713421,6.6242839 6.5017076,6.7973178 6.3926166,6.8606229 6.1988016,6.9724619 6.0593449,7.3364662 5.7841804,7.3347076 5.7032056,7.334356 5.3568131,7.4613178 5.3114523,7.3371695 5.2762131,7.2471357 5.2289779,7.1789069 5.1791183,7.0899281 5.1303834,7.0027076 5.173495,6.9123221 5.1142635,6.8353009 5.0734011,6.7818433 4.9361937,6.6605086 4.9238225,6.5972035 4.9230734,6.5426905 4.9676835,6.3770425 5.02879,6.3482035 5.114638,6.3070555 5.045285,6.1871272 5.03479,6.1174916 5.0167937,5.9929916 4.9346942,5.8902967 4.8360998,5.8181992 4.6902701,5.7130424 4.7656216,5.629339 4.7997362,5.4791653 c 0,-0.071746 -0.046486,-0.166 -0.1492038,-0.1378644 C 4.4390981,5.3989788 4.5032032,5.1865551 4.3491261,5.1960509 4.2381605,5.2034365 4.1474386,5.2695551 4.0443457,5.2987458 3.9146359,5.3353221 3.7819271,5.2699069 3.653717,5.2547839 3.1262557,5.1921823 2.9541841,4.6266568 3.0917664,4.2186907 3.1056371,4.1518687 3.0490297,4.0280721 3.073772,3.9763729 3.1330036,3.8525762 3.2537161,3.7136568 3.3594333,3.6197542 3.418665,3.567 3.4947663,3.5803644 3.5644946,3.5392161 3.6720862,3.4755593 3.6735857,3.3447288 3.7789281,3.2645424 3.9288816,3.1502415 4.133568,3.1527034 4.3292571,3.1280847 4.4334749,3.1150721 4.8301017,3.0345339 4.8927072,3.106983 c 0,0.013365 0.071604,0.2124238 -0.00712,0.2011695 0.1623272,0.00809 0.3936303,0.2634196 0.5477075,0.2036314 0.079101,-0.030949 0.050235,-0.2588475 0.212559,-0.1487669 0.09822,0.066118 0.5383328,0.095661 0.6298045,0.024267 0.056233,-0.04361 0.087723,-0.3270763 0.019494,-0.3590806 0.043487,0.040445 -0.2290539,0.04361 -0.254546,0.034466 -0.044986,-0.015474 -0.086973,0.040094 -0.1593254,0.00879 0.043487,0.019344 -0.2421749,-0.1245 -0.081725,-0.2345806 -0.067104,0.046072 -0.1297096,-0.013013 -0.2020623,0.037631 -0.049859,0.037983 0.023243,0.063305 -0.047985,0.096364 C 5.4362884,3.0246864 5.350815,2.7862373 5.3080783,2.7591568 5.2645917,2.7324279 4.9279463,2.5108602 5.0194179,2.6554068 l 0.2957832,0.2760805 c -0.01462,0.00879 -0.077601,-0.1005848 -0.077601,-0.02075 0.019869,-0.047479 0.0075,0.2036313 -0.038988,0.1220382 -0.020619,-0.031301 0.033739,-0.048885 0.00224,-0.094254 0,-0.029894 -0.085474,-0.059084 -0.1019683,-0.079483 -0.04686,-0.054513 -0.1713218,-0.1747924 -0.2388009,-0.2036313 -0.018744,-0.00809 -0.286411,0.030597 -0.3089041,0.038686 -0.026243,0.034466 -0.048735,0.07069 -0.067104,0.1093771 -0.055483,0.019343 -0.1075917,0.044314 -0.1570763,0.075263 L 4.2681475,3.0028818 C 4.2426555,3.0243348 3.9813615,3.105225 3.9798619,3.1083903 3.9907339,3.0820133 3.7972936,3.0482503 3.8100397,2.9954963 3.8242857,2.9374663 3.8898907,2.7563437 3.8730207,2.690225 3.8550267,2.620941 4.2756457,2.790106 4.3026374,2.607577 4.3135084,2.528445 4.3198824,2.4363016 4.1852988,2.4229372 c 0.025492,0.00281 0.2605441,-0.086517 0.299532,-0.1266102 0.054733,-0.059084 0.1803191,-0.1554492 0.2714157,-0.1554492 0.106467,0 0.083599,-0.14525 0.1327088,-0.2162923 0.04911,0.01864 -0.026243,0.1322372 0.032615,0.1783093 -0.00374,-0.036224 0.1668233,0.020047 0.1833181,0.011606 0.038988,-0.018992 0.2564203,-0.00773 0.2226809,-0.1033983 -0.037489,-0.097419 0.019119,-0.068581 0.067854,-0.088979 -0.00825,0.00317 0.1274604,-0.2176991 0.1507031,-0.14525 -0.01612,-0.074559 -0.1578263,0.026025 -0.2073109,0.022157 C 5.2244792,1.790589 5.2728392,1.6161482 5.3159509,1.5651525 5.3493155,1.5247076 5.2248542,1.4751186 5.2233546,1.5524915 5.2211053,1.6681992 5.1063909,1.7730042 5.1330076,1.9266948 5.173495,2.1584618 4.8574682,1.8707754 4.8297268,1.8866016 4.7247594,1.9463898 4.638911,1.811339 4.6932692,1.7304492 4.7487515,1.6478003 4.8825854,1.6516694 4.9376932,1.5630423 4.9766813,1.5004402 5.0220422,1.4276397 5.0820235,1.380161 5.2825861,1.2222499 5.338069,1.3485079 5.5378819,1.3657418 c 0.1953143,0.016882 0.06598,0.04361 0.038987,0.1139491 -0.025867,0.066822 0.1072167,0.090737 0.1533274,0.034818 C 5.7564391,1.4821527 5.8160449,1.4009113 5.841912,1.3407715 5.8752771,1.2626949 6.1796822,1.2714874 5.9671232,1.1522627 5.8269167,1.073835 5.2158564,0.9159237 4.8064835,0.9159237 4.718011,0.9159237 4.6561552,1.0084194 4.5886761,1.060822 4.4552176,1.164572 4.1133238,1.3682033 3.9232578,1.306305 3.7286932,1.2433518 3.3121975,1.5384237 3.2454682,1.5405339 3.2211,1.5419385 3.246964,1.3175593 3.3796766,1.3010296 3.322319,1.3091198 3.8471564,1.0523813 3.8329109,0.99892366 3.8156669,0.93561837 2.7836117,1.2880169 2.8297223,1.3587076 2.8518404,1.391063 2.9418125,1.391063 2.8237208,1.4621059 2.7562454,1.5004409 2.684268,1.7438135 2.6209126,1.7438135 2.4315964,1.8215381 2.4196001,1.5908262 2.2089155,1.8876567 L 1.8737696,2.0142669 C 1.3759242,2.5105085 1.0314062,3.1389873 0.90656991,3.8371017 c -0.004871,0.027784 0.12521109,0.079483 0.14208079,0.098475 0.041987,0.047128 0.041987,0.2504068 0.062606,0.3168773 0.051735,0.1681101 0.1795692,0.2616609 0.2774138,0.4146483 0.057732,0.091089 0.1537023,0.3214491 0.1233367,0.4171101 0.040488,-0.062602 0.4011255,0.2866314 0.4671049,0.3594322 C 2.134314,5.61492 2.2539018,5.82242 2.0019801,5.991937 c -0.08135,0.054865 0.1237116,0.3970636 0.017994,0.4811186 l -0.135333,0.032707 c -0.1334586,0.077021 -0.073102,0.2658813 0.00787,0.3453644 0.6815384,0.668572 1.6419902,1.0856831 2.7066596,1.0856831 2.0682328,0 3.7447127,-1.5727805 3.7447127,-3.5130812 z M 4.0301001,2.1880042 c 0.04686,-0.019344 0.1098408,-0.01864 0.1165887,-0.077372 0.00563,-0.052051 0.016495,-0.016178 0.02999,-0.035169 0.013121,-0.01864 -0.025117,-0.048534 -0.041237,-0.051348 -0.023992,-0.00493 -0.040487,0.024267 -0.055858,0.036576 l -0.026992,0.00669 -0.025492,0.030597 0.00299,0.016882 -0.032614,0.03728 c -0.031866,0.029543 7.492e-4,0.048885 0.032614,0.035872 z"
     id="path2"
     inkscape:connector-curvature="0"
     style="stroke-width:0.99999994" />
</svg>
