<?xml version="1.0" encoding="UTF-8" standalone="no"?>
<svg
   xmlns:dc="http://purl.org/dc/elements/1.1/"
   xmlns:cc="http://creativecommons.org/ns#"
   xmlns:rdf="http://www.w3.org/1999/02/22-rdf-syntax-ns#"
   xmlns:svg="http://www.w3.org/2000/svg"
   xmlns="http://www.w3.org/2000/svg"
   xmlns:sodipodi="http://sodipodi.sourceforge.net/DTD/sodipodi-0.dtd"
   xmlns:inkscape="http://www.inkscape.org/namespaces/inkscape"
   width="24"
   height="24"
   viewBox="0 0 24 24"
   version="1.1"
   id="svg4"
   sodipodi:docname="play-stream.svg"
   inkscape:version="0.92.4 (5da689c313, 2019-01-14)">
  <metadata
     id="metadata10">
    <rdf:RDF>
      <cc:Work
         rdf:about="">
        <dc:format>image/svg+xml</dc:format>
        <dc:type
           rdf:resource="http://purl.org/dc/dcmitype/StillImage" />
        <dc:title></dc:title>
      </cc:Work>
    </rdf:RDF>
  </metadata>
  <defs
     id="defs8" />
  <sodipodi:namedview
     pagecolor="#ffffff"
     bordercolor="#666666"
     borderopacity="1"
     objecttolerance="10"
     gridtolerance="10"
     guidetolerance="10"
     inkscape:pageopacity="0"
     inkscape:pageshadow="2"
     inkscape:window-width="2761"
     inkscape:window-height="1352"
     id="namedview6"
     showgrid="false"
     inkscape:zoom="9.8333333"
     inkscape:cx="-23.847458"
     inkscape:cy="12"
     inkscape:window-x="1003"
     inkscape:window-y="345"
     inkscape:window-maximized="0"
     inkscape:current-layer="svg4" />
  <path
     d="m 21.132337,2.4710316 c -0.774274,-0.8123871 -1.544259,-2.85504059 -0.560204,-2.5817817 0.884946,0.24573835 0.06355,0.78593042 1.311625,1.961493 1.052028,0.9908987 2.119143,0.6702391 2.045124,1.551645 -0.08497,0.6577789 -2.024181,-0.1209747 -2.796545,-0.9313563 z M 24.16503,8.0757592 24.125264,5.552864 c -3.246687,0.024074 -5.921713,-2.5016651 -6.00489,-5.67004397 l -2.584621,0.04505536 c 0.105214,4.56695801 3.949403,8.19694311 8.629274,8.14788381 z m 0.02786,1.7661839 C 18.51564,9.9167804 13.845626,5.5143739 13.741491,-0.0408466 l -2.58462,0.04505535 C 11.28225,6.9422856 17.125446,12.465128 24.232592,12.365364 Z"
     id="path2-5"
     inkscape:connector-curvature="0"
     sodipodi:nodetypes="ssscscccccccccc"
     style="stroke-width:0.53051984" />
  <path
     inkscape:connector-curvature="0"
     d="m 1.440678,22.133173 c 0,0.733747 0.5782034,1.341404 1.2542379,1.341404 0.4214237,0 0.8428475,-0.304498 1.2542373,-0.503027 L 18.069357,15.426151 c 0.342407,-0.178407 0.930644,-0.54461 0.930644,-1.341405 0,-0.796794 -0.588237,-1.162997 -0.930644,-1.341404 L 3.9491532,5.1979424 C 3.5377634,4.9994145 3.1163396,4.6949157 2.6949159,4.6949157 c -0.6760345,0 -1.2542379,0.6076562 -1.2542379,1.3414044 z"
     id="path2"
     style="stroke-width:1" />
</svg>
