<svg id="Layer_1" data-name="Layer 1" xmlns="http://www.w3.org/2000/svg" viewBox="0 0 118.22 122.88"><title>shredding</title><path d="M6.46,86.38a7.5,7.5,0,0,1-4.25-2.14L2,84a7.5,7.5,0,0,1-2-5.07V34.09a7.5,7.5,0,0,1,2.21-5.31l.24-.23a7.5,7.5,0,0,1,5.08-2H19.36a8.36,8.36,0,0,1-.13-1.43V7.8a7.78,7.78,0,0,1,2.3-5.51h0A7.78,7.78,0,0,1,27,0H91.19A7.82,7.82,0,0,1,99,7.8V25.14a7.46,7.46,0,0,1-.14,1.43h11.84A7.53,7.53,0,0,1,116,28.78h0a7.49,7.49,0,0,1,2.21,5.3V78.93a7.56,7.56,0,0,1-6.46,7.45H98.85v22.17a8.09,8.09,0,0,1-2.38,5.73,1.62,1.62,0,0,1-.2.18,8.08,8.08,0,0,1-5.54,2.21h-7a8,8,0,0,1-2.54-.41,8.13,8.13,0,0,1-8,6.62h-8a8.09,8.09,0,0,1-5.73-2.38h0a8.15,8.15,0,0,1-2.25-4.25,8.1,8.1,0,0,1-2.57.42H47a8.08,8.08,0,0,1-2.56-.42,8.21,8.21,0,0,1-2.24,4.25,8.09,8.09,0,0,1-5.74,2.38h-8a8.13,8.13,0,0,1-8.12-8.12V86.38Zm86.67-17.2H81.29v39.37a2.42,2.42,0,0,0,2.4,2.4h7a2.41,2.41,0,0,0,1.59-.6l.11-.11a2.42,2.42,0,0,0,.7-1.69V69.18ZM57,69.18H44.57v39.37a2.42,2.42,0,0,0,.7,1.69A2.4,2.4,0,0,0,47,111h7.64a2.39,2.39,0,0,0,1.69-.7h0a2.38,2.38,0,0,0,.69-1.69V69.18Zm18.56,0H62.76v45.58a2.36,2.36,0,0,0,.71,1.69h0a2.44,2.44,0,0,0,1.71.7h8a2.39,2.39,0,0,0,1.69-.71,2.36,2.36,0,0,0,.71-1.69V69.18Zm-36.74,0H26v45.58a2.42,2.42,0,0,0,2.41,2.4h8a2.42,2.42,0,0,0,2.4-2.4V69.18ZM25.94,26.57H92.27l.18-.16A1.79,1.79,0,0,0,93,25.14V7.8a1.79,1.79,0,0,0-.53-1.27A1.81,1.81,0,0,0,91.19,6H27a1.84,1.84,0,0,0-1.27.53h0a1.79,1.79,0,0,0-.52,1.27V25.14a1.8,1.8,0,0,0,.54,1.27,1.29,1.29,0,0,0,.17.16ZM6.8,58.31H111.42V34.09a.72.72,0,0,0-.21-.51.76.76,0,0,0-.52-.21H7.53a.77.77,0,0,0-.45.14L7,33.58a.7.7,0,0,0-.22.51V58.31Zm104.62,6.8H98.31a4.53,4.53,0,0,1,.84.66,4.46,4.46,0,0,1,1.31,3.16V79.65h10.23a.72.72,0,0,0,.51-.21.76.76,0,0,0,.22-.51V65.11Zm-91.51,0H6.8V78.93a.75.75,0,0,0,.15.44l.07.07a.72.72,0,0,0,.51.21H17.76V68.93a4.49,4.49,0,0,1,1.3-3.16,5,5,0,0,1,.85-.66Z"/></svg>