<?xml version="1.0" encoding="UTF-8" standalone="no"?>
<svg
   xmlns:dc="http://purl.org/dc/elements/1.1/"
   xmlns:cc="http://creativecommons.org/ns#"
   xmlns:rdf="http://www.w3.org/1999/02/22-rdf-syntax-ns#"
   xmlns:svg="http://www.w3.org/2000/svg"
   xmlns="http://www.w3.org/2000/svg"
   xmlns:sodipodi="http://sodipodi.sourceforge.net/DTD/sodipodi-0.dtd"
   xmlns:inkscape="http://www.inkscape.org/namespaces/inkscape"
   width="24"
   height="24"
   viewBox="0 0 24 24"
   version="1.1"
   id="svg4"
   sodipodi:docname="user-connections.svg"
   inkscape:version="0.92.4 (5da689c313, 2019-01-14)">
  <metadata
     id="metadata10">
    <rdf:RDF>
      <cc:Work
         rdf:about="">
        <dc:format>image/svg+xml</dc:format>
        <dc:type
           rdf:resource="http://purl.org/dc/dcmitype/StillImage" />
        <dc:title />
      </cc:Work>
    </rdf:RDF>
  </metadata>
  <defs
     id="defs8" />
  <sodipodi:namedview
     pagecolor="#ffffff"
     bordercolor="#666666"
     borderopacity="1"
     objecttolerance="10"
     gridtolerance="10"
     guidetolerance="10"
     inkscape:pageopacity="0"
     inkscape:pageshadow="2"
     inkscape:window-width="3428"
     inkscape:window-height="1550"
     id="namedview6"
     showgrid="false"
     inkscape:zoom="9.8333333"
     inkscape:cx="-59.694916"
     inkscape:cy="12"
     inkscape:window-x="273"
     inkscape:window-y="216"
     inkscape:window-maximized="0"
     inkscape:current-layer="svg4" />
  <path
     d="m 17.590322,22.915255 h -0.964169 c 0,-1.538848 0.05797,-1.759958 -0.85017,-1.976111 -1.389254,-0.329186 -2.702186,-0.639534 -3.181373,-1.714347 -0.173898,-0.392644 -0.290796,-1.039118 0.149746,-1.890839 0.98639,-1.912653 1.233712,-3.552636 0.678203,-4.499542 -0.64922,-1.105551 -2.615237,-1.110509 -3.270254,0.01686 -0.5564742,0.959796 -0.3052878,2.590856 0.688831,4.473763 0.449237,0.848745 0.336203,1.497203 0.162305,1.89183 -0.47339,1.079772 -1.7737631,1.388136 -3.1514241,1.713355 -0.9487118,0.225074 -0.8888135,0.431311 -0.8888135,1.985032 H 6.0019322 l -0.00193,-0.617721 c 0,-1.24833 0.09661,-1.968178 1.5341695,-2.309263 1.624983,-0.385703 3.2306443,-0.729762 2.4587284,-2.190279 -2.2857962,-4.32801 -0.6530844,-6.781043 1.8017799,-6.781043 2.407526,0 4.083712,2.362805 1.803712,6.781042 -0.748729,1.451593 0.796068,1.796645 2.458729,2.190279 1.439491,0.341085 1.535135,1.062916 1.535135,2.31323 z m 4.646949,-2.195238 c -1.245305,-0.295474 -2.404627,-0.554262 -1.843322,-1.642958 1.71,-3.313677 0.454068,-5.085533 -1.352542,-5.085533 -1.222119,0 -2.171797,0.810076 -2.171797,2.305296 0,1.258246 0.554543,2.156568 0.873356,2.900212 h 1.012475 c -0.164237,-0.743644 -1.416305,-2.540288 -0.740034,-3.704339 0.398034,-0.686136 1.646237,-0.687127 2.042339,-0.0119 0.367119,0.625652 0.174864,1.796644 -0.515898,3.134212 -0.374848,0.726788 -0.270509,1.289974 -0.116899,1.634034 0.294661,0.660355 0.943882,0.978636 1.678119,1.197762 1.455915,0.437263 1.321627,0.04164 1.321627,1.467457 h 0.963203 l 0.0019,-0.459076 c 0,-0.936991 -0.07149,-1.479355 -1.15256,-1.735169 z M 0.20532203,22.915255 H 1.1685254 c 0,-1.425814 -0.1342881,-1.030196 1.3216271,-1.467458 0.7352034,-0.219127 1.3844237,-0.537407 1.6781187,-1.197763 0.1536101,-0.345051 0.2579491,-0.907245 -0.1168983,-1.634033 -0.6907628,-1.337569 -0.883017,-2.50856 -0.5158984,-3.134212 0.3961017,-0.676221 1.6443051,-0.67523 2.042339,0.0119 0.6762712,1.165042 -0.5757966,2.960695 -0.7400339,3.704339 h 1.0124746 c 0.3188136,-0.743642 0.8733559,-1.641964 0.8733559,-2.90021 9.661e-4,-1.496212 -0.9487118,-2.306288 -2.1708305,-2.306288 -1.8066101,0 -3.0625423,1.771856 -1.3525423,5.085534 0.561305,1.089687 -0.598017,1.347483 -1.8433221,1.642957 -1.08203384,0.255814 -1.15352537,0.798178 -1.15352537,1.736162 z"
     id="path2"
     inkscape:connector-curvature="0"
     style="stroke-width:0.97873098" />
  <path
     inkscape:connector-curvature="0"
     d="M 16.322294,2.4034705 C 16.018648,2.2619113 15.750078,2.147575 15.494596,2.0475926 c 0.403117,-1.0295213 0.985279,-1.70860954 1.738635,-1.70860954 0.733986,0 1.305678,0.6439459 1.706699,1.62941564 -0.257575,0.104437 -0.52248,0.2212481 -0.822985,0.3657771 -0.307834,-0.7756057 -0.658597,-1.126039 -0.883714,-1.126039 -0.231399,0 -0.596821,0.3712217 -0.910937,1.1953337 z m 0.910937,8.9454525 c -0.224593,0 -0.57588,-0.350433 -0.883714,-1.126039 -0.303646,0.146014 -0.565933,0.26134 -0.822985,0.365777 0.401545,0.98547 0.972714,1.629416 1.706699,1.629416 0.753356,0 1.335519,-0.679089 1.738634,-1.708609 -0.25391,-0.09949 -0.521956,-0.213329 -0.827696,-0.355879 -0.314117,0.824112 -0.679539,1.195334 -0.910938,1.195334 z M 14.768464,10.252087 C 13.764862,10.601035 12.26705,10.941074 11.671277,10.095184 11.377054,9.6769408 11.267637,8.8736167 12.414685,7.4184283 12.719378,7.0323573 13.071189,6.6537109 13.428758,6.305258 14.230278,5.5360864 15.133362,4.795623 16.310776,4.0294212 15.743796,3.7344243 15.12551,3.4522951 14.522406,3.2419366 13.904644,3.0271232 13.360699,2.9078373 12.943972,2.9078373 c -0.265953,0 -0.463846,0.052965 -0.52824,0.1430435 -0.06858,0.095033 -0.07224,0.3875554 0.23297,0.911721 l 0.10994,-0.00597 c 0.548657,0 0.993132,0.4281415 0.993132,0.9562664 0,0.5281249 -0.444998,0.9562673 -0.993132,0.9562673 -0.548132,0 -0.993131,-0.4281424 -0.993131,-0.9562673 0,-0.170762 0.04659,-0.3311296 0.128788,-0.4702138 -0.581116,-0.9701261 -0.461228,-1.5536863 -0.219358,-1.888281 0.169623,-0.2356021 0.528239,-0.5157507 1.269031,-0.5157507 1.316147,0 3.089334,0.8216372 4.231148,1.4581588 1.159089,-0.6746335 2.993006,-1.5640807 4.347371,-1.5640807 0.743932,0 1.102548,0.2875731 1.272695,0.5291147 0.294222,0.4182426 0.403639,1.2215669 -0.743409,2.6762604 -1.614558,2.0476594 -4.824828,4.2596459 -7.283313,5.1139511 z m 6.563987,-5.6396004 c 0.788431,-0.9993282 0.812514,-1.525473 0.715138,-1.6635675 -0.06597,-0.093548 -0.257575,-0.1474989 -0.525098,-0.1474989 -1.022449,0 -2.578896,0.72215 -3.475175,1.2111724 0.662262,0.4142836 1.280025,0.8508402 1.843863,1.2953164 -0.213075,0.204419 -0.436621,0.4053744 -0.665403,0.5993991 -0.625615,-0.4870431 -1.320859,-0.963691 -2.041757,-1.3913386 -0.827696,0.5132755 -1.661152,1.1156444 -2.409796,1.7576106 0.562792,0.4707094 1.233431,0.9646815 1.948046,1.4220269 -0.273282,0.1638321 -0.549704,0.3207353 -0.864868,0.4850631 l -0.0068,-0.00446 C 15.251686,7.7747957 14.661671,7.3342789 14.114585,6.873469 c -1.4753,1.4245018 -1.890981,2.4569928 -1.695705,2.7346668 0.06596,0.09355 0.257575,0.147499 0.525098,0.147499 1.230289,0 3.183046,-0.9983394 4.338471,-1.7145496 1.418236,-0.8790527 3.035935,-2.1421964 4.050008,-3.4286036 z m 1.244424,3.5097775 c 0.07382,-0.1336395 0.115176,-0.2855929 0.115176,-0.446951 0,-0.5281249 -0.444475,-0.9562664 -0.993131,-0.9562664 -0.548657,0 -0.993132,0.4281415 -0.993132,0.9562664 0,0.5281249 0.444475,0.9562673 0.993132,0.9562673 l 0.135069,-0.00891 c 0.289511,0.5068414 0.2848,0.7909494 0.217264,0.8844974 -0.06492,0.08959 -0.262287,0.14255 -0.528239,0.14255 -0.83869,0 -2.00668,-0.46774 -2.758989,-0.8206483 -0.251293,0.1692767 -0.563839,0.3702313 -0.868532,0.5538633 1.008314,0.513276 2.490944,1.1359382 3.627521,1.1359382 0.740791,0 1.099408,-0.280148 1.26903,-0.515751 0.241346,-0.3336042 0.361234,-0.9156802 -0.215169,-1.8808559 z"
     id="path2-4"
     style="stroke-width:0.99999994" />
</svg>
