<?xml version="1.0" encoding="utf-8"?>
<svg version="1.1" id="Layer_1" xmlns="http://www.w3.org/2000/svg" xmlns:xlink="http://www.w3.org/1999/xlink" x="0px" y="0px"
	 viewBox="0 0 1790.333 1711.718" enable-background="new 0 0 1790.333 1711.718" xml:space="preserve">
<g>
	<path fill="#FA1F08" d="M325.069,1297.785c59.126-99.992,173.147-186.96,303.453-207.809
		c108.687-17.39,215.651,95.909,229.546,292.15c-92.156,183.819-227.086,268.701-413.009,235.633
		C421.583,1564.719,265.661,1398.255,325.069,1297.785z"/>
	<path d="M174.937,725.369c33.62,70.572,75.358,135.416,129.838,191.82c56.382,58.374,123.172,105.05,195.042,142.292
		c156.98,79.419,335.086,108.577,509.871,100.968c56.791-2.472,113.021-9.543,169.224-17.724
		c-281.994,118.924-638.941,72.472-859.328-147.53C245.682,922.605,194.613,826.824,174.937,725.369z"/>
	<path d="M408.83,1119.249c-50.887,57.601-90.694,125.711-113.175,199.375c-20.92,68.548-28.568,149.42,22.757,206.101
		c56.634,62.544,138.159,93.375,222.018,84.228c73.726-8.042,143.508-43.09,199.726-90.626
		c40.663-34.384,74.544-77.694,91.886-128.49c21.04-61.627,16.484-140.645-35.948-185.772
		c-33.9-29.178-84.799-39.427-122.707-11.448c-47.479,35.041-65.08,100.854-72.689,156.47
		c-0.643-70.858,20.475-168.928,97.396-194.01c65.828-21.465,134.987,23.461,163.921,81.011
		c71.444,142.105-38.952,293.678-158.834,364.652c-74.04,43.834-162.761,66.519-248.288,49.395
		c-70.667-14.084-134.457-56.092-176.875-114.192c-51.395-70.395-30.947-168.853,1.536-242.662
		C308.857,1226.699,353.268,1166.254,408.83,1119.249z"/>
	<path d="M1191.664,988.535c39.797,17.699,74.152,50.063,102.869,82.083c28.608,32.1,56.902,69.949,69.871,111.524
		c-39.833-17.606-74.225-50.015-102.869-82.083C1232.983,1067.893,1204.729,1030.085,1191.664,988.535z"/>
	<path d="M58.424,744.208c22.672-28.731,55.6-50.421,87.247-67.974c31.689-17.456,67.642-33.759,104.041-37.524
		c-22.605,28.776-55.576,50.486-87.247,67.974C130.735,724.084,94.82,740.363,58.424,744.208z"/>
	<path d="M242.467,410.467c72.272-16.643,171.585-18.893,313.887,1.739c-58.647-85.666-205.043-116.242-381.707-127.815
		c280.607-35.795,416.998,50.69,492.133,189.115C529.153,448.287,372.52,419.013,242.467,410.467z"/>
	<path d="M298.115,168.313c73.42-15.547,156.769-8.37,229.025,9.498c70.082,17.33,142.05,46.076,190.94,101.362
		c-64.798-29.766-130.544-51.865-200.13-67.846C445.131,194.604,371.19,183.711,298.115,168.313z"/>
	<circle cx="1360.635" cy="559.585" r="62.604"/>
	<path d="M1535.76,342.577c29.11,23.716,54.405,51.291,72.596,84.367c19.845,36.084,31.645,75.17,35.502,116.177
		c3.881,72.021-14.34,142.404-58.44,200.268c-46.395,60.876-115.092,102.193-190.808,113.882
		c-68.732,10.611-138.025-3.654-198.042-38.076c-39.226-22.497-73.994-56.115-98.389-94.259
		c-34.454-53.873-50.169-114.658-47.992-178.295c3.071-68.936,31.968-138.565,80.24-188.141
		c56.774-57.828,131.951-92.017,213.591-91.735C1415.704,267.012,1482.837,294.762,1535.76,342.577
		c-29.882-22.042-62.636-40.068-98.647-49.916c-32.088-8.402-64.231-11.901-97.313-10.059
		c-76.956,4.343-152.943,44.115-199.91,105.375c-35.642,46.488-57.501,103.072-58.465,161.983
		c-0.998,61.032,17.29,119.218,53.102,168.803c54.655,75.675,147.873,115.14,239.567,109.038
		c124.018-8.253,228.107-106.899,248.97-228.476c7.49-43.651,4.903-90.069-8.877-132.241
		C1598.456,418.942,1571.534,378.121,1535.76,342.577z"/>
	<path d="M1236.298,55.859c36.093,50.81,85.738,97.556,149.553,144.915c160.246,118.926,319.974,268.384,346.058,361.709
		c-45.994-49.535-90.977-94.599-131.583-126.366C1351.698,241.613,1259.461,128.613,1236.298,55.859z"/>
</g>
</svg>
