<?xml version="1.0" encoding="UTF-8" standalone="no"?>
<!-- Generator: Adobe Illustrator 16.0.0, SVG Export Plug-In . SVG Version: 6.00 Build 0)  -->

<svg
   xmlns:dc="http://purl.org/dc/elements/1.1/"
   xmlns:cc="http://creativecommons.org/ns#"
   xmlns:rdf="http://www.w3.org/1999/02/22-rdf-syntax-ns#"
   xmlns:svg="http://www.w3.org/2000/svg"
   xmlns="http://www.w3.org/2000/svg"
   xmlns:sodipodi="http://sodipodi.sourceforge.net/DTD/sodipodi-0.dtd"
   xmlns:inkscape="http://www.inkscape.org/namespaces/inkscape"
   version="1.1"
   id="Capa_1"
   x="0px"
   y="0px"
   width="485.228px"
   height="485.228px"
   viewBox="0 0 485.228 485.228"
   style="enable-background:new 0 0 485.228 485.228;"
   xml:space="preserve"
   sodipodi:docname="eye-search-enabled.svg"
   inkscape:version="0.92.4 (5da689c313, 2019-01-14)"><metadata
   id="metadata47"><rdf:RDF><cc:Work
       rdf:about=""><dc:format>image/svg+xml</dc:format><dc:type
         rdf:resource="http://purl.org/dc/dcmitype/StillImage" /><dc:title></dc:title></cc:Work></rdf:RDF></metadata><defs
   id="defs45" /><sodipodi:namedview
   pagecolor="#ffffff"
   bordercolor="#666666"
   borderopacity="1"
   objecttolerance="10"
   gridtolerance="10"
   guidetolerance="10"
   inkscape:pageopacity="0"
   inkscape:pageshadow="2"
   inkscape:window-width="2517"
   inkscape:window-height="1270"
   id="namedview43"
   showgrid="false"
   inkscape:zoom="0.4863693"
   inkscape:cx="-482.14392"
   inkscape:cy="242.614"
   inkscape:window-x="145"
   inkscape:window-y="248"
   inkscape:window-maximized="0"
   inkscape:current-layer="g8" />
<g
   id="g10">
	<g
   id="g8">
		<path
   d="m 424.56906,432.98911 -59.52073,-59.53888 c -9.55783,13.43983 -21.3095,25.19149 -34.74997,34.77137 l 59.51748,59.51748 c 9.59803,9.60321 25.14935,9.60321 34.75257,0 9.60061,-9.59738 9.60061,-25.15 6.5e-4,-34.74997 z"
   id="path2"
   inkscape:connector-curvature="0"
   style="stroke-width:1" />
		<path
   d="m 372.76954,288.16946 c 0,-70.57612 -57.21474,-127.7915 -127.78112,-127.7915 -70.57742,0 -127.79086,57.21538 -127.79086,127.7915 0,70.57612 57.21344,127.78826 127.79151,127.78826 70.56573,0 127.78047,-57.21214 127.78047,-127.78826 z m -127.78047,98.3005 c -54.20145,0 -98.3018,-44.10164 -98.3018,-98.3005 0,-54.20145 44.10035,-98.3005 98.3018,-98.3005 54.20598,0 98.28688,44.0984 98.28688,98.3005 0,54.19886 -44.07766,98.3005 -98.28688,98.3005 z"
   id="path4"
   inkscape:connector-curvature="0"
   style="stroke-width:1" />
		
	<path
   inkscape:connector-curvature="0"
   d="m 244.57535,29.663521 c 58.36619,0 99.05422,29.404118 116.75695,45.258141 -17.21133,17.933399 -57.89936,52.365128 -116.75695,52.365128 -54.29984,0 -97.4203,-34.51959 -116.43753,-52.784908 18.34155,-16.078557 59.177,-44.838361 116.43753,-44.838361 z m 0,-19.524659 c -92.9854,0 -147.604655,63.953002 -147.604655,63.953002 0,0 59.398125,72.719586 147.604655,72.719586 95.00016,0 147.23611,-72.719586 147.23611,-72.719586 0,0 -52.71507,-63.953002 -147.23611,-63.953002 z m -0.18427,29.286989 c -27.13764,0 -49.14013,17.494075 -49.14013,39.049299 0,21.56498 22.00249,39.04931 49.14013,39.04931 27.13763,0 49.14013,-17.48433 49.14013,-39.04931 0,-21.555224 -22.0025,-39.049299 -49.14013,-39.049299 z"
   id="path2-7"
   style="stroke-width:1" /></g>
</g>
<g
   id="g12">
</g>
<g
   id="g14">
</g>
<g
   id="g16">
</g>
<g
   id="g18">
</g>
<g
   id="g20">
</g>
<g
   id="g22">
</g>
<g
   id="g24">
</g>
<g
   id="g26">
</g>
<g
   id="g28">
</g>
<g
   id="g30">
</g>
<g
   id="g32">
</g>
<g
   id="g34">
</g>
<g
   id="g36">
</g>
<g
   id="g38">
</g>
<g
   id="g40">
</g>
</svg>