<?xml version="1.0" encoding="UTF-8" standalone="no"?>
<svg
   xmlns:dc="http://purl.org/dc/elements/1.1/"
   xmlns:cc="http://creativecommons.org/ns#"
   xmlns:rdf="http://www.w3.org/1999/02/22-rdf-syntax-ns#"
   xmlns:svg="http://www.w3.org/2000/svg"
   xmlns="http://www.w3.org/2000/svg"
   xmlns:sodipodi="http://sodipodi.sourceforge.net/DTD/sodipodi-0.dtd"
   xmlns:inkscape="http://www.inkscape.org/namespaces/inkscape"
   width="24"
   height="24"
   viewBox="0 0 24 24"
   version="1.1"
   id="svg4"
   sodipodi:docname="eye-friends.svg"
   inkscape:version="0.92.4 (5da689c313, 2019-01-14)">
  <metadata
     id="metadata10">
    <rdf:RDF>
      <cc:Work
         rdf:about="">
        <dc:format>image/svg+xml</dc:format>
        <dc:type
           rdf:resource="http://purl.org/dc/dcmitype/StillImage" />
        <dc:title />
      </cc:Work>
    </rdf:RDF>
  </metadata>
  <defs
     id="defs8" />
  <sodipodi:namedview
     pagecolor="#ffffff"
     bordercolor="#666666"
     borderopacity="1"
     objecttolerance="10"
     gridtolerance="10"
     guidetolerance="10"
     inkscape:pageopacity="0"
     inkscape:pageshadow="2"
     inkscape:window-width="3681"
     inkscape:window-height="1717"
     id="namedview6"
     showgrid="false"
     inkscape:zoom="9.8333333"
     inkscape:cx="-85.489123"
     inkscape:cy="12"
     inkscape:window-x="863"
     inkscape:window-y="229"
     inkscape:window-maximized="0"
     inkscape:current-layer="svg4" />
  <path
     inkscape:connector-curvature="0"
     d="m 12.112247,1.9443101 c 3.341804,0 5.671431,1.8305376 6.685016,2.8175206 -0.98545,1.1164334 -3.315076,3.2599616 -6.685016,3.2599616 -3.1089849,0 -5.5778826,-2.1489981 -6.6667305,-3.2860948 C 6.4956781,3.734736 8.8337462,1.9443101 12.112247,1.9443101 Z m 0,-1.21549609 c -5.3239592,0 -8.4512305,3.98135819 -8.4512305,3.98135819 0,0 3.4008904,4.5271166 8.4512305,4.5271166 5.439312,0 8.430127,-4.5271166 8.430127,-4.5271166 0,0 -3.018246,-3.98135819 -8.430127,-3.98135819 z m -0.01055,1.82324459 c -1.553789,0 -2.8135604,1.0890846 -2.8135604,2.4309926 0,1.342516 1.2597714,2.4309925 2.8135604,2.4309925 1.553788,0 2.813558,-1.0884765 2.813558,-2.4309925 0,-1.341908 -1.25977,-2.4309926 -2.813558,-2.4309926 z"
     id="path2-20"
     style="stroke-width:0.69305247" />
  <path
     inkscape:connector-curvature="0"
     d="m 15.982182,9.5593219 c -1.242,0 -2.249999,0.7915931 -2.249999,1.7663601 0,0.974767 1.007999,1.76636 2.249999,1.76636 1.24125,0 2.25,-0.791593 2.25,-1.76636 0,-0.974767 -1.00875,-1.7663601 -2.25,-1.7663601 m 0,0.5889831 c 0.82725,0 1.5,0.527729 1.5,1.177377 0,0.649648 -0.67275,1.177967 -1.5,1.177967 -0.82725,0 -1.5,-0.528319 -1.5,-1.177967 0,-0.649648 0.67275,-1.177377 1.5,-1.177377 M 8.7304317,9.5593219 c -1.2419997,0 -2.2499998,0.7915931 -2.2499998,1.7663601 0,0.974767 1.0080001,1.76636 2.2499998,1.76636 1.2412508,0 2.2500013,-0.791593 2.2500013,-1.76636 0,-0.974767 -1.0087505,-1.7663601 -2.2500013,-1.7663601 m 0,0.5889831 c 0.8272506,0 1.5000003,0.527729 1.5000003,1.177377 0,0.649648 -0.6727497,1.177967 -1.5000003,1.177967 -0.8272495,0 -1.4999995,-0.528319 -1.4999995,-1.177967 0,-0.649648 0.67275,-1.177377 1.4999995,-1.177377 m 7.2360003,8.733441 c 0.5205,0 0.92325,0.308627 0.95775,0.733284 0.0375,0.436437 0.129,1.296351 0.21,2.054962 l 0.117,1.116712 c 0.015,0.147835 0.123,0.319228 0.381,0.319228 0.303,0 0.34125,-0.250318 0.345,-0.327474 l 0.354,-6.742089 c 0.0165,-0.30156 0.525751,-0.385784 0.702751,-0.130755 l 1.233749,1.753403 c 0.0885,0.126631 0.33825,0.07362 0.33825,-0.06891 l -1.199999,-3.342479 c -0.06975,-0.197309 -0.3015,-0.333953 -0.561751,-0.333953 H 5.8669322 c -0.2595006,0 -0.4912505,0.136644 -0.5617505,0.333364 l -1.1924993,3.304196 c -0.016498,0.23677 0.2729992,0.192008 0.3314996,0.107783 l 1.2337496,-1.753404 c 0.1830003,-0.258563 0.6870004,-0.166681 0.7027506,0.130755 l 0.35325,6.742678 c 0.00829,0.150779 0.1094997,0.326885 0.3674996,0.326885 0.2467501,0 0.3727499,-0.159614 0.3885001,-0.318639 l 0.1200004,-1.142628 c 0.080246,-0.752131 0.1702498,-1.597322 0.2077495,-2.030813 0.035251,-0.423479 0.4380005,-0.732106 0.9577498,-0.732106 0.4380005,0 0.9135009,0.273877 0.9525005,0.732695 0.036751,0.432314 0.1267497,1.277504 0.2069996,2.029635 l 0.1200003,1.142628 c 0.01425,0.147835 0.12075,0.319228 0.37425,0.319228 0.2865,0 0.329251,-0.229114 0.3345,-0.327474 0.0915,-1.741034 0.47175,-7.238602 0.47625,-7.293967 0.0105,-0.156669 0.174751,-0.278588 0.37425,-0.278588 h 1.472251 c 0.199499,0 0.36375,0.122508 0.374249,0.279177 0.0045,0.05536 0.3705,5.552344 0.46275,7.293967 0.009,0.162559 0.1305,0.326885 0.38175,0.326885 0.258,0 0.3675,-0.171393 0.381,-0.318639 l 0.12375,-1.167365 c 0.07875,-0.745652 0.16725,-1.577886 0.204,-2.006076 0.039,-0.458229 0.515251,-0.732106 0.9525,-0.732106 m 1.6665,4.813169 c -0.60525,0 -1.08,-0.362813 -1.129499,-0.86286 -0.02625,-0.267987 -0.069,-0.673208 -0.11625,-1.112588 -0.081,-0.762145 -0.173251,-1.626183 -0.2115,-2.065564 -0.01125,-0.136056 -0.1155,-0.183174 -0.209251,-0.183174 -0.05925,0 -0.192,0.04594 -0.204,0.182584 -0.03675,0.430547 -0.125999,1.266314 -0.205499,2.0155 -0.0495,0.458818 -0.0945,0.884654 -0.122251,1.163831 -0.04875,0.499458 -0.5235,0.862271 -1.128,0.862271 -0.6195,0 -1.105499,-0.382839 -1.13325,-0.89113 -0.0795,-1.511921 -0.36675,-5.862739 -0.44325,-7.008899 h -0.76125 c -0.07875,1.144983 -0.3765,5.496978 -0.456,7.008309 -0.0285,0.525373 -0.47325,0.89172 -1.083,0.89172 -0.6022502,0 -1.074,-0.362813 -1.1227495,-0.86286 L 9.1871821,21.692962 c -0.080246,-0.755665 -0.1709997,-1.60439 -0.2077505,-2.039059 -0.011999,-0.137233 -0.1454996,-0.183174 -0.204,-0.183174 -0.093749,0 -0.1987495,0.04771 -0.2092494,0.181996 -0.037496,0.435847 -0.1282504,1.285161 -0.2085004,2.040826 l -0.1199995,1.139093 c -0.048749,0.499458 -0.5265004,0.862271 -1.1347507,0.862271 -0.6202499,0 -1.0897499,-0.375181 -1.1182497,-0.89113 L 5.6861817,17.111263 5.1011818,17.943496 c -0.2422497,0.343966 -0.8159999,0.459996 -1.1797498,0.316873 -0.345,-0.114852 -0.5655001,-0.375182 -0.5655001,-0.670263 0,-0.06773 0.011999,-0.134877 0.035251,-0.199665 l 1.1925002,-3.303606 c 0.1612498,-0.448806 0.6892501,-0.762144 1.28325,-0.762144 H 18.844183 c 0.59475,0 1.12275,0.313928 1.284,0.762144 l 1.1925,3.304194 c 0.02325,0.0642 0.03525,0.131344 0.03525,0.199077 0,0.296258 -0.22275,0.557767 -0.569249,0.67144 l -0.02775,0.01002 c -0.4245,0.128398 -0.9285,-0.01649 -1.147501,-0.328653 l -0.585749,-0.831644 -0.298501,5.691932 c -0.0285,0.525374 -0.4785,0.89172 -1.09425,0.89172"
     id="path2"
     style="stroke-width:0.99999994" />
</svg>
