<?xml version="1.0" encoding="UTF-8" standalone="no"?>
<svg
   width="24"
   height="24"
   viewBox="0 0 24 24"
   version="1.1"
   id="svg1"
   sodipodi:docname="info-offer.svg"
   inkscape:version="1.4.2 (f4327f4, 2025-05-13)"
   xmlns:inkscape="http://www.inkscape.org/namespaces/inkscape"
   xmlns:sodipodi="http://sodipodi.sourceforge.net/DTD/sodipodi-0.dtd"
   xmlns="http://www.w3.org/2000/svg"
   xmlns:svg="http://www.w3.org/2000/svg">
  <defs
     id="defs1" />
  <sodipodi:namedview
     id="namedview1"
     pagecolor="#ffffff"
     bordercolor="#000000"
     borderopacity="0.25"
     inkscape:showpageshadow="2"
     inkscape:pageopacity="0.0"
     inkscape:pagecheckerboard="0"
     inkscape:deskcolor="#d1d1d1"
     inkscape:zoom="75.625"
     inkscape:cx="12.006612"
     inkscape:cy="9.8842975"
     inkscape:window-width="3818"
     inkscape:window-height="2032"
     inkscape:window-x="119"
     inkscape:window-y="52"
     inkscape:window-maximized="0"
     inkscape:current-layer="svg1" />
  <path
     d="m 12.304132,1.5438017 c 3.934232,0 7.134986,3.106833 7.134986,6.9256198 0,3.8187875 -3.200754,6.9256205 -7.134986,6.9256205 -3.9342312,0 -7.1349861,-3.106833 -7.1349861,-6.9256205 0,-3.8187868 3.2007549,-6.9256198 7.1349861,-6.9256198 z m 0,-1.38512401 c -4.7283551,0 -8.5619832,3.72113551 -8.5619832,8.31074381 0,4.5896085 3.8336281,8.3107445 8.5619832,8.3107445 4.728356,0 8.561984,-3.721136 8.561984,-8.3107445 0,-4.5896083 -3.833628,-8.31074381 -8.561984,-8.31074381 z m -7.13e-4,3.98223141 c 0.492313,0 0.892587,0.3878347 0.892587,0.8657025 0,0.4778678 -0.400274,0.8657025 -0.892587,0.8657025 -0.492315,0 -0.89116,-0.3878347 -0.89116,-0.8657025 0,-0.4778678 0.398845,-0.8657025 0.89116,-0.8657025 z m 1.42771,8.4838849 h -2.853995 v -0.692562 c 0.345334,-0.123969 0.7135,-0.139205 0.7135,-0.509033 V 8.329524 c 0,-0.3698281 -0.368166,-0.4280033 -0.7135,-0.5519719 v -0.692562 h 2.140497 v 4.3389009 c 0,0.370521 0.36888,0.38645 0.713498,0.509033 z"
     id="path1"
     style="stroke-width:0.702951" />
  <path
     id="path2"
     d="M 6.8188916,16.357025 H 1.6743801 v 7.619356 h 5.1505454 v -1.127692 c 1.2804255,0.05842 3.0425,0.273001 5.8989835,0.935885 0.490335,0.11429 0.9308,0.168658 1.347995,0.168658 0.930188,0 1.721232,-0.269952 2.492783,-0.851556 0.496513,-0.373349 3.664662,-2.697926 5.084152,-3.781568 0.420285,-0.32111 0.615509,-0.732514 0.627723,-1.147534 0.0052,-0.174711 0.02304,-0.338026 -0.01408,-0.524161 -0.008,-0.03964 0.03299,-0.07548 -0.259299,-0.408192 -0.0361,-0.04109 -0.312218,-0.282319 -0.59376,-0.388798 -0.232805,-0.08805 -0.647552,-0.124013 -0.917441,-0.124013 -0.439856,0 -0.869589,0.126645 -1.237338,0.367078 -0.01751,0.011 -1.866091,1.190763 -3.023934,1.921375 -0.101981,-0.499491 -0.551912,-0.925025 -1.211182,-1.106196 -2.161169,-0.597696 -3.181733,-1.020213 -4.432286,-1.020213 -0.6469084,0 -1.2821964,0.116804 -1.9435258,0.35385 L 6.8005677,17.732742 M 2.7044892,17.20362 h 3.0903272 v 5.926166 H 2.7044892 Z M 20.5463,17.574006 c 0.617293,0.03346 1.038992,0.640303 0.402388,1.126038 -2.273454,1.735519 -3.760607,2.78605 -5.078117,3.77826 -1.051741,0.791567 -2.025403,0.688309 -2.867002,0.492745 C 11.361574,22.589235 8.979914,22.098686 6.8249255,21.998787 V 18.70831 c 0.7540398,-0.167625 1.5709809,-0.454159 2.2292205,-0.689512 1.41228,-0.505417 2.351723,-0.249534 3.691895,0.132281 1.392707,0.39536 1.368629,0.401339 1.94755,0.562192 0.879713,0.24128 0.613044,1.213461 -0.434577,0.975569 -0.625276,-0.143922 -1.806989,-0.3611 -2.267448,-0.439833 -0.658239,-0.11429 -0.869959,0.570962 -0.277646,0.725889 0.898255,0.23366 2.828133,0.629987 3.19897,0.629987 0.466641,0 0.790594,-0.198556 1.181006,-0.439834 0.749919,-0.460548 3.800538,-2.407504 3.800538,-2.407504 0.217353,-0.141806 0.446102,-0.194691 0.651866,-0.183539 z"
     inkscape:connector-curvature="0"
     sodipodi:nodetypes="ccccccsccssssscccscccccccccccccccccccsccc"
     style="stroke-width:0.933854" />
</svg>
