<?xml version="1.0" encoding="UTF-8" standalone="no"?>
<svg
   xmlns:dc="http://purl.org/dc/elements/1.1/"
   xmlns:cc="http://creativecommons.org/ns#"
   xmlns:rdf="http://www.w3.org/1999/02/22-rdf-syntax-ns#"
   xmlns:svg="http://www.w3.org/2000/svg"
   xmlns="http://www.w3.org/2000/svg"
   xmlns:sodipodi="http://sodipodi.sourceforge.net/DTD/sodipodi-0.dtd"
   xmlns:inkscape="http://www.inkscape.org/namespaces/inkscape"
   width="24"
   height="24"
   viewBox="0 0 24 24"
   version="1.1"
   id="svg4"
   sodipodi:docname="rand-connect-overlay.svg"
   inkscape:version="0.92.4 (5da689c313, 2019-01-14)">
  <metadata
     id="metadata10">
    <rdf:RDF>
      <cc:Work
         rdf:about="">
        <dc:format>image/svg+xml</dc:format>
        <dc:type
           rdf:resource="http://purl.org/dc/dcmitype/StillImage" />
        <dc:title />
      </cc:Work>
    </rdf:RDF>
  </metadata>
  <defs
     id="defs8" />
  <sodipodi:namedview
     pagecolor="#ffffff"
     bordercolor="#666666"
     borderopacity="1"
     objecttolerance="10"
     gridtolerance="10"
     guidetolerance="10"
     inkscape:pageopacity="0"
     inkscape:pageshadow="2"
     inkscape:window-width="1608"
     inkscape:window-height="956"
     id="namedview6"
     showgrid="false"
     inkscape:zoom="9.8333333"
     inkscape:cx="-23.847458"
     inkscape:cy="12"
     inkscape:window-x="0"
     inkscape:window-y="0"
     inkscape:window-maximized="0"
     inkscape:current-layer="svg4" />
  <path
     d="m 6.7196949,4.0789788 c -0.017352,-0.030483 0.1695508,-0.04711 0.202767,-0.04711 0.036686,0.00416 -0.097169,0.2087627 -0.202767,0.04711 z M 5.6528135,2.6601313 5.7063559,2.6458135 c 0.031729,0.025403 -0.035695,0.043877 -0.025284,0.062814 0.042635,0.071589 0.010411,0.1145424 0.00396,0.153339 -0.00694,0.039258 -0.051559,0.022169 -0.073869,0.042953 -0.026275,0.030483 0.1279069,0.03464 0.12989,0.039258 0.00545,0.015242 -0.1859111,0.041106 -0.1507119,0.078979 0.047593,0.062813 0.4085084,-0.090064 0.351,-0.081288 C 6.0528876,2.8896775 5.955718,2.8841355 5.893252,2.8541145 5.871937,2.7548135 5.85409,2.6014745 5.7876578,2.5400466 l 0.043627,-0.04711 C 5.729161,2.354839 5.6528135,2.6601313 5.6528135,2.6601313 Z m 6.4488825,3.1873263 c 0,3.0607755 -2.6637341,5.5423734 -5.9491536,5.5423734 -3.2859153,0 -5.94915257,-2.4815979 -5.94915257,-5.5423734 0,-3.0607754 2.66323727,-5.54237285 5.94915257,-5.54237285 3.2854195,0 5.9491536,2.48159745 5.9491536,5.54237285 z M 7.9819068,3.3667839 c -0.00297,-0.067432 -0.094195,-0.1311695 -0.1893813,-0.014318 -0.066928,0.080364 -0.05503,0.2027585 -0.09122,0.2572585 -0.051559,0.080826 0.2810974,0.156572 0.2810974,0.080364 C 7.9947966,3.5621525 8.3453008,3.6609915 8.4137161,3.6785424 8.5366653,3.710411 8.7324916,3.574161 8.518322,3.502572 8.3423263,3.4425296 8.2496186,3.3783305 8.2337543,3.2610169 c 0,0 0.093204,-0.081288 0.052551,-0.076669 -0.1080763,0.01247 -0.3043983,0.3630255 -0.3043985,0.182436 z m 3.1213222,2.4806737 c 0,-0.4780296 -0.08775,-0.960678 -0.176987,-1.2156271 -0.02876,-0.080364 -0.0937,-0.1441017 -0.177979,-0.1745848 C 10.621347,4.4110597 10.085428,4.7329788 10.004619,4.5745593 9.9515724,4.4687924 9.8439919,4.6419913 9.7210428,4.5782493 9.6615521,4.5477713 9.4959659,4.3403941 9.4211059,4.3657966 9.2679153,4.4170636 9.6560974,4.8110339 9.7621909,4.8627627 9.8618391,4.7925597 10.184581,4.6479957 10.253987,4.8452117 10.386852,5.2165508 9.8886104,5.6234534 9.6337882,5.8377585 9.2530424,6.1582924 9.3244322,5.6303813 9.0651483,5.44425 8.9288135,5.3467966 8.9303008,5.1394195 8.7924788,5.0678305 8.7310043,5.0355 8.4489153,4.7329788 8.4513941,4.6923347 l -0.00843,0.07667 c -0.046604,0.032792 -0.1457563,-0.1237801 -0.1561674,-0.148259 0,0.13625 0.2379662,0.3533263 0.3167925,0.4623263 0.1343516,0.1870551 0.2062373,0.4595551 0.3708304,0.6124322 0.088246,0.082212 0.4253645,0.4221441 0.5131145,0.4147543 0.095682,-0.00785 0.3980972,-0.2115339 0.4516398,-0.1999873 0.3192711,0.070203 -0.7515763,1.4802754 -0.8532076,1.6548602 -0.083784,0.146411 0.068415,0.5085127 0.056021,0.6817118 C 9.1276145,8.4468305 8.9585594,8.5114915 8.798428,8.6204915 8.6268941,8.7373432 8.6670508,8.9645805 8.5227839,9.0477161 8.2664745,9.194589 8.0820508,9.6726187 7.718161,9.6703093 7.6110763,9.6698475 7.1529915,9.8365805 7.0930043,9.6735424 7.0464025,9.5553051 6.9839365,9.4657034 6.918,9.3488517 6.8535508,9.2343093 6.9105635,9.1156102 6.8322331,9.0144619 6.7781949,8.9442585 6.5967457,8.7849153 6.5803856,8.7017797 6.5793948,8.6301907 6.6383902,8.4126526 6.7191992,8.3747797 6.8327288,8.3207417 6.7410131,8.1632458 6.7271344,8.0717966 6.7033347,7.9082966 6.5947627,7.7734322 6.4643771,7.67875 6.2715255,7.5406525 6.3711737,7.4307288 6.4162882,7.2335127 c 0,-0.09422 -0.061475,-0.218 -0.1973137,-0.1810508 C 5.9393644,7.1282076 6.0241398,6.8492415 5.8203814,6.8617119 5.6736356,6.871411 5.553661,6.9582415 5.4173263,6.9965763 5.2457924,7.0446102 5.0702924,6.9587034 4.9007415,6.9388432 4.2032034,6.8566314 3.9756483,6.1139534 4.1575932,5.5781907 4.1759364,5.4904364 4.1010763,5.3278602 4.1337966,5.2599661 4.2121271,5.0973898 4.3717627,4.9149534 4.5115678,4.7916356 4.5898983,4.7223559 4.6905381,4.7399068 4.78275,4.6858686 4.9250339,4.6022712 4.9270169,4.4304576 5.0663263,4.3251525 5.2646314,4.1750466 5.5353178,4.1782796 5.7941059,4.1459491 5.931928,4.1288602 6.4564449,4.0230932 6.5392373,4.1182373 c 0,0.017551 0.094691,0.2789661 -0.00942,0.2641864 C 6.744486,4.3930467 7.0503715,4.7283602 7.2541301,4.6498432 7.358736,4.6091992 7.3205625,4.309911 7.5352275,4.4544746 7.6651174,4.5413046 8.2471427,4.5801017 8.3681089,4.4863436 8.4424737,4.4290726 8.4841174,4.0568097 8.3938885,4.01478 8.4513968,4.067894 8.0909775,4.072051 8.0572656,4.060043 7.9977739,4.039721 7.9422487,4.112696 7.8465665,4.07159 7.9040748,4.096993 7.5263038,3.90809 7.7384902,3.7635264 7.6497486,3.8240304 7.5669564,3.7464374 7.4712741,3.8129454 7.405338,3.8628264 7.5020112,3.8960814 7.4078167,3.9394962 7.2580932,4.010161 7.1450594,3.6970169 7.0885424,3.6614534 7.0310339,3.6263517 6.585839,3.3353771 6.7068051,3.5252034 L 7.0979619,3.8877669 C 7.0786276,3.8993139 6.995339,3.7556737 6.995339,3.8605169 7.021615,3.7981649 7.005259,4.1279364 6.94378,4.0207839 6.916513,3.9796779 6.988398,3.9565849 6.94675,3.8970042 6.94675,3.8577462 6.8337161,3.8194112 6.8119025,3.7926229 6.7499325,3.7210339 6.585339,3.5630762 6.4961017,3.5252034 6.4713137,3.5145804 6.117339,3.5653854 6.0875932,3.5760084 c -0.034704,0.045263 -0.064449,0.092835 -0.088742,0.1436398 -0.073373,0.025402 -0.1422839,0.058195 -0.2077246,0.098839 l -0.07783,0.1630382 C 5.6795847,4.0096991 5.3340381,4.1159279 5.3320551,4.1200847 5.3464322,4.0854449 5.0906186,4.0411059 5.1074745,3.9718263 5.1263135,3.8956186 5.213072,3.6577585 5.1907627,3.5709279 5.1669661,3.4799407 5.7232119,3.7020974 5.7589068,3.4623898 5.7732839,3.3584703 5.7817119,3.2374618 5.6037331,3.219911 c 0.033712,0.00369 0.344555,-0.1136187 0.3961144,-0.1662712 0.072381,-0.077593 0.2384619,-0.2041441 0.3589321,-0.2041441 0.1407967,0 0.1105551,-0.19075 0.1755,-0.2840466 0.064945,0.024479 -0.034704,0.173661 0.043132,0.2341653 -0.00495,-0.047572 0.2206145,0.026326 0.242428,0.015241 0.051559,-0.024941 0.3391016,-0.010161 0.294483,-0.1357881 C 7.0647462,2.5511308 7.1396064,2.5890033 7.2040555,2.5622156 7.193149,2.5663756 7.3726148,2.2763215 7.403352,2.3714656 7.3820339,2.2735508 7.1946356,2.405644 7.1291949,2.4005635 6.9779873,2.3894788 7.0419407,2.160394 7.0989534,2.0934237 7.1430763,2.0403093 6.9784831,1.9751864 6.9765,2.0767966 6.9735255,2.22875 6.821822,2.3663856 6.8570212,2.5682203 6.9105635,2.872589 6.4926356,2.4947839 6.4559492,2.5155678 6.3171356,2.5940847 6.2036059,2.4167288 6.2754915,2.3105 6.3488644,2.2019618 6.5258517,2.2070423 6.5987288,2.0906525 6.6502882,2.0084406 6.7102755,1.9128347 6.7895975,1.850483 7.0548305,1.6431059 7.1282034,1.808915 7.3924449,1.831547 7.6507373,1.853717 7.4796999,1.888818 7.4440039,1.981191 7.4097969,2.068945 7.585792,2.1003521 7.6467708,2.026916 7.6814748,1.9844236 7.7603007,1.8777334 7.7945084,1.7987546 7.8386314,1.6962203 8.2411907,1.7077669 7.9600932,1.5511949 7.774678,1.4481991 6.9665847,1.240822 6.4252119,1.240822 c -0.117,0 -0.1988009,0.1214703 -0.2880382,0.1902881 C 5.9606822,1.5673601 5.5085466,1.8347796 5.2571949,1.7534915 4.9998941,1.6708175 4.4491017,2.058322 4.3608559,2.0610932 4.3286309,2.0629432 4.3628374,1.7682712 4.538339,1.7465635 4.4624871,1.7571865 5.1565551,1.4200254 5.1377161,1.349822 5.1149115,1.266686 3.7500763,1.7294745 3.8110551,1.8223093 c 0.02925,0.042491 0.148233,0.042491 -0.00794,0.1357881 C 3.7138855,2.0084406 3.6186992,2.3280508 3.5349153,2.3280508 3.2845551,2.4301229 3.2686906,2.1271398 2.990072,2.5169534 L 2.5468602,2.6832245 C 1.8884873,3.3349152 1.4328814,4.1602669 1.2677923,5.0770678 c -0.00644,0.036487 0.1655848,0.1043813 0.1878941,0.129322 0.055525,0.06189 0.055525,0.3288475 0.082793,0.4161399 0.068416,0.2207711 0.2374703,0.3436271 0.3668644,0.5445381 0.076347,0.1196229 0.2032627,0.4221441 0.1631059,0.5477712 0.053543,-0.082212 0.5304662,0.3764195 0.6177203,0.4720254 0.2052459,0.224928 0.3633941,0.497428 0.030242,0.7200466 -0.1075806,0.072051 0.1636017,0.5214449 0.023796,0.6318305 l -0.1789703,0.042953 c -0.1764916,0.1011483 -0.096674,0.3491695 0.010411,0.4535509 0.9012966,0.8780042 2.1714407,1.4257766 3.5794068,1.4257766 2.7351229,0 4.9521735,-2.0654588 4.9521735,-4.6135644 z M 5.3984873,2.9113856 c 0.06197,-0.025403 0.1452584,-0.024479 0.1541821,-0.1016102 0.00744,-0.068356 0.021814,-0.021246 0.039661,-0.046186 0.017352,-0.024479 -0.033216,-0.063737 -0.054534,-0.067432 -0.031729,-0.00647 -0.053543,0.031869 -0.073869,0.048034 l -0.035695,0.00878 -0.033712,0.040182 0.00396,0.02217 -0.043131,0.048958 c -0.04214,0.038797 9.907e-4,0.064199 0.043131,0.04711 z"
     id="path2"
     inkscape:connector-curvature="0"
     style="stroke-width:1" />
</svg>
