<?xml version="1.0" encoding="UTF-8" standalone="no"?>
<svg
   xmlns:dc="http://purl.org/dc/elements/1.1/"
   xmlns:cc="http://creativecommons.org/ns#"
   xmlns:rdf="http://www.w3.org/1999/02/22-rdf-syntax-ns#"
   xmlns:svg="http://www.w3.org/2000/svg"
   xmlns="http://www.w3.org/2000/svg"
   xmlns:sodipodi="http://sodipodi.sourceforge.net/DTD/sodipodi-0.dtd"
   xmlns:inkscape="http://www.inkscape.org/namespaces/inkscape"
   width="24"
   height="24"
   viewBox="0 0 24 24"
   version="1.1"
   id="svg4"
   sodipodi:docname="overlay-eye.svg"
   inkscape:version="0.92.4 (5da689c313, 2019-01-14)">
  <metadata
     id="metadata10">
    <rdf:RDF>
      <cc:Work
         rdf:about="">
        <dc:format>image/svg+xml</dc:format>
        <dc:type
           rdf:resource="http://purl.org/dc/dcmitype/StillImage" />
        <dc:title />
      </cc:Work>
    </rdf:RDF>
  </metadata>
  <defs
     id="defs8" />
  <sodipodi:namedview
     pagecolor="#ffffff"
     bordercolor="#666666"
     borderopacity="1"
     objecttolerance="10"
     gridtolerance="10"
     guidetolerance="10"
     inkscape:pageopacity="0"
     inkscape:pageshadow="2"
     inkscape:window-width="3620"
     inkscape:window-height="1697"
     id="namedview6"
     showgrid="false"
     inkscape:zoom="9.8333333"
     inkscape:cx="-121.33658"
     inkscape:cy="12"
     inkscape:window-x="180"
     inkscape:window-y="175"
     inkscape:window-maximized="0"
     inkscape:current-layer="svg4" />
  <path
     inkscape:connector-curvature="0"
     d="m 12.132674,1.116223 c 2.304358,0 3.910765,1.3492011 4.609687,2.0766588 -0.679521,0.8228693 -2.285927,2.4027607 -4.609687,2.4027607 -2.1438162,0 -3.8462576,-1.583923 -4.5970783,-2.4220222 C 8.2597402,2.4358597 9.8719672,1.116223 12.132674,1.116223 Z m 0,-0.89588354 c -3.6711633,0 -5.8275896,2.93446724 -5.8275896,2.93446724 0,0 2.3451017,3.3367196 5.8275896,3.3367196 3.750706,0 5.813038,-3.3367196 5.813038,-3.3367196 0,0 -2.081248,-2.93446724 -5.813038,-2.93446724 z m -0.0073,1.34382574 c -1.071423,0 -1.940105,0.8027117 -1.940105,1.7917675 0,0.9895039 0.868682,1.7917675 1.940105,1.7917675 1.071423,0 1.940104,-0.8022636 1.940104,-1.7917675 0,-0.9890558 -0.868681,-1.7917675 -1.940104,-1.7917675 z"
     id="path2-20"
     style="stroke-width:0.69305247" />
</svg>
