<?xml version="1.0" encoding="UTF-8" standalone="no"?>
<svg
   xmlns:dc="http://purl.org/dc/elements/1.1/"
   xmlns:cc="http://creativecommons.org/ns#"
   xmlns:rdf="http://www.w3.org/1999/02/22-rdf-syntax-ns#"
   xmlns:svg="http://www.w3.org/2000/svg"
   xmlns="http://www.w3.org/2000/svg"
   xmlns:sodipodi="http://sodipodi.sourceforge.net/DTD/sodipodi-0.dtd"
   xmlns:inkscape="http://www.inkscape.org/namespaces/inkscape"
   width="24"
   height="24"
   viewBox="0 0 24 24"
   version="1.1"
   id="svg4"
   sodipodi:docname="user-preferences.svg"
   inkscape:version="0.92.4 (5da689c313, 2019-01-14)">
  <metadata
     id="metadata10">
    <rdf:RDF>
      <cc:Work
         rdf:about="">
        <dc:format>image/svg+xml</dc:format>
        <dc:type
           rdf:resource="http://purl.org/dc/dcmitype/StillImage" />
        <dc:title />
      </cc:Work>
    </rdf:RDF>
  </metadata>
  <defs
     id="defs8" />
  <sodipodi:namedview
     pagecolor="#ffffff"
     bordercolor="#666666"
     borderopacity="1"
     objecttolerance="10"
     gridtolerance="10"
     guidetolerance="10"
     inkscape:pageopacity="0"
     inkscape:pageshadow="2"
     inkscape:window-width="3106"
     inkscape:window-height="1731"
     id="namedview6"
     showgrid="false"
     inkscape:zoom="55.625733"
     inkscape:cx="7.1349309"
     inkscape:cy="2.994182"
     inkscape:window-x="0"
     inkscape:window-y="0"
     inkscape:window-maximized="0"
     inkscape:current-layer="svg4" />
  <path
     d="m 9.602,3.7 c -1.154,1.937 -0.635,5.227 1.424,9.025 0.93,1.712 0.697,3.02 0.338,3.815 -0.982,2.178 -3.675,2.799 -6.525,3.456 C 2.875,20.45 3,20.866 3,24 H 1.005 L 1,22.759 c 0,-2.52 0.199,-3.975 3.178,-4.663 3.365,-0.777 6.688,-1.473 5.09,-4.418 C 4.535,4.949 7.918,0 13,0 16.321,0 18.97,2.117 18.97,6.167 18.97,9.722 17.021,13 16.587,14 h -2.115 c 0.392,-1.536 2.499,-4.366 2.499,-7.842 0,-5.153 -5.867,-4.985 -7.369,-2.458 z"
     id="path2"
     inkscape:connector-curvature="0"
     sodipodi:nodetypes="cccccccccssccsc" />
  <path
     inkscape:connector-curvature="0"
     d="m 23.451535,19.7825 v -1.883965 c -0.925185,-0.329932 -1.174141,-0.345437 -1.303787,-0.65857 -0.130508,-0.313994 0.03574,-0.50351 0.456131,-1.388208 l -1.332214,-1.332214 c -0.872637,0.414783 -1.071629,0.587501 -1.388639,0.456132 -0.313132,-0.130078 -0.330792,-0.382909 -0.657707,-1.303787 h -1.884397 c -0.329068,0.923462 -0.344575,1.173709 -0.65857,1.303787 -0.3239,0.134814 -0.518155,-0.04307 -1.388207,-0.456132 l -1.332213,1.332214 c 0.420811,0.885129 0.586639,1.073783 0.456131,1.388639 -0.130078,0.313133 -0.379463,0.329069 -1.303787,0.658139 v 1.884395 c 0.921309,0.327347 1.173709,0.344576 1.303787,0.65814 0.130939,0.316148 -0.03489,0.502649 -0.456131,1.388207 l 1.332213,1.332214 c 0.861008,-0.409182 1.063876,-0.591377 1.388207,-0.456131 0.313564,0.130077 0.329071,0.379033 0.65857,1.303786 h 1.883966 c 0.326485,-0.917861 0.344145,-1.172848 0.662015,-1.305509 0.320886,-0.132662 0.510833,0.04264 1.384762,0.457424 l 1.332214,-1.332215 C 22.183928,20.945872 22.01724,20.755495 22.147748,20.440639 22.276963,20.127937 22.52678,20.112 23.451535,19.7825 Z m -2.099757,0.32907 c -0.248524,0.600422 -0.02929,1.058707 0.210192,1.541113 l -0.466899,0.466899 c -0.470777,-0.233881 -0.930784,-0.463453 -1.53896,-0.211053 -0.601284,0.250249 -0.770988,0.729208 -0.942414,1.239179 h -0.660723 c -0.171426,-0.510402 -0.340699,-0.989361 -0.94026,-1.238317 -0.61119,-0.253262 -1.079812,-0.01938 -1.541543,0.210191 l -0.466469,-0.466899 c 0.23991,-0.481544 0.459146,-0.938968 0.20976,-1.541975 -0.249386,-0.599129 -0.728346,-0.768403 -1.238747,-0.93983 v -0.660292 c 0.510401,-0.171426 0.989361,-0.340699 1.238316,-0.94069 0.248956,-0.600422 0.02929,-1.059138 -0.21019,-1.541544 l 0.466899,-0.466899 c 0.466037,0.231727 0.931215,0.463884 1.541974,0.210191 0.599561,-0.248525 0.768834,-0.727916 0.94026,-1.238318 h 0.660723 c 0.171426,0.510402 0.34113,0.989362 0.940691,1.238318 0.611191,0.253262 1.079382,0.01938 1.541544,-0.210191 l 0.466899,0.466899 c -0.239479,0.482837 -0.458715,0.941983 -0.210191,1.541975 0.248525,0.59913 0.727485,0.768402 1.238318,0.940259 v 0.660723 c -0.511694,0.171427 -0.991516,0.3407 -1.23918,0.940261 z m -3.068873,-2.56321 c 0.712409,0 1.292158,0.579747 1.292158,1.292157 0,0.71241 -0.579749,1.292158 -1.292158,1.292158 -0.712409,0 -1.292157,-0.579748 -1.292157,-1.292158 0,-0.71241 0.579748,-1.292157 1.292157,-1.292157 z m 0,-0.861439 c -1.189647,0 -2.153596,0.963951 -2.153596,2.153596 0,1.189646 0.963949,2.153595 2.153596,2.153595 1.189646,0 2.153596,-0.963949 2.153596,-2.153595 0,-1.189645 -0.96395,-2.153596 -2.153596,-2.153596 z"
     id="path2-7"
     style="stroke-width:0.99999994" />
</svg>
